<svg id="Layer_1" data-name="Layer 1" xmlns="http://www.w3.org/2000/svg" viewBox="0 0 194.67 23.33"><defs><style>.cls-1{fill:#2a2727;}</style></defs><title>Artboard 2</title><polygon class="cls-1" points="9.87 13.68 6.69 4.81 2.34 4.81 8.03 18.93 11.63 18.93 17.32 4.81 13.06 4.81 9.87 13.68"/><polygon class="cls-1" points="26.44 13.3 33.17 13.3 33.17 10.23 26.44 10.23 26.44 8.11 33.87 8.11 33.87 4.81 22.59 4.81 22.59 18.83 33.97 18.83 33.97 15.52 26.44 15.52 26.44 13.3"/><polygon class="cls-1" points="50.08 12.22 44.31 4.81 40.68 4.81 40.68 18.83 44.53 18.83 44.53 11.13 50.52 18.83 53.92 18.83 53.92 4.81 50.08 4.81 50.08 12.22"/><polygon class="cls-1" points="59.8 8.21 64.01 8.21 64.01 18.83 67.89 18.83 67.89 8.21 72.1 8.21 72.1 4.81 59.8 4.81 59.8 8.21"/><path class="cls-1" d="M87,12.69c0,2-1,2.89-2.58,2.89s-2.58-1-2.58-3V4.81H77.88v7.87c0,4.39,2.5,6.41,6.49,6.41s6.57-2,6.57-6.51V4.81H87Z"/><path class="cls-1" d="M110,9.63v0a4.36,4.36,0,0,0-1.24-3.26,6.12,6.12,0,0,0-4.57-1.52H97.56v14h3.89V14.58h1.7L106,18.83h4.49l-3.35-4.89A4.44,4.44,0,0,0,110,9.63Zm-3.91.24c0,1-.76,1.66-2.08,1.66h-2.56V8.17H104c1.3,0,2.1.56,2.1,1.66Z"/><polygon class="cls-1" points="120.34 13.3 127.07 13.3 127.07 10.23 120.34 10.23 120.34 8.11 127.77 8.11 127.77 4.81 116.49 4.81 116.49 18.83 127.87 18.83 127.87 15.52 120.34 15.52 120.34 13.3"/><polygon class="cls-1" points="145.47 11.04 137.37 11.04 137.37 4.81 135.79 4.81 135.79 18.83 137.37 18.83 137.37 12.51 145.47 12.51 145.47 18.83 147.05 18.83 147.05 4.81 145.47 4.81 145.47 11.04"/><rect class="cls-1" x="152.71" y="4.81" width="1.58" height="14.02"/><polygon class="cls-1" points="164.46 11.1 162.38 4.77 158.37 4.77 162.7 15.69 166.16 15.69 170.49 4.77 166.54 4.77 164.46 11.1"/><polygon class="cls-1" points="176.22 12.48 183.87 12.48 183.87 11.04 176.22 11.04 176.22 6.25 184.77 6.25 184.77 4.81 174.63 4.81 174.63 18.83 184.87 18.83 184.87 17.39 176.22 17.39 176.22 12.48"/><rect class="cls-1" x="158.37" y="17.55" width="12.12" height="1.27"/><path class="cls-1" d="M190,4.18A1.82,1.82,0,0,0,188.18,6h0a1.81,1.81,0,1,0,3.62,0h0A1.8,1.8,0,0,0,190,4.18ZM191.51,6A1.52,1.52,0,0,1,190,7.54,1.5,1.5,0,0,1,188.48,6h0a1.51,1.51,0,1,1,3,0Z"/><path class="cls-1" d="M190.82,5.63c0-.38-.3-.58-.71-.58h-.83V6.89h.35V5.36h.45c.24,0,.37.1.37.3s-.13.3-.37.3h-.21v.29H190l.42.63h.43l-.49-.7A.55.55,0,0,0,190.82,5.63Z"/></svg>