<svg xmlns="http://www.w3.org/2000/svg" viewBox="0 0 544.97 442.11"><defs><style>.cls-1{fill:#099;}.cls-2{fill:#343f49;}.cls-3{fill:none;}.cls-4{fill:#75cff2;}.cls-5{fill:#e8e8e8;}.cls-6{fill:#077a3e;}.cls-7{fill:#fff;}.cls-8{fill:#d2d4d4;}.cls-9{fill:#ef3b4c;}.cls-10{fill:#f26825;}</style></defs><title>Asset 3</title><g id="Layer_2" data-name="Layer 2"><g id="Layer_1-2" data-name="Layer 1"><path class="cls-1" d="M426.68,234.32c.18-6.6-2.64-13.46-8.15-17.29a19.08,19.08,0,0,0-12.74-3.14A29.34,29.34,0,0,0,409,199.34c-.58-8.19-5.45-16.51-13.59-19.1-13.7-4.35-22,7.63-27,20a43.79,43.79,0,0,0-7.61-12c-6.21-6.75-15.85-10.87-25-9.22-17.17,3.09-21.11,21.44-18.56,36.92a28.31,28.31,0,0,0-7-.51,4.89,4.89,0,0,0,.43-2.13,53.64,53.64,0,0,1,10.81-33.49c2.66-3.59-1.07-7.56-4.56-8a29.68,29.68,0,0,0-13.39,1.59c.8-6.47.16-13-3.22-18.92-5.55-9.75-16.19-12.33-26.72-11.16a53.07,53.07,0,0,0-35,19c-1.2-6.34-3.4-12.38-7.75-17.51-6.82-8.06-17.25-10.93-27-6.81C187.47,145,171.47,164.61,176,182.68c-18.8-.1-35.81,13.31-38.44,32.9-2.43,18.08,8.34,34.26,24.35,40.47-6.46,4.47-12.26,9.78-15.5,17.16-4.58,10.42-1.87,21.11,5.62,29.38,13.43,14.83,35.49,15.3,50.47,3.57,5.52,8.56,15.36,14.09,25.86,12.86a25.76,25.76,0,0,0,21.47-17.94c9.65,4.7,21,5.85,31.09,1.44,13-5.7,19.13-21.24,10.23-33.17-3.75-5-9.31-8.47-12.84-13.64a22.87,22.87,0,0,1-3.3-17.11c2.14-10.79,11.11-16.14,20.9-18.49a27.49,27.49,0,0,0-12,16.49,28,28,0,0,0,6.13,25.61,25.53,25.53,0,0,0,19,8.49c-.35,4.41,1,9.36,2,13.14,1.76,6.56,5.22,12.74,10.86,16.7,11.43,8,28.21,1,38.75-5.7,7-4.43,12.69-10.9,15.42-18.38a74,74,0,0,0,7,4.92c7.15,4.5,16.14,6.58,24,2.58a16.72,16.72,0,0,0,8.09-20.25,20.16,20.16,0,0,0-4.69-7.82C419.37,252.26,426.39,245,426.68,234.32Zm-256.43-2.69a36.39,36.39,0,0,1,1.38-10Q170.72,226.61,170.25,231.63Zm2.8,33.86a9.12,9.12,0,0,0-.86-.53c.37-1.1.17-1.53,1-.65C173.14,264.69,173.09,265.09,173.06,265.49Zm37.06-113.11q-.37-.67-.77-1.32a1.9,1.9,0,0,1,1-.55,1.43,1.43,0,0,1,1.14.35C211,151.35,210.53,151.85,210.11,152.37Zm3.53,47.22a5.79,5.79,0,0,0-.91-1.24,8,8,0,0,0,1.51,0A5.47,5.47,0,0,0,213.64,199.6Zm29.8,99.23q-.22-1-.49-1.9c.35.26.69.52,1,.76C243.83,298.07,243.64,298.45,243.44,298.82Zm2.5-20.37c.07-.18.14-.35.21-.53a6.78,6.78,0,0,0,.66.57Zm149.71-3.67a19.77,19.77,0,0,0,3.56.09A10.6,10.6,0,0,1,395.64,274.78Z"/><path class="cls-2" d="M433.85,231.6c-.85-6.28-4-12.64-9.21-16.41a14.88,14.88,0,0,0-12.05-2.58c4-13-3.74-28.49-16.43-33.29-11.76-4.45-25.3,1.4-29.37,12.88-6.62-12.6-24.06-18-37.13-12.14,0-5.74-6.36-11-11.53-12a14.64,14.64,0,0,0-12.51,3.3c1.56-15-11.8-27.15-26.16-29.71-12.78-2.28-29.63.33-36.84,12.07-7.5-16.27-27.64-22.86-44.1-15.65-20.27,8.88-27.92,31.57-23.64,52.13-7.06-1-15.33,2.19-20.73,5.94a31.89,31.89,0,0,0-13.67,21.47,36.07,36.07,0,0,0,5.75,24.9c3.46,5.17,9.59,11.41,16.26,12.79-8.46,3.62-15.32,12.69-18.32,20.77a32.4,32.4,0,0,0,3.69,30.06c5.8,8.26,15.16,14.12,25.37,14.55A28.79,28.79,0,0,0,196.76,310c.54,5.3,4.17,10.32,8.28,13.64a32,32,0,0,0,23.09,6.65c7.94-.81,15.68-4.44,20.77-10.69,3.47-4.25,6.43-11,6-17,10.62,5.41,23.42,9.14,34,2.1,9.84-6.57,14.31-21,9.65-32a23.59,23.59,0,0,0,10.78,1c-2.35,8.56-3.45,17.67,2.5,25.09,5.21,6.49,13.73,9.66,21.86,10.05,16.52.81,34.06-10.62,35.88-27.26,3,3.41,8,5.38,12.17,6.6,8.54,2.51,18,2.61,26.14-1.42,6.74-3.35,12.33-9.53,13.65-17.09.91-5.17-.07-12.05-3.76-16.26C428.09,253.25,435.26,241.94,433.85,231.6ZM295.34,290.72a22,22,0,0,1-9.82,11.9c-10,5.65-21.3,1.15-31.11-3.1a12.09,12.09,0,0,0-.79-2.08,1.27,1.27,0,0,0-.18-.25,14.93,14.93,0,0,0,1.68-.69,13.33,13.33,0,0,0,7.35-8.9c7.48,4.87,19.32,1.47,19.52-8.9a1.41,1.41,0,0,0-2.76-.37c-2.4,7.8-10.75,11.87-17,4.88a1.63,1.63,0,0,0-2.75,1.14c.6,12.56-15.14,11.45-23.19,9.59a.94.94,0,0,0-.5,1.81c4.47,1.52,9.51,2.82,14.29,2.21a1,1,0,0,0-.23,1.8l1.15.66c.07,2.65.31,5.16-.38,7.95a23.35,23.35,0,0,1-3.81,8.17c-4.28,5.83-11.2,9.29-18.28,10.22-12.69,1.65-29.29-6.14-29.34-20.26.09-.15.19-.29.28-.44,4.17,1.8,8.8,2.29,12.34.07a1.31,1.31,0,0,0-.66-2.43c-3.39-.34-6.43.52-9.87-.42a21.08,21.08,0,0,1-9.17-5.53c-.84-.8-2.38.26-1.67,1.29a20.9,20.9,0,0,0,6.77,5.89,12.2,12.2,0,0,0-.43,1.83c-5.9,6.53-14.81,10.87-23.59,10.37-9.51-.54-18.3-6.42-23.26-14.42A29.21,29.21,0,0,1,148,276a34.8,34.8,0,0,1,7.76-11.54c3.46-3.42,7.44-5.28,11.53-7.67a16.25,16.25,0,0,0,8.64,8.34c-5.13,2.66-9.71,7-8.52,13.28,1,5.36,8.51,9.37,12.48,4.44.92-1.14-.25-3.11-1.69-2.19-4.91,3.13-8.79-1.91-6.93-6.73,1.63-4.21,6-6.12,10-7.52a6.68,6.68,0,0,0,4.73,4.87c1.1.24,2.25-1.24,1.21-2.07-2.59-2.08-4.85-4.31-4-8a1,1,0,0,0-1.94-.53,8.43,8.43,0,0,0-.41,2.41c-5.8-.64-10.93-5.26-11.44-11.22-.54-6.29,3.51-11.64,9.17-13.92a.78.78,0,0,0-.41-1.5,15.17,15.17,0,0,0-11.94,15.86q.06.72.2,1.42c-15.5-4.37-25.65-21.16-22.35-37.14a28.81,28.81,0,0,1,12.84-18.31A30.29,30.29,0,0,1,167,194.14c3.61-.75,6.94-.29,10.5-.17a10.88,10.88,0,0,0-1.26,7.83,1,1,0,0,0,2-.27A11.41,11.41,0,0,1,180.8,194c1.82-2.11,4.06-2.42,6.3-3.72.91-.53.85-2.24-.32-2.42-2.81-.44-5.66,1.53-7.55,3.65a1.58,1.58,0,0,0-.44-.27,15,15,0,0,0-2.47-.76C173.43,171.64,180,151,197.8,142c16.05-8.13,37.35-1.69,43,16.31a1.87,1.87,0,0,0,.22.45c-2.5-.23-4.85.12-6.35,1.37-.55.46-.16,1.22.38,1.43,2.31.93,5.21.25,7.7.86,2.64.65,4.74,2.17,7.21,3.15,1.44.57,2.27-1.44,1.4-2.41-1.53-1.71-4.67-3.26-7.92-4a1.88,1.88,0,0,0,.64-.84c5-13,22.47-15.51,34.46-13.33,14,2.55,27,14.77,22.7,30a1.59,1.59,0,0,0,.51,1.74,1,1,0,0,0,1.91.4l.07-.1a1.69,1.69,0,0,0,.94-1.1l0-.16a12.93,12.93,0,0,1,13.11-4.38,12.18,12.18,0,0,1,6.06,4c1.51,1.83,2,4,3.14,5.94-13.67,7.9-17.82,25.21-10.68,38.71-15.42-4.86-32.8,4.17-36.08,21-2.34,12,4.2,24.41,14.47,29.84a1.56,1.56,0,0,0,0,.78C296.14,278.3,297.62,284.09,295.34,290.72Zm119.4-39.89-.22-.13a1.3,1.3,0,0,0-1-.06l-.6-.12a.93.93,0,0,0-.49,1.79l.38.12c3.76,5.24,6.71,10,5.35,16.81-1.25,6.26-5.86,11.24-11.4,14.15-6.48,3.41-14,3.77-21.11,2.37-5.51-1.09-12.94-3-15.95-8.21,0-.74-.09-1.48-.18-2.23,7.4.54,15.06-2.75,17.4-10.3a1.4,1.4,0,0,0-2.32-1.35c-3.38,3.71-6.14,7.2-11.33,8.39-5.61,1.29-10.9-.89-15.18-4.41a1,1,0,0,0-1.46,1.46,17.36,17.36,0,0,0,9.51,5.68,1.54,1.54,0,0,0,0,.25c.89,18-14.37,30.65-31.84,30.23-6.88-.16-14.15-2.58-19-7.64-6.31-6.58-5.46-15.75-4.14-24.07.08.15.16.31.25.46,1.64,2.67,4.89,6.49,8.31,6.44a1.31,1.31,0,0,0,.92-2.21,13.29,13.29,0,0,0-2.84-1.93,13.84,13.84,0,0,1-3.84-3.79,15,15,0,0,1-2.56-9c0-1.23-2-1.58-2.21-.3a16.2,16.2,0,0,0,1,8.24c-16.05-.49-30.06-13-26.41-30,3.51-16.41,22.16-24.05,36.51-15.76,1.83,1.06,3.41-1.3,2.16-2.79-10.61-12.65-6.79-32.16,8.2-39.34a24.6,24.6,0,0,1,21.85.09c7.17,3.66,11,9.79,13.84,17a1.79,1.79,0,0,0,1.72,1,9.64,9.64,0,0,0-2.83,6c-4-3.57-8.87-6.33-14.32-4.6-4.69,1.49-7.62,7-4.69,11.36.48.71,1.76.29,1.45-.61-2-6,3.71-9.45,8.94-8.06,4,1.07,6.93,4.26,9.6,7.21,1.27,1.41,3-.39,2.41-1.86-1.34-3.17.39-7.41,3.8-8.41,4.65-1.37,7.47,3.61,7.36,7.47a1.41,1.41,0,0,0,2.76.37c1.6-6-4.27-12.36-10.46-11a8.38,8.38,0,0,0-2.73,1.13,1.58,1.58,0,0,0,0-.43,23.63,23.63,0,0,0-1.06-4.67A20.13,20.13,0,0,1,396,183a23.24,23.24,0,0,1,12.34,13.5c2.17,6.21,1.27,11.89.15,18.16-.23.19-.46.38-.68.6a1.37,1.37,0,0,0-.43.87,23.59,23.59,0,0,0-8.71-4.61c-1.07-.29-1.83,1.34-.78,1.84a28.21,28.21,0,0,1,9.06,6.47,23.84,23.84,0,0,1,3.34,4.77c.77,1.45,1.19,2.93,2.38,4.1a1.26,1.26,0,0,0,2.13-.88c.38-3.58-3.26-7.72-5.67-10.11a1.51,1.51,0,0,0,.45-.15c10.67-5.62,19.55,4.55,20.81,14.73C431.61,241.88,424.82,251.91,414.73,250.84Z"/><path class="cls-2" d="M255.27,184.22c-.46-3.3-3.39-5.57-6.79-6.53a11,11,0,0,0-9.81-8.78c-5.68-.53-10.27,3.11-13,7.73-5.57-6-16-7-21.93-.67-3.59,3.81-4.56,9.32-3.89,14.36.49,3.71,2.27,11.88,7.32,11.44a.83.83,0,0,0,0-1.65c-3.41-.22-4.31-9.11-4.39-11.47-.12-4,.93-8.31,4.06-11,5.31-4.59,14.16-2.73,17.63,3.13a1.75,1.75,0,0,0,3.15-.41c1.6-3.95,5.07-7.8,9.63-8a7.69,7.69,0,0,1,7.47,4.85,9.12,9.12,0,0,0-6,1.92c-.77.67.05,1.91,1,1.66a14.06,14.06,0,0,1,5.72-.65c.12,1.43,2.2,2.09,2.86.93,2,1.09,3,2.83,4.6,4.57C254,186.76,255.44,185.48,255.27,184.22Z"/><path class="cls-2" d="M340.42,268.45c-4.15,1.7-8.61,2.63-12.39-.56-4-3.41-4.28-9.15-1.47-13.4a1.57,1.57,0,0,0-1.35-2.35c-3.9,0-8.2,0-11.48-2.39-5-3.68-3.21-10.67,3.21-11,.64,0,.84-1,.16-1.16a7.51,7.51,0,0,0-9.22,8.59c1.23,7,8.63,8.65,14.8,9a13,13,0,0,0,2.86,14.63c4.25,3.93,11.64,4.67,16.1.74C342.55,269.75,341.59,268,340.42,268.45Z"/><path class="cls-2" d="M312,192.63c-1.06-10.62-12.68-18.56-22.91-17.11-1.22.17-.87,2.05.28,2.08,10,.27,16.6,6.2,19.7,15.42C309.59,194.52,312.19,194.39,312,192.63Z"/><path class="cls-2" d="M155.33,255.62c-8-6-13.46-13.37-16.1-23.14-.11-.4-.69-.23-.61.17,1.76,9.59,7.83,18.7,16.43,23.47A.29.29,0,0,0,155.33,255.62Z"/><path class="cls-2" d="M149.07,256.1c-11.27-11.42-17.13-25.41-15.44-41.57,0-.4-.65-.5-.71-.1-2.28,15.17,3.56,32.4,15.84,42C149,256.57,149.27,256.3,149.07,256.1Z"/><path class="cls-2" d="M151.24,259.67a35.29,35.29,0,0,0-13.57,22.53c0,.27.34.39.42.11A44,44,0,0,1,151.53,260C151.73,259.87,151.46,259.5,151.24,259.67Z"/><path class="cls-2" d="M174.14,157c-3.34,7.2-6,15.35-4.92,23.38.15,1.15,1.31,3.95.7,4.83s-3.47.66-4.75,1a21.29,21.29,0,0,0-9.13,4.72c-.07.06,0,.18.1.12a24.34,24.34,0,0,1,15-4.51.43.43,0,0,0,.41-.54c-3.45-9.9-.18-19.35,3.18-28.74C174.81,156.9,174.28,156.67,174.14,157Z"/><path class="cls-2" d="M179.24,143.36c-10.09,9.54-15.81,23.86-14.11,37.75,0,.26.42.27.41,0-.4-14.16,4.12-27.14,14.1-37.35A.28.28,0,0,0,179.24,143.36Z"/><path class="cls-2" d="M275.79,135.15c-8-3.3-20.39.67-27.18,5.49a45,45,0,0,0-3.89,3.59c-1.86,1.67-1.24.63-2.56-1.41a18.28,18.28,0,0,0-9.5-7.34c-.1,0-.17.12-.07.17a20.56,20.56,0,0,1,10.56,11.08.44.44,0,0,0,.79.1c6-9.06,21.37-13.87,31.62-10.9C276.09,136.09,276.26,135.34,275.79,135.15Z"/><path class="cls-2" d="M262.24,130.27a25.19,25.19,0,0,0-18.36,8.8c-.19.22.11.53.32.32,5.17-5.07,11-7.55,18.12-8.51C262.67,130.83,262.58,130.27,262.24,130.27Z"/><path class="cls-2" d="M300.86,149c-.13-.14-.32.06-.21.21,3.83,4.72,5.17,9.64,6.56,15.41a.31.31,0,0,0,.6-.08C308,158.79,304.68,153,300.86,149Z"/><path class="cls-2" d="M305.23,150.77c-.18-.12-.4.16-.23.3,4.33,3.74,6,8.18,6.58,13.74a.39.39,0,0,0,.78,0C313,159.36,309.67,153.73,305.23,150.77Z"/><path class="cls-2" d="M358.08,179.17A19.28,19.28,0,0,0,343,171.73c-3.06,0-5.6.92-8.46,1.85-2.46.8-2.47.14-4-1.9a25.68,25.68,0,0,0-3.77-3.86c-.19-.16-.45.1-.27.27a25.72,25.72,0,0,1,5.47,7.46.44.44,0,0,0,.59.15c8.88-5.1,18-3.08,25,3.93C357.77,179.93,358.35,179.53,358.08,179.17Z"/><path class="cls-2" d="M348.92,169.32a15,15,0,0,0-10.25-.6c-1.36.38-3.58,2-4.87,1.49a12.67,12.67,0,0,1-1.39-2,17.33,17.33,0,0,0-2.49-2.47.16.16,0,0,0-.23.22,22.28,22.28,0,0,1,3.91,5.7.44.44,0,0,0,.6.16c4.65-2.87,9.19-3.07,14.37-1.71C349,170.24,349.38,169.53,348.92,169.32Z"/><path class="cls-2" d="M414.2,187.2a.18.18,0,0,0-.32.18,31.52,31.52,0,0,1,2.67,20.89.25.25,0,0,0,.48.13A25.33,25.33,0,0,0,414.2,187.2Z"/><path class="cls-2" d="M434.11,216.74c-3-5.83-10.43-9.24-16.82-8.41a.3.3,0,0,0,0,.61c6.93.15,11.87,3,16.2,8.28C433.78,217.58,434.3,217.12,434.11,216.74Z"/><path class="cls-2" d="M433,211.53a12.08,12.08,0,0,0-8.42-6.4,17.44,17.44,0,0,1-2.75-.29c-.68-.58-.32-1.57-.37-2.39a16,16,0,0,0-1.58-5.78c-.07-.15-.33,0-.27.11a14.4,14.4,0,0,1,.9,8.48.47.47,0,0,0,.45.59c5,.12,8.35,2.2,11.24,6.14A.46.46,0,0,0,433,211.53Z"/><path class="cls-2" d="M409.71,288.48c-10.4,7.63-22.68,8.54-33.53,1.12-.22-.15-.4.19-.2.35,10,7.67,24.7,7.73,34.19-.88C410.47,288.79,410.06,288.22,409.71,288.48Z"/><path class="cls-2" d="M409,293.86c-8.68,6.38-17.7,6.63-27.82,3.44-.19-.06-.26.22-.08.29,8.87,3.35,21.34,4.89,28.38-3.11C409.76,294.16,409.39,293.57,409,293.86Z"/><path class="cls-2" d="M323.87,313.68c-15.31-3.92-23.54-17.77-19.26-33.18.05-.2-.22-.26-.3-.08-5.94,14.51,3.63,31.87,19.34,34.08C324.17,314.58,324.42,313.82,323.87,313.68Z"/><path class="cls-2" d="M326,311.47c-7.57-2-13.45-6-17.26-13-.16-.3-.59,0-.45.26,3.11,6.94,9.93,12.56,17.61,13.43C326.29,312.27,326.37,311.58,326,311.47Z"/><path class="cls-2" d="M214.38,332.43a27.39,27.39,0,0,1-11.14-4.5,23.6,23.6,0,0,1-4.68-4.5c-.83-1-4-4.94-3.27-6.4.12-.25-.21-.56-.41-.32-2,2.27,3.65,8.27,5.24,9.8A22.66,22.66,0,0,0,214.3,333,.3.3,0,0,0,214.38,332.43Z"/><path class="cls-2" d="M214.11,338.18c-9.3-3.65-18.4-7.45-22.6-17.24-.09-.21-.44-.06-.37.16,3.21,10,13.34,15,22.76,17.86C214.4,339.11,214.58,338.37,214.11,338.18Z"/><path class="cls-2" d="M272.6,310.91c-5,.15-9.31-.42-13.77-2.8a.37.37,0,0,0-.56.32c-.08,1-1.92,11-3.88,9.77-.25-.16-.45.22-.23.39,2.61,2,4.15-7.3,4.63-8.16.71-1.26.69-1,2.33-.27a21.37,21.37,0,0,0,3.54,1.19,18.67,18.67,0,0,0,8,.28A.37.37,0,0,0,272.6,310.91Z"/><path class="cls-2" d="M286.45,308.55c-7.52,6.41-16.63,8.23-25.91,4.65a.4.4,0,0,0-.5.38,20.41,20.41,0,0,1-2.91,9.49.18.18,0,0,0,.31.18,19.64,19.64,0,0,0,2.34-4.59c.34-1,.31-3.35,1.25-3.9s3.06.67,4.18.91a24,24,0,0,0,21.86-6.51A.43.43,0,0,0,286.45,308.55Z"/><path class="cls-2" d="M167,307.23a64.85,64.85,0,0,1-9.18-2.06c-.28-.09-.38.33-.12.43a33,33,0,0,0,9.24,2.06C167.22,307.68,167.28,307.26,167,307.23Z"/><path class="cls-2" d="M163.77,303.1c-3.35-.49-6.72-.95-10.07-1.44-.14,0-.2.2-.06.22,3.35.49,6.7,1,10,1.52C163.88,303.43,164,303.13,163.77,303.1Z"/><path class="cls-2" d="M164.06,297.55c-4.63-.75-9.29-1.35-13.94-2-.26,0-.33.43-.06.47,4.65.67,9.29,1.36,13.95,1.89C164.23,298,164.28,297.58,164.06,297.55Z"/><path class="cls-2" d="M163.49,292.4c-4.65-.66-9.31-1.19-14-1.74-.31,0-.31.45,0,.49,4.63.6,9.26,1.24,13.91,1.74C163.69,292.91,163.76,292.44,163.49,292.4Z"/><path class="cls-2" d="M163.43,286.13c-4.74-.4-9.48-.7-14.2-1.29-.45-.06-.45.66,0,.71,4.72.55,9.44,1.07,14.2,1.15C163.8,286.7,163.79,286.16,163.43,286.13Z"/><path class="cls-2" d="M162.91,281.11a76.88,76.88,0,0,0-11.91-.93.3.3,0,0,0,0,.6c4,.14,7.89.54,11.83.94C163.17,281.75,163.26,281.16,162.91,281.11Z"/><path class="cls-2" d="M165.88,276.35a66.3,66.3,0,0,0-12.5-1.77c-.59,0-.59.88,0,.92,4.14.25,8.23.84,12.33,1.47C166.1,277,166.28,276.46,165.88,276.35Z"/><path class="cls-2" d="M167,271c-3.45-.39-6.9-.67-10.35-1-.47,0-.46.69,0,.73,3.45.32,6.9.63,10.35.84C167.38,271.63,167.36,271,167,271Z"/><path class="cls-2" d="M167.65,266.28a17.08,17.08,0,0,0-6.31-.79c-.5,0-.51.81,0,.79a19.25,19.25,0,0,1,6.12.69A.36.36,0,0,0,167.65,266.28Z"/><path class="cls-2" d="M162.87,247.82c-1.36-.45-2.74-.85-4.12-1.26a.17.17,0,0,0-.09.33c1.38.41,2.75.83,4.14,1.2A.14.14,0,0,0,162.87,247.82Z"/><path class="cls-2" d="M159.93,242.14a31.61,31.61,0,0,0-7.45-1.81c-.22,0-.28.36-.05.4a54.6,54.6,0,0,1,7.39,1.82C160.08,242.63,160.18,242.23,159.93,242.14Z"/><path class="cls-2" d="M157.23,236.65c-2.82-.93-5.66-1.76-8.51-2.6a.21.21,0,0,0-.11.4c2.83.9,5.65,1.81,8.5,2.63A.22.22,0,0,0,157.23,236.65Z"/><path class="cls-2" d="M156.93,230.75c-2.23-.54-4.49-1-6.74-1.45-1-.21-2.77-1-3.78-.48a.25.25,0,0,0-.13.22c0,.26,0,.31.23.48a.26.26,0,0,0,.31,0l.12-.07a.25.25,0,0,0-.05-.46,24.06,24.06,0,0,1,2.41.63l2.62.56c1.62.34,3.25.68,4.89,1C157.09,231.24,157.22,230.82,156.93,230.75Z"/><path class="cls-2" d="M157.28,225.53c-3.81-1.1-7.68-2-11.52-3a.26.26,0,0,0-.14.5c3.83,1,7.65,2.12,11.52,3A.27.27,0,0,0,157.28,225.53Z"/><path class="cls-2" d="M158.45,218.48a104.52,104.52,0,0,1-10.94-2.13.23.23,0,0,0-.12.45,66.67,66.67,0,0,0,11,2.12C158.64,219,158.7,218.52,158.45,218.48Z"/><path class="cls-2" d="M164.08,214a117.44,117.44,0,0,0-13.87-2.57c-.39-.05-.56.54-.16.6,4.66.65,9.25,1.66,13.86,2.6A.32.32,0,0,0,164.08,214Z"/><path class="cls-2" d="M167.66,209.44c-4.86-.89-9.69-1.82-14.52-2.9a.29.29,0,0,0-.15.56,108.33,108.33,0,0,0,14.47,3C167.93,210.22,168.14,209.53,167.66,209.44Z"/><path class="cls-2" d="M171.48,206c-4.28-1.28-8.65-2.29-13-3.36a.31.31,0,0,0-.17.6c4.32,1.17,8.63,2.39,13,3.33A.3.3,0,0,0,171.48,206Z"/><path class="cls-2" d="M172.71,201.11a51.51,51.51,0,0,0-10.36-2.66c-.42-.06-.61.55-.18.65,3.48.82,6.89,1.8,10.32,2.8C173,202.06,173.19,201.29,172.71,201.11Z"/><path class="cls-2" d="M184.17,184.2c-1.54-.51-3.14-.86-4.71-1.27a.18.18,0,0,0-.09.34c1.57.42,3.13.9,4.73,1.21A.15.15,0,0,0,184.17,184.2Z"/><path class="cls-2" d="M186.26,179.15a60,60,0,0,1-7.39-1.83c-.26-.08-.36.32-.11.41a35.61,35.61,0,0,0,7.44,1.85C186.44,179.61,186.5,179.19,186.26,179.15Z"/><path class="cls-2" d="M188.94,174.07a49.24,49.24,0,0,1-9.72-2.49c-.32-.12-.46.39-.14.51a41.1,41.1,0,0,0,9.8,2.5C189.16,174.63,189.23,174.11,188.94,174.07Z"/><path class="cls-2" d="M192.78,168.73c-3.83-1.07-7.71-1.92-11.55-2.91a.27.27,0,0,0-.14.51c3.86,1,7.67,2,11.55,2.92A.27.27,0,0,0,192.78,168.73Z"/><path class="cls-2" d="M198.72,164.22c-4.42-1.36-8.87-2.59-13.32-3.83a.27.27,0,0,0-.14.51c4.43,1.33,8.84,2.67,13.31,3.88A.29.29,0,0,0,198.72,164.22Z"/><path class="cls-2" d="M199.91,158.55a53.29,53.29,0,0,0-10.35-3c-.43-.08-.62.57-.18.67a75.8,75.8,0,0,1,10.33,3.06C200.17,159.44,200.35,158.73,199.91,158.55Z"/><path class="cls-2" d="M207.28,156a103.82,103.82,0,0,0-15.35-4.85.24.24,0,0,0-.13.47c5.13,1.59,10.26,3.14,15.32,5C207.49,156.71,207.64,156.13,207.28,156Z"/><path class="cls-2" d="M217.33,154.54c-7.59-2.59-15.24-5-22.78-7.71-.31-.11-.43.37-.13.49a191.58,191.58,0,0,0,22.77,7.74A.27.27,0,0,0,217.33,154.54Z"/><path class="cls-2" d="M228.06,154.53a169.88,169.88,0,0,0-27.84-10.19.19.19,0,0,0-.1.37c9.4,3.06,18.54,6.69,27.72,10.36C228.14,155.19,228.36,154.67,228.06,154.53Z"/><path class="cls-2" d="M230.51,151.14a142.19,142.19,0,0,0-19.91-8.06c-.39-.13-.53.46-.17.61,6.62,2.67,13.13,5.57,19.71,8.32C230.64,152.21,231,151.38,230.51,151.14Z"/><path class="cls-2" d="M257,159.89c-2.75-1.17-5.54-2.22-8.33-3.29-.28-.11-.4.34-.12.45,2.75,1.11,5.5,2.23,8.29,3.24C257.1,160.37,257.26,160,257,159.89Z"/><path class="cls-2" d="M262.36,156.93a54.49,54.49,0,0,0-10.68-3.67.22.22,0,0,0-.11.42c3.54,1.23,7.1,2.36,10.59,3.74C262.44,157.53,262.64,157.06,262.36,156.93Z"/><path class="cls-2" d="M269.07,154.64c-4.57-1.66-9.22-3.09-13.84-4.61-.21-.07-.29.25-.09.32,4.59,1.6,9.15,3.32,13.79,4.79C269.26,155.24,269.38,154.76,269.07,154.64Z"/><path class="cls-2" d="M280.3,155q-9.06-3.67-18.25-7c-.14-.05-.2.17-.06.23q9,3.74,18.21,7.19C280.44,155.47,280.54,155.08,280.3,155Z"/><path class="cls-2" d="M294.89,157.57c-7.84-3.94-15.84-7.63-23.84-11.23-.26-.12-.5.26-.23.4,7.83,4,15.73,7.83,23.72,11.44C294.95,158.36,295.3,157.77,294.89,157.57Z"/><path class="cls-2" d="M312.93,181.82c-1.83-1.17-3.7-2.25-5.57-3.34a.23.23,0,0,0-.24.4c1.84,1.14,3.67,2.29,5.56,3.36A.25.25,0,0,0,312.93,181.82Z"/><path class="cls-2" d="M315.69,181.52c-2.19-1.73-4.54-3.25-6.82-4.85-.3-.21-.57.27-.28.49,2.21,1.65,4.39,3.38,6.7,4.89C315.59,182.26,316,181.76,315.69,181.52Z"/><path class="cls-2" d="M318.57,179.13c-2.55-1.59-5.25-2.9-7.92-4.27-.28-.14-.52.26-.25.42,2.6,1.5,5.17,3.05,7.89,4.33A.28.28,0,0,0,318.57,179.13Z"/><path class="cls-2" d="M321.31,176.34a55.05,55.05,0,0,0-8.06-3.6c-.29-.1-.49.37-.21.5,2.67,1.17,5.26,2.49,7.87,3.78C321.36,177.24,321.76,176.58,321.31,176.34Z"/><path class="cls-2" d="M305.5,266.4a64.27,64.27,0,0,0-8.34-.66c-.31,0-.29.44,0,.47a63.74,63.74,0,0,0,8.28.61C305.67,266.81,305.74,266.45,305.5,266.4Z"/><path class="cls-2" d="M305.15,262.21c-4.64-.41-9.28-.64-13.9-1.24-.31,0-.39.5-.07.55a81.64,81.64,0,0,0,14,1.2A.26.26,0,0,0,305.15,262.21Z"/><path class="cls-2" d="M301.3,256.2c-2.46,0-4.92-.1-7.37-.26-2-.13-5.81,0-7.53-.68.23.1.36-.27.17-.39l-.15-.1a.23.23,0,0,0-.28,0L286,255a.26.26,0,0,0,0,.36c.87,1.05,3.79.89,5.12,1.05a69.1,69.1,0,0,0,10.2.47A.33.33,0,0,0,301.3,256.2Z"/><path class="cls-2" d="M297.45,249.46c-4.53-.43-9.07-.66-13.61-.92-.37,0-.36.54,0,.57,4.53.36,9.06.76,13.61,1C297.85,250.08,297.84,249.49,297.45,249.46Z"/><path class="cls-2" d="M299.61,243.49a58.17,58.17,0,0,0-12.81-.58.31.31,0,0,0,0,.63c4.26,0,8.48.2,12.72.59C299.89,244.16,300,243.55,299.61,243.49Z"/><path class="cls-2" d="M300.5,237.57a61.37,61.37,0,0,0-11.63-.57.3.3,0,0,0,0,.6c3.86,0,7.69.28,11.54.63C300.79,238.27,300.88,237.63,300.5,237.57Z"/><path class="cls-2" d="M307.52,232.2c-4.91-.61-9.86-.87-14.79-1.19-.42,0-.41.61,0,.65,4.92.47,9.85,1,14.79,1.18C307.94,232.86,307.91,232.25,307.52,232.2Z"/><path class="cls-2" d="M319.14,228.39a156.62,156.62,0,0,0-20.21-2.07c-.37,0-.36.54,0,.57,6.72.59,13.4,1.57,20.12,2.16A.34.34,0,0,0,319.14,228.39Z"/><path class="cls-2" d="M322.34,211.73c-1.37-.26-2.75-.45-4.13-.64-.18,0-.26.25-.08.28,1.39.22,2.78.44,4.18.6C322.44,212,322.48,211.76,322.34,211.73Z"/><path class="cls-2" d="M325.27,206c-2.55-.28-5.12-.49-7.69-.58-.3,0-.28.42,0,.46,2.55.31,5.12.52,7.69.65C325.61,206.53,325.59,206,325.27,206Z"/><path class="cls-2" d="M327.72,201.78c-2.88-.46-5.77-.84-8.66-1.22-.33,0-.41.54-.08.59,2.88.43,5.76.86,8.66,1.21C328,202.4,328,201.83,327.72,201.78Z"/><path class="cls-2" d="M330.68,197.94a50.3,50.3,0,0,0-10.14-1.56c-.46,0-.45.67,0,.71,3.35.33,6.66.85,10,1.48C330.91,198.65,331.09,198.05,330.68,197.94Z"/><path class="cls-2" d="M340.43,194.16c-4.84-1.18-9.81-1.87-14.73-2.67-.49-.08-.7.66-.21.75,4.93.92,9.87,2,14.86,2.51C340.69,194.79,340.75,194.24,340.43,194.16Z"/><path class="cls-2" d="M348.73,192.9c-5.93-2.13-12-4-18-5.79-.46-.14-.64.56-.2.71,6,2,12,4,18,5.68A.31.31,0,0,0,348.73,192.9Z"/><path class="cls-2" d="M357.28,191.2a104.86,104.86,0,0,0-11.86-3.83c-2.2-.57-6.27-2.35-8.47-1.58-.12,0-.23.21-.14.33l.11.15a.21.21,0,0,0,.28.07l.11-.08a.19.19,0,0,0-.19-.33c.67-.28,5,1.49,5.92,1.74q2.12.58,4.23,1.2c3.28,1,6.54,2,9.8,3C357.54,192,357.7,191.36,357.28,191.2Z"/><path class="cls-2" d="M377.7,197.4a29.52,29.52,0,0,1-5.4-1.57c-.23-.09-.39.29-.17.4a16.16,16.16,0,0,0,5.51,1.61C377.89,197.87,377.95,197.45,377.7,197.4Z"/><path class="cls-2" d="M383,194.69c-3.34-.57-6.71-1-10.07-1.47-.29,0-.42.39-.12.44,3.37.57,6.73,1.14,10.11,1.59C383.28,195.29,383.36,194.74,383,194.69Z"/><path class="cls-2" d="M388.35,191.24q-6.31-1.67-12.7-3.05a.24.24,0,0,0-.13.46q6.29,1.76,12.65,3.24A.34.34,0,0,0,388.35,191.24Z"/><path class="cls-2" d="M401.36,190.64c-6.74-1.92-13.54-3.61-20.38-5.19a.23.23,0,0,0-.12.44c6.74,1.93,13.51,3.74,20.34,5.33A.3.3,0,0,0,401.36,190.64Z"/><path class="cls-2" d="M395.54,186.15c-2.75-1.18-5.55-2.23-8.35-3.28-.3-.11-.41.35-.13.47,2.74,1.15,5.47,2.3,8.27,3.31C395.62,186.76,395.83,186.27,395.54,186.15Z"/><path class="cls-2" d="M421.19,225.54a25.51,25.51,0,0,1-4.42-1.69c-.2-.1-.38.19-.18.31a15.6,15.6,0,0,0,4.48,1.81A.22.22,0,0,0,421.19,225.54Z"/><path class="cls-2" d="M422.08,223.75c-2.53-1-5.1-1.85-7.69-2.66-.23-.07-.32.27-.1.36,2.53,1,5.08,1.93,7.67,2.75C422.25,224.3,422.36,223.86,422.08,223.75Z"/><path class="cls-2" d="M425.32,221.72c-3.76-1.5-7.68-2.62-11.53-3.86-.26-.08-.36.31-.11.4,3.81,1.39,7.59,2.91,11.49,4C425.53,222.39,425.66,221.86,425.32,221.72Z"/><path class="cls-3" d="M66.69,319.37a1.36,1.36,0,1,0-.91-.51A1.36,1.36,0,0,0,66.69,319.37Z"/><path class="cls-3" d="M76.52,326a1.59,1.59,0,1,0,1.22-1.36A1.59,1.59,0,0,0,76.52,326Z"/><path class="cls-3" d="M73.6,329.78a5.76,5.76,0,0,0,5.81,2,5.68,5.68,0,0,0,2.24-1.08,5.73,5.73,0,1,0-8.05-.95Zm1.57-3.9a2.95,2.95,0,1,1,2.58,3.27A3,3,0,0,1,75.17,325.89Z"/><path class="cls-2" d="M75.17,325.89a2.94,2.94,0,1,0,2.25-2.53A3,3,0,0,0,75.17,325.89Zm1.35.16a1.59,1.59,0,1,1,1.39,1.77A1.6,1.6,0,0,1,76.52,326Z"/><path class="cls-2" d="M69.88,328.55a.68.68,0,0,0,.81.48h0l.78-.22a7,7,0,0,0,.65,1.27l-.64.5a.68.68,0,1,0,.84,1.06l.64-.5a7.05,7.05,0,0,0,1.08.92l-.4.71a.68.68,0,1,0,1.18.66l.4-.71a7.16,7.16,0,0,0,1.35.44l-.1.81a.68.68,0,1,0,1.35.16l.09-.81a7,7,0,0,0,1.42-.11l.22.78a.68.68,0,0,0,.81.48h0a.68.68,0,0,0,.47-.84l-.22-.78a7,7,0,0,0,1.27-.65l.5.64A.68.68,0,0,0,83.5,332l-.5-.64a7,7,0,0,0,.92-1.08l.71.39a.68.68,0,0,0,.66-1.18l-.71-.4a7.11,7.11,0,0,0,.44-1.35l.81.1a.68.68,0,0,0,.16-1.35l-.81-.1a7.12,7.12,0,0,0-.11-1.42l.78-.22a.68.68,0,1,0-.37-1.3l-.78.22a7,7,0,0,0-.65-1.27l.64-.5a.68.68,0,0,0-.84-1.06l-.64.5a7.05,7.05,0,0,0-1.08-.92l.4-.71a.68.68,0,0,0-1.18-.66l-.4.71a7.16,7.16,0,0,0-1.35-.44l.1-.81a.68.68,0,1,0-1.35-.16l-.09.81a7,7,0,0,0-1.42.11l-.22-.78a.68.68,0,0,0-1.3.37l.22.78a7,7,0,0,0-1.27.65l-.5-.64a.68.68,0,1,0-1.06.84l.5.64a7,7,0,0,0-.92,1.08l-.71-.39A.68.68,0,1,0,70.9,323l.71.4a7.12,7.12,0,0,0-.44,1.35l-.81-.09a.68.68,0,0,0-.16,1.35l.81.09a7.12,7.12,0,0,0,.11,1.42l-.78.22A.68.68,0,0,0,69.88,328.55Zm4.67-6.82a5.68,5.68,0,0,1,2.24-1.08,5.73,5.73,0,0,1,4.86,10.08,5.68,5.68,0,0,1-2.24,1.08,5.73,5.73,0,0,1-4.86-10.08Z"/><path class="cls-4" d="M67.69,321.57a3.65,3.65,0,0,0,2-5.82,3.67,3.67,0,0,0-3.7-1.29,3.65,3.65,0,0,0-2,5.82A3.67,3.67,0,0,0,67.69,321.57Zm-3-1.87a2.72,2.72,0,1,1,1.81,1A2.7,2.7,0,0,1,64.72,319.7Z"/><path class="cls-2" d="M64.72,319.7a2.71,2.71,0,1,0-.57-2A2.7,2.7,0,0,0,64.72,319.7Zm2.44-.36a1.36,1.36,0,1,1,1-1.17A1.36,1.36,0,0,1,67.16,319.34Z"/><path class="cls-2" d="M61.09,319.65a.68.68,0,0,0,.81.48h0l.34-.1a5,5,0,0,0,.66,1.1,5,5,0,0,0,.92.9l-.17.31a.68.68,0,1,0,1.18.66l.17-.31a5,5,0,0,0,2.52.3l.1.34a.68.68,0,0,0,.81.48h0a.68.68,0,0,0,.47-.84l-.1-.34a5,5,0,0,0,2-1.58l.3.17a.68.68,0,0,0,.66-1.18l-.31-.17a5,5,0,0,0,.3-2.53l.34-.09a.68.68,0,1,0-.37-1.3l-.34.1a5,5,0,0,0-.66-1.1,5,5,0,0,0-.92-.9l.17-.31a.68.68,0,1,0-1.18-.66l-.17.31a5,5,0,0,0-2.52-.3l-.1-.34a.68.68,0,1,0-1.3.37l.09.34a5,5,0,0,0-2,1.58l-.3-.17a.68.68,0,1,0-.66,1.18l.3.17a5,5,0,0,0-.3,2.53l-.34.1A.68.68,0,0,0,61.09,319.65Zm6.6,1.93a3.67,3.67,0,0,1-3.7-1.29,3.65,3.65,0,0,1,2-5.82,3.67,3.67,0,0,1,3.7,1.29,3.65,3.65,0,0,1-2,5.82Z"/><path class="cls-2" d="M64.68,306.35l2.32.74A5.22,5.22,0,0,1,65.23,310a5.59,5.59,0,0,1-7-.67,6.18,6.18,0,0,1-1.52-4.42,6.49,6.49,0,0,1,1.53-4.6,5.25,5.25,0,0,1,4-1.64,4.94,4.94,0,0,1,3.54,1.29A4.68,4.68,0,0,1,67,302.11l-2.37.57a2.45,2.45,0,0,0-2.5-2,2.7,2.7,0,0,0-2.14.95,4.64,4.64,0,0,0-.82,3.07,5,5,0,0,0,.81,3.21,2.63,2.63,0,0,0,2.11,1,2.4,2.4,0,0,0,1.64-.61A3.53,3.53,0,0,0,64.68,306.35Z"/><path class="cls-2" d="M69,310.72V298.84h3.59l2.15,8.1,2.13-8.1h3.6v11.87H78.27v-9.35l-2.36,9.35H73.61l-2.35-9.35v9.35Z"/><path class="cls-2" d="M82.27,306.85l2.33-.23a2.84,2.84,0,0,0,.85,1.73,2.58,2.58,0,0,0,1.74.55,2.67,2.67,0,0,0,1.75-.49,1.46,1.46,0,0,0,.59-1.15,1.08,1.08,0,0,0-.25-.72,2,2,0,0,0-.86-.51q-.42-.15-1.92-.52a6.51,6.51,0,0,1-2.71-1.17A3.09,3.09,0,0,1,82.7,302a3.05,3.05,0,0,1,.51-1.7,3.22,3.22,0,0,1,1.48-1.2,5.94,5.94,0,0,1,2.34-.41,5,5,0,0,1,3.36,1,3.46,3.46,0,0,1,1.19,2.62l-2.4.11a2,2,0,0,0-.66-1.32,2.42,2.42,0,0,0-1.52-.4,2.74,2.74,0,0,0-1.64.43.86.86,0,0,0-.38.74.91.91,0,0,0,.36.72,6.3,6.3,0,0,0,2.2.79,11.63,11.63,0,0,1,2.59.85,3.34,3.34,0,0,1,1.31,1.21,3.74,3.74,0,0,1-.09,3.8,3.4,3.4,0,0,1-1.6,1.32,6.73,6.73,0,0,1-2.58.43,5.14,5.14,0,0,1-3.46-1A4.53,4.53,0,0,1,82.27,306.85Z"/><path class="cls-1" d="M96.71,292.11a31.68,31.68,0,1,1-22.4-9.28A31.47,31.47,0,0,1,96.71,292.11Zm5.38,22.4A27.78,27.78,0,1,0,94,334.16,27.61,27.61,0,0,0,102.09,314.51Z"/><path class="cls-2" d="M94,294.87a27.78,27.78,0,1,1-19.64-8.14A27.61,27.61,0,0,1,94,294.87Zm-2.61,36.67a24.08,24.08,0,1,0-17,7.05A24.11,24.11,0,0,0,91.34,331.54Z"/><path class="cls-2" d="M74.31,349.72a35.21,35.21,0,0,0,35.21-35.21l.12,0a35.36,35.36,0,1,0-35.33,35.33h.11Zm-22.4-12.81a31.68,31.68,0,1,1,22.4,9.28A31.47,31.47,0,0,1,51.91,336.91Z"/><path class="cls-2" d="M74.3,357.14a42.63,42.63,0,1,1,42.63-42.63A42.68,42.68,0,0,1,74.3,357.14Zm0-81.13a38.5,38.5,0,1,0,38.5,38.5A38.54,38.54,0,0,0,74.3,276Z"/><polygon class="cls-5" points="514.43 240.11 481.29 240.11 481.29 293.86 523.39 293.86 523.39 249.06 514.43 240.11"/><rect class="cls-6" x="491.58" y="251.04" width="21.25" height="21.25"/><rect class="cls-7" x="493.42" y="252.89" width="17.57" height="17.57"/><polygon class="cls-6" points="509.61 264.47 504.19 264.47 505.79 266.47 504.19 268.47 509.61 268.47 508.01 266.47 509.61 264.47"/><polygon class="cls-6" points="508.06 257.46 502.87 257.46 501.72 258.89 500.57 257.46 495.38 257.46 499.13 262.13 495.38 266.81 508.06 266.81 504.32 262.13 508.06 257.46"/><polygon class="cls-7" points="497.61 258.12 496.86 258.12 503.29 266.15 504.04 266.15 497.61 258.12"/><polygon class="cls-6" points="515.82 244.58 481.29 244.58 481.29 240.11 514.43 240.11 515.82 244.58"/><polygon class="cls-8" points="514.43 249.06 523.39 249.06 514.43 240.11 514.43 249.06"/><path class="cls-2" d="M509.61,282a1.07,1.07,0,0,1,.65-.16,5.1,5.1,0,0,1,2.06.55l.7-1.77a6.6,6.6,0,0,0-2.69-.61,3.77,3.77,0,0,0-2.35.66,2.18,2.18,0,0,0-.86,1.83,2.7,2.7,0,0,0,.2,1.09,2.25,2.25,0,0,0,.62.81,5.43,5.43,0,0,0,1.25.73q.92.41,1.13.55a1.12,1.12,0,0,1,.31.26.5.5,0,0,1,.1.31.55.55,0,0,1-.24.46,1.27,1.27,0,0,1-.75.18,5.09,5.09,0,0,1-1.3-.19,6.83,6.83,0,0,1-1.37-.53v2a5.29,5.29,0,0,0,1.2.42,7.19,7.19,0,0,0,1.43.12,4.29,4.29,0,0,0,1.77-.34,2.63,2.63,0,0,0,1.16-1,2.51,2.51,0,0,0,.4-1.4,2.31,2.31,0,0,0-.43-1.43,3.89,3.89,0,0,0-1.53-1.06,9.86,9.86,0,0,1-1.41-.72.56.56,0,0,1-.26-.45A.47.47,0,0,1,509.61,282Zm14.72-33.9-9-9a1.33,1.33,0,0,0-.94-.39H481.29a1.33,1.33,0,0,0-1.33,1.33v53.75a1.33,1.33,0,0,0,1.33,1.33h42.11a1.33,1.33,0,0,0,1.33-1.33V249.06A1.33,1.33,0,0,0,524.33,248.12Zm-8.57-4.81,4.42,4.42h-4.42v-4.42Zm-33.15-1.88H513.1v1.82H482.62Zm39.45,51.09H482.62V245.91H513.1v3.15a1.33,1.33,0,0,0,1.33,1.33h7.63v42.13Zm-22.69-12.37h-2.62l-1.48,2.63-1.54-2.63h-2.55l2.65,4.15L491,288.66h2.6l1.64-2.66,1.66,2.66h2.66l-2.9-4.17Zm3.46,0h-2.3v8.51h5.57V286.8h-3.28v-6.65h0Z"/><path class="cls-2" d="M502.34,309.61A42.63,42.63,0,1,1,545,267,42.68,42.68,0,0,1,502.34,309.61Zm0-81.13a38.5,38.5,0,1,0,38.5,38.5A38.54,38.54,0,0,0,502.34,228.48Z"/><polygon class="cls-5" points="415.29 339.08 382.14 339.08 382.14 392.83 424.25 392.83 424.25 348.04 415.29 339.08"/><path class="cls-9" d="M417.1,365.66c-.65-1.15-2.88-1.51-3.9-1.68a15.52,15.52,0,0,0-2.45-.17c-.64,0-1.27,0-1.9.06l-.68.05q-.35-.36-.68-.74a24.76,24.76,0,0,1-3.42-5.44,21.46,21.46,0,0,0,.55-2.92,12.2,12.2,0,0,0-.41-5.72c-.24-.61-.88-1.35-1.61-1s-1.08,1.63-1.15,2.48a8.27,8.27,0,0,0,.1,2.06,14.68,14.68,0,0,0,.51,2q.29.89.64,1.76c-.15.46-.3.91-.47,1.35-.38,1-.79,2-1.19,2.87l-.61,1.33a45.17,45.17,0,0,1-2.09,4.08,22.89,22.89,0,0,0-4.76,2.24,10.41,10.41,0,0,0-1.89,1.53,3.32,3.32,0,0,0-1.05,2,1.23,1.23,0,0,0,.49,1.09,2.05,2.05,0,0,0,1.67.22c1.82-.38,3.21-1.94,4.4-3.26a35.88,35.88,0,0,0,2.72-3.45h0a41.24,41.24,0,0,1,5.42-1.28c.88-.15,1.79-.27,2.71-.35a12.78,12.78,0,0,0,2.12,1.62,9.72,9.72,0,0,0,1.89.91,13.57,13.57,0,0,0,2,.51,6,6,0,0,0,1.08.06c.82,0,2-.35,2.08-1.34A1.39,1.39,0,0,0,417.1,365.66Zm-19.65,1.83c-.38.6-.76,1.13-1.1,1.6-.86,1.16-1.83,2.55-3.25,3.06a2.51,2.51,0,0,1-1,.18c-.33,0-.66-.17-.64-.54a1.59,1.59,0,0,1,.25-.7,4.3,4.3,0,0,1,.58-.75,9.64,9.64,0,0,1,1.73-1.4,20.54,20.54,0,0,1,3.66-1.82Zm4.83-14.94a6.76,6.76,0,0,1-.06-1.86,4.41,4.41,0,0,1,.18-.88c.08-.24.24-.81.5-.89.43-.12.56.8.61,1.06a11.72,11.72,0,0,1-.3,4.6c-.05.23-.11.46-.17.69-.1-.28-.2-.57-.29-.85A14,14,0,0,1,402.27,352.55Zm3,11.75a41.93,41.93,0,0,0-4.61,1,11.81,11.81,0,0,0,1.15-1.87,22.8,22.8,0,0,0,2-4.64,22.68,22.68,0,0,0,3.22,4.82l.36.39C406.64,364.1,405.92,364.19,405.23,364.3Zm10.95,2.07c-.06.32-.74.5-1.06.55a6.08,6.08,0,0,1-2.84-.27,9.12,9.12,0,0,1-1.78-.83,10.58,10.58,0,0,1-1.58-1.18c.61,0,1.22-.06,1.84,0a15.55,15.55,0,0,1,1.86.12A6.56,6.56,0,0,1,416,366C416.14,366.13,416.19,366.26,416.17,366.38Z"/><polygon class="cls-9" points="416.68 343.56 382.14 343.56 382.14 339.08 415.29 339.08 416.68 343.56"/><polygon class="cls-8" points="415.29 348.04 424.25 348.04 415.29 339.08 415.29 348.04"/><path class="cls-2" d="M403.11,379.13h-2.94v8.51h2.75a4.5,4.5,0,0,0,3.3-1.15,4.39,4.39,0,0,0,1.17-3.28,4,4,0,0,0-1.11-3A4.44,4.44,0,0,0,403.11,379.13Zm1.4,6a1.85,1.85,0,0,1-1.54.61h-.51V381h.67a1.71,1.71,0,0,1,1.41.56,2.7,2.7,0,0,1,.46,1.73A2.94,2.94,0,0,1,404.51,385.14ZM398,379.83a3.6,3.6,0,0,0-2.42-.7h-2.94v8.51h2.3v-2.82h.65A3.39,3.39,0,0,0,398,384a2.85,2.85,0,0,0,.84-2.2A2.51,2.51,0,0,0,398,379.83Zm-1.82,2.82a1.14,1.14,0,0,1-.82.29h-.42v-2h.59q1,0,1,.86A1.06,1.06,0,0,1,396.18,382.65Zm29-35.55-9-9a1.33,1.33,0,0,0-.94-.39H382.14a1.33,1.33,0,0,0-1.33,1.33v53.75a1.33,1.33,0,0,0,1.33,1.33h42.1a1.33,1.33,0,0,0,1.33-1.33V348A1.33,1.33,0,0,0,425.19,347.1Zm-8.57-4.81,4.42,4.42h-4.42v-4.42Zm-33.15-1.88H414v1.82H383.47Zm39.45,51.09H383.47V344.89H414V348a1.33,1.33,0,0,0,1.33,1.33h7.63V391.5Zm-14-3.87h2.26v-3.19h2.55V382.6h-2.55V381h2.76v-1.84h-5v8.51Z"/><path class="cls-2" d="M403.2,408.59A42.63,42.63,0,1,1,445.83,366,42.68,42.68,0,0,1,403.2,408.59Zm0-81.13a38.5,38.5,0,1,0,38.5,38.5A38.54,38.54,0,0,0,403.2,327.46Z"/><polygon class="cls-5" points="299.18 367.29 266.03 367.29 266.03 421.04 308.13 421.04 308.13 376.25 299.18 367.29"/><rect class="cls-10" x="276.32" y="378.23" width="21.25" height="21.25"/><rect class="cls-7" x="278.17" y="380.07" width="17.57" height="17.57"/><rect class="cls-10" x="280.7" y="383.63" width="12.49" height="10.45"/><rect class="cls-7" x="281.64" y="384.72" width="10.61" height="1.35"/><path class="cls-7" d="M284.29,387.23a2.65,2.65,0,1,0,2.65,2.65h-2.65Z"/><rect class="cls-7" x="288.2" y="387.42" width="4.06" height="0.79"/><rect class="cls-7" x="288.2" y="389.09" width="4.06" height="0.79"/><rect class="cls-7" x="288.2" y="390.76" width="4.06" height="0.79"/><polygon class="cls-10" points="300.56 371.77 266.03 371.77 266.03 367.29 299.18 367.29 300.56 371.77"/><polygon class="cls-8" points="299.18 376.25 308.13 376.25 299.18 367.29 299.18 376.25"/><path class="cls-2" d="M309.07,375.31l-9-9a1.33,1.33,0,0,0-.94-.39H266a1.33,1.33,0,0,0-1.33,1.33V421a1.33,1.33,0,0,0,1.33,1.33h42.1a1.33,1.33,0,0,0,1.33-1.33V376.25A1.33,1.33,0,0,0,309.07,375.31Zm-8.57-4.81,4.42,4.42h-4.42V370.5Zm-33.15-1.88h30.49v1.82H267.36Zm39.45,51.09H267.36V373.1h30.49v3.15a1.33,1.33,0,0,0,1.33,1.33h7.63v42.13ZM282.18,408a3.6,3.6,0,0,0-2.42-.7h-2.94v8.51h2.3V413h.65a3.39,3.39,0,0,0,2.39-.78A2.85,2.85,0,0,0,283,410,2.51,2.51,0,0,0,282.18,408Zm-1.82,2.82a1.14,1.14,0,0,1-.82.29h-.42v-2h.59q1,0,1,.86A1.06,1.06,0,0,1,280.36,410.85Zm9.35-2.82a3.6,3.6,0,0,0-2.42-.7h-2.94v8.51h2.3V413h.65a3.39,3.39,0,0,0,2.39-.78,2.85,2.85,0,0,0,.84-2.2A2.51,2.51,0,0,0,289.71,408Zm-1.82,2.82a1.14,1.14,0,0,1-.82.29h-.42v-2h.59q1,0,1,.86A1.06,1.06,0,0,1,287.89,410.85Zm3.37-1.64h2.08v6.63h2.3v-6.63h2.07v-1.88h-6.45v1.88Z"/><path class="cls-2" d="M287.08,436.79a42.63,42.63,0,1,1,42.63-42.63A42.68,42.68,0,0,1,287.08,436.79Zm0-81.13a38.5,38.5,0,1,0,38.5,38.5A38.54,38.54,0,0,0,287.08,355.67Z"/><path class="cls-3" d="M465.61,120.82a1.62,1.62,0,0,0,1.62-1.62v-2.6h0v-5.12a1.62,1.62,0,1,0-3.23,0v7.72A1.62,1.62,0,0,0,465.61,120.82Z"/><path class="cls-3" d="M440.85,156.62a3.55,3.55,0,0,0,3.55,3.55h42.41a3.55,3.55,0,0,0,3.55-3.55v-27.4H440.85Zm5.08-22.35h39.35a1.73,1.73,0,0,1,0,3.45H445.94a1.73,1.73,0,1,1,0-3.45Zm0,8h39.35a1.73,1.73,0,0,1,0,3.45H445.94a1.73,1.73,0,0,1,0-3.45Zm0,8h39.35a1.73,1.73,0,0,1,0,3.45H445.94a1.73,1.73,0,1,1,0-3.45Z"/><path class="cls-3" d="M449.28,120.82a1.62,1.62,0,0,0,1.62-1.62v-2.6h0v-5.12a1.62,1.62,0,1,0-3.23,0v7.72A1.62,1.62,0,0,0,449.28,120.82Z"/><path class="cls-1" d="M487,119.2a5.07,5.07,0,1,1-10.13,0v-.87h-6.2v.87a5.07,5.07,0,0,1-10.13,0v-.87h-6.2v.87a5.07,5.07,0,1,1-10.13,0v-.87h-3.36v7.44h49.51v-7.44H487v.87Z"/><path class="cls-2" d="M492.09,114.88H487v-3.39a5.07,5.07,0,1,0-10.13,0v3.39h-6.2v-3.39a5.07,5.07,0,1,0-10.13,0v3.39h-6.2v-3.39a5.07,5.07,0,1,0-10.13,0v3.39h-5.08a1.73,1.73,0,0,0-1.73,1.73v40a7,7,0,0,0,7,7h42.41a7,7,0,0,0,7-7v-40A1.73,1.73,0,0,0,492.09,114.88Zm-1.73,10.89H440.85v-7.44h3.36v.87a5.07,5.07,0,1,0,10.13,0v-.87h6.2v.87a5.07,5.07,0,1,0,10.13,0v-.87h6.2v.87a5.07,5.07,0,1,0,10.13,0v-.87h3.36v7.44Zm-10-14.28a1.62,1.62,0,1,1,3.23,0v7.72a1.62,1.62,0,1,1-3.23,0Zm-16.33,0a1.62,1.62,0,1,1,3.23,0v5.12h0v2.6a1.62,1.62,0,0,1-3.23,0Zm-16.33,0a1.62,1.62,0,1,1,3.23,0v5.11h0v2.6a1.62,1.62,0,1,1-3.23,0v-7.72Zm42.7,45.13a3.55,3.55,0,0,1-3.55,3.55H444.4a3.55,3.55,0,0,1-3.55-3.55v-27.4h49.51Z"/><path class="cls-2" d="M445.94,137.72h39.35a1.73,1.73,0,0,0,0-3.45H445.94a1.73,1.73,0,1,0,0,3.45Z"/><path class="cls-2" d="M445.94,145.72h39.35a1.73,1.73,0,0,0,0-3.45H445.94a1.73,1.73,0,1,0,0,3.45Z"/><path class="cls-2" d="M445.94,153.72h39.35a1.73,1.73,0,0,0,0-3.45H445.94a1.73,1.73,0,1,0,0,3.45Z"/><path class="cls-2" d="M465.61,178.89a42.63,42.63,0,1,1,42.63-42.63A42.68,42.68,0,0,1,465.61,178.89Zm0-81.13a38.5,38.5,0,1,0,38.5,38.5A38.54,38.54,0,0,0,465.61,97.76Z"/><path class="cls-1" d="M31.67,200.46a11.8,11.8,0,0,0-7.33,21.05l4.43-7.75a1.29,1.29,0,0,1,2.34,1l-2.92,8.75a11.81,11.81,0,1,0,3.48-23.09Z"/><path class="cls-2" d="M32.51,229a3.45,3.45,0,0,0-2.93-3.43c-.35-.05-.72-.14-1.11-.23l2.69-8.07a4.31,4.31,0,0,0,.51,0,5.06,5.06,0,1,0-5.06-5.06,5,5,0,0,0,.65,2.44l-4.41,7.72A13.34,13.34,0,0,1,21.39,221l-.25-.3H19v11.81H29A3.48,3.48,0,0,0,32.51,229ZM30.3,214.53l-3.94,11.81a1.61,1.61,0,0,1-3.13-.51v-.27a1.61,1.61,0,0,1,.21-.8l6.06-10.6a.44.44,0,0,1,.74,0A.43.43,0,0,1,30.3,214.53Zm1.36-5.64a3.37,3.37,0,0,1,0,6.74l.19-.57a2.13,2.13,0,0,0-3.54-2.16,3.33,3.33,0,0,1-.07-.64A3.38,3.38,0,0,1,31.67,208.89Zm-11,13.86A15.59,15.59,0,0,0,22,223.92h0a3.31,3.31,0,0,0-.43,1.63v.27A3.29,3.29,0,0,0,27.93,227a13.92,13.92,0,0,0,1.39.3,1.77,1.77,0,0,1,1.5,1.76A1.79,1.79,0,0,1,29,230.82H20.7Z"/><path class="cls-2" d="M53.59,191.18c5.64,0,15.18-.89,15.18-4.22s-9.54-4.22-15.18-4.22-15.18.89-15.18,4.22S48,191.18,53.59,191.18Zm0-6.75c8.43,0,13.33,1.67,13.49,2.53-.16.86-5.07,2.53-13.49,2.53S40.27,187.83,40.1,187C40.27,186.1,45.18,184.43,53.59,184.43Z"/><path class="cls-2" d="M67.09,196.24c-.16.86-5.07,2.53-13.49,2.53a53.35,53.35,0,0,1-6.75-.42v-1.27H41.36c-1-.41-1.25-.76-1.27-.84v-5.06H38.41v5.06a1.7,1.7,0,0,0,.24.84H16.48v38h27a3.38,3.38,0,0,0,3.37-3.37V218.61a55.3,55.3,0,0,0,6.75.4c5.64,0,15.18-.89,15.18-4.22v-5.06H67.09v5.06c-.16.86-5.07,2.53-13.49,2.53a53.43,53.43,0,0,1-6.75-.42v-7.58a55.55,55.55,0,0,0,6.75.4c5.64,0,15.18-.89,15.18-4.22v-5.06H67.09v5.06c-.16.86-5.07,2.53-13.49,2.53a53.35,53.35,0,0,1-6.75-.42v-7.58a55.36,55.36,0,0,0,6.75.4c5.64,0,15.18-.89,15.18-4.22v-5.06H67.09v5.06ZM45.16,231.66a1.69,1.69,0,0,1-1.69,1.69H18.17V198.77h27Z"/><path class="cls-2" d="M57,226.6a2.53,2.53,0,0,1-2.53,2.53H50.87l1.76-2.94-1.45-.87L48.39,230l2.79,4.65,1.45-.87-1.76-2.94h3.57a4.22,4.22,0,0,0,4.22-4.22v-5.9H57Z"/><path class="cls-2" d="M28.29,191.18a2.53,2.53,0,0,1,2.53-2.53h3.57l-1.76,2.94,1.45.87,2.79-4.65-2.79-4.65-1.45.87L34.39,187H30.82a4.22,4.22,0,0,0-4.22,4.22v4.22h1.69v-4.22Z"/><path class="cls-2" d="M42.63,251.52a42.63,42.63,0,1,1,42.63-42.63A42.68,42.68,0,0,1,42.63,251.52Zm0-81.13a38.5,38.5,0,1,0,38.5,38.5A38.54,38.54,0,0,0,42.63,170.39Z"/><path class="cls-2" d="M245.72,36.44V65.37a.93.93,0,0,1-.93.93H190.25a.93.93,0,0,1-.93-.93V36.44a.93.93,0,0,1,.42-.78l7.2-4.77v-16a.93.93,0,0,1,.93-.93h39.3a.93.93,0,0,1,.93.93v16l7.2,4.78A.93.93,0,0,1,245.72,36.44Zm-1.87,27.19V38l-21.49,11.4ZM238.1,35.51h3.59l-3.59-2.38ZM193.35,64.44h48.34l-24.17-16ZM238.1,38.93,241,37.38H238.1Zm-1.87,1V15.86H198.8V39.92l15.64,8.29,2.56-1.7a.94.94,0,0,1,1,0l2.56,1.7ZM191.18,63.63l21.48-14.24L191.18,38Zm5.75-24.7V37.38H194Zm0-3.42V33.13l-3.59,2.38Z"/><polygon class="cls-1" points="243.85 37.99 243.85 63.63 222.37 49.39 243.85 37.99"/><polygon class="cls-1" points="241.69 35.51 238.1 35.51 238.1 33.13 241.69 35.51"/><polygon class="cls-1" points="241.69 64.44 193.35 64.44 217.52 48.42 241.69 64.44"/><polygon class="cls-1" points="241.03 37.38 238.1 38.93 238.1 37.38 241.03 37.38"/><path class="cls-2" d="M225.89,29.91v.69a3.28,3.28,0,0,1-6.06,1.72,4,4,0,1,1,1.38-3V30.6a1.41,1.41,0,0,0,2.82,0v-.69a6.51,6.51,0,0,0-13,0v.28a6.52,6.52,0,0,0,6.51,6.51H225a.93.93,0,0,1,0,1.87h-7.44a8.39,8.39,0,0,1-8.38-8.38v-.28a8.38,8.38,0,0,1,16.76,0Zm-6.56-.62a2.17,2.17,0,1,0-2.17,2.17A2.17,2.17,0,0,0,219.34,29.29Z"/><polygon class="cls-1" points="212.66 49.39 191.18 63.63 191.18 37.99 212.66 49.39"/><polygon class="cls-1" points="196.93 37.38 196.93 38.93 194 37.38 196.93 37.38"/><polygon class="cls-1" points="196.93 33.13 196.93 35.51 193.35 35.51 196.93 33.13"/><path class="cls-2" d="M217.52,85.26a42.63,42.63,0,1,1,42.63-42.63A42.68,42.68,0,0,1,217.52,85.26Zm0-81.13A38.5,38.5,0,1,0,256,42.63,38.54,38.54,0,0,0,217.52,4.13Z"/><path class="cls-3" d="M376,53.78V30.12H339.52V53.29a1.48,1.48,0,0,1-.14.62l-2.19,4.73L345,54a1.48,1.48,0,0,1,.76-.21ZM344.32,35.57h27.31a1.48,1.48,0,1,1,0,3H344.32a1.48,1.48,0,1,1,0-3Zm0,11.09a1.48,1.48,0,1,1,0-3h18.11a1.48,1.48,0,1,1,0,3Z"/><path class="cls-1" d="M381.71,69.09V46.54h-2.79v7.34A2.88,2.88,0,0,1,376,56.75H346.27V69.53h29.4a1.48,1.48,0,0,1,.76.21l7.5,4.48-2.08-4.51A1.48,1.48,0,0,1,381.71,69.09Zm-13.06-5.31H350.54a1.48,1.48,0,1,1,0-3h18.11a1.48,1.48,0,0,1,0,3Z"/><path class="cls-2" d="M388.63,77.33l-4-8.56V46.41a2.84,2.84,0,0,0-2.84-2.84h-2.92V30A2.88,2.88,0,0,0,376,27.15H339.43A2.88,2.88,0,0,0,336.56,30V53l-4.06,8.79a1.48,1.48,0,0,0,2.11,1.9l8.7-5.19v11.2a2.84,2.84,0,0,0,2.84,2.84h29.11l11.26,6.72a1.48,1.48,0,0,0,2.11-1.9Zm-12.2-7.59a1.48,1.48,0,0,0-.76-.21h-29.4V56.75H376a2.88,2.88,0,0,0,2.88-2.88V46.54h2.79V69.09a1.48,1.48,0,0,0,.14.62l2.08,4.51ZM337.2,58.65l2.19-4.73a1.48,1.48,0,0,0,.14-.62V30.12H376V53.78H345.76A1.48,1.48,0,0,0,345,54Z"/><path class="cls-2" d="M344.32,38.54h27.31a1.48,1.48,0,1,0,0-3H344.32a1.48,1.48,0,1,0,0,3Z"/><path class="cls-2" d="M363.91,45.17a1.48,1.48,0,0,0-1.48-1.48H344.32a1.48,1.48,0,1,0,0,3h18.11A1.48,1.48,0,0,0,363.91,45.17Z"/><path class="cls-2" d="M368.66,60.81H350.54a1.48,1.48,0,1,0,0,3h18.11a1.48,1.48,0,0,0,0-3Z"/><path class="cls-2" d="M360.57,95.92A42.63,42.63,0,1,1,403.2,53.29,42.68,42.68,0,0,1,360.57,95.92Zm0-81.13a38.5,38.5,0,1,0,38.5,38.5A38.54,38.54,0,0,0,360.57,14.8Z"/><path class="cls-3" d="M170.27,391.13a2.2,2.2,0,1,0-2.2-2.2A2.2,2.2,0,0,0,170.27,391.13Z"/><path class="cls-3" d="M173.33,406l-6-6.64-3.9,3.94a1.68,1.68,0,0,1-2.57-.23l-8.46-12.34-6.35,5.38v17.12H178.7v-6.67h-4.13A1.68,1.68,0,0,1,173.33,406Z"/><path class="cls-3" d="M139.84,424.33h45.09v-49.7H139.84Zm2.87-45.41a1.68,1.68,0,0,1,1.68-1.68h36a1.68,1.68,0,0,1,1.68,1.68v36a1.68,1.68,0,0,1-1.68,1.68h-36a1.68,1.68,0,0,1-1.68-1.68Z"/><path class="cls-1" d="M153,386.58a1.68,1.68,0,0,1,1.16.71l8.37,12.2,3.73-3.76a1.68,1.68,0,0,1,2.44.06l6.65,7.41h3.38V380.6H146.07v11.11l5.6-4.74A1.68,1.68,0,0,1,153,386.58Zm17.29-3.2a5.55,5.55,0,1,1-5.55,5.55A5.56,5.56,0,0,1,170.27,383.39Z"/><path class="cls-2" d="M186.61,371.28H138.17a1.68,1.68,0,0,0-1.68,1.68V426a1.68,1.68,0,0,0,1.68,1.68h48.44a1.68,1.68,0,0,0,1.68-1.68V373A1.68,1.68,0,0,0,186.61,371.28Zm-1.68,53.05H139.84v-49.7h45.09v49.7Z"/><path class="cls-2" d="M144.39,416.58h36a1.68,1.68,0,0,0,1.68-1.68v-36a1.68,1.68,0,0,0-1.68-1.68h-36a1.68,1.68,0,0,0-1.68,1.68v36A1.68,1.68,0,0,0,144.39,416.58Zm34.31-3.35H146.07V396.1l6.35-5.38,8.46,12.34a1.68,1.68,0,0,0,2.57.23l3.9-3.94,6,6.64a1.68,1.68,0,0,0,1.25.56h4.13v6.67ZM146.07,380.6H178.7V403.2h-3.38l-6.65-7.41a1.68,1.68,0,0,0-1.21-.56,1.66,1.66,0,0,0-1.23.5l-3.73,3.76-8.37-12.2a1.68,1.68,0,0,0-2.47-.33l-5.6,4.74V380.6Z"/><path class="cls-2" d="M170.27,394.48a5.55,5.55,0,1,0-5.55-5.55A5.56,5.56,0,0,0,170.27,394.48Zm0-7.74a2.2,2.2,0,1,1-2.2,2.2A2.2,2.2,0,0,1,170.27,386.74Z"/><path class="cls-2" d="M162.39,442.11A42.63,42.63,0,1,1,205,399.48,42.68,42.68,0,0,1,162.39,442.11Zm0-81.13a38.5,38.5,0,1,0,38.5,38.5A38.54,38.54,0,0,0,162.39,361Z"/><path class="cls-2" d="M102.09,138.55a42.63,42.63,0,1,1,42.63-42.63A42.68,42.68,0,0,1,102.09,138.55Zm0-81.13a38.5,38.5,0,1,0,38.5,38.5A38.54,38.54,0,0,0,102.09,57.43Z"/><path class="cls-2" d="M126.74,70.43H77.45a.8.8,0,0,0-.85.85v49.29a.8.8,0,0,0,.85.85h49.29a.8.8,0,0,0,.85-.85V71.28A.8.8,0,0,0,126.74,70.43ZM82.54,112.07h10.2v-1.7H82.54V95.07h7.65v-1.7H82.54V84h13.6v-1.7H82.54V76.38h39.09v5.95H108V84h13.6v9.35H114v1.7h7.65v15.3h-10.2v1.7h10.2v7.65H108v-11.9h2.55a.8.8,0,0,0,.85-.85v-4.25a.8.8,0,0,0-.85-.85h-2.12l3-7.48a.83.83,0,0,0-.08-.76l-8.5-13.43a.87.87,0,0,0-1.44,0l-8.5,13.43a.83.83,0,0,0-.08.76l3,7.48H93.59a.8.8,0,0,0-.85.85V107a.8.8,0,0,0,.85.85h2.55v11.9H82.54v-7.65Zm18.7-18.7h-1.7v1.7h5.1v-1.7h-1.7V83.6l6.71,10.54-3.06,7.73h-9l-3.06-7.73,6.71-10.54v9.77Zm-3.4,26.35v-11.9h5.95v-1.7H94.44v-2.55h15.3v2.55h-2.55a.8.8,0,0,0-.85.85v12.75Zm28,0h-2.55V75.53a.8.8,0,0,0-.85-.85H81.7a.8.8,0,0,0-.85.85v44.19H78.3V72.13h47.59Z"/><rect class="cls-2" x="85.09" y="78.08" width="3.4" height="1.7"/><rect class="cls-2" x="91.04" y="78.08" width="3.4" height="1.7"/><path class="cls-1" d="M125.89,119.72h-2.55V75.53a.8.8,0,0,0-.85-.85H81.7a.8.8,0,0,0-.85.85v44.19H78.3V72.13h47.59Z"/><polygon class="cls-1" points="101.24 93.37 99.54 93.37 99.54 95.07 104.64 95.07 104.64 93.37 102.94 93.37 102.94 83.6 109.66 94.14 106.6 101.87 97.59 101.87 94.53 94.14 101.24 83.6 101.24 93.37 101.24 93.37"/><path class="cls-2" d="M156.26,173.19c-16.25-.15-25-14.45-28.85-23l2.39-1.07c3.55,7.94,11.7,21.28,26.48,21.41Z"/><path class="cls-2" d="M125.89,142.27A39.59,39.59,0,0,1,124,154.95l5-4.31,6.62-.1A39.55,39.55,0,0,1,125.89,142.27Z"/><path class="cls-2" d="M226.18,130.5l-.59-2.55c.59-.14,14.54-3.68,14.6-26.42h2.62C242.75,126.44,226.35,130.46,226.18,130.5Z"/><path class="cls-2" d="M241,93.63a39.59,39.59,0,0,0,6.77,10.88l-6.33-1.95-6.11,2.55A39.55,39.55,0,0,0,241,93.63Z"/><path class="cls-2" d="M314.69,138.41a48.91,48.91,0,0,1-10.8-1.15l.65-2.54c.26.07,26.34,6.47,37.48-12.77l2.27,1.31C337,135.88,324,138.41,314.69,138.41Z"/><path class="cls-2" d="M346.27,115.35a39.59,39.59,0,0,0,1.13,12.76l-4.77-4.59L336,123A39.55,39.55,0,0,0,346.27,115.35Z"/><path class="cls-2" d="M376.21,169.13l-2.53-.68c.23-.87,6-21.29,27.79-28.45l.82,2.49C381.78,149.21,376.26,168.94,376.21,169.13Z"/><path class="cls-2" d="M409.58,139.46a39.59,39.59,0,0,0-9.38,8.73l.7-6.59-3.68-5.51A39.55,39.55,0,0,0,409.58,139.46Z"/><path class="cls-2" d="M454.75,308.47c-24,0-36.26-22.79-36.39-23l2.32-1.22c.13.25,13.25,24.54,38.65,21.34l.33,2.6A39.34,39.34,0,0,1,454.75,308.47Z"/><path class="cls-2" d="M467.22,305.15a39.59,39.59,0,0,0-9.66,8.42l.91-6.56-3.5-5.63A39.55,39.55,0,0,0,467.22,305.15Z"/><path class="cls-2" d="M341,352c-19.76-11-9.35-35.67-9.24-35.92l2.4,1c-.4.93-9.57,22.77,8.11,32.59Z"/><path class="cls-2" d="M348.95,353.81a39.59,39.59,0,0,0-12.73,1.45l4.47-4.89.31-6.62A39.55,39.55,0,0,0,348.95,353.81Z"/><path class="cls-2" d="M282.3,335.92l-2.57-.52c3.12-15.55,19-26.42,19.65-26.87l1.47,2.17C300.7,310.8,285.21,321.43,282.3,335.92Z"/><path class="cls-2" d="M280.7,343.56A39.59,39.59,0,0,0,275.15,332l6.08,2.62,6.35-1.88A39.55,39.55,0,0,0,280.7,343.56Z"/><path class="cls-2" d="M210.64,374l-1.46-2.18c15.8-10.58,14.94-36.24,14.92-36.5l2.62-.11C226.77,336.28,227.66,362.55,210.64,374Z"/><path class="cls-2" d="M202.76,376.25a39.59,39.59,0,0,0,7.31-10.52l.72,6.59,4.77,4.6A39.55,39.55,0,0,0,202.76,376.25Z"/><path class="cls-2" d="M114.51,274l-2.12-1.54c9.23-12.76,24.09-14.1,24.72-14.16l.21,2.61C137.18,260.95,123,262.25,114.51,274Z"/><path class="cls-2" d="M109.64,280.18a39.59,39.59,0,0,0,.14-12.81l4.29,5,6.53,1.13A39.55,39.55,0,0,0,109.64,280.18Z"/><path class="cls-2" d="M131.79,199.72c-.13-.08-13.66-7.66-32.83-4.43l-.44-2.58c20.14-3.4,34,4.41,34.57,4.74Z"/><path class="cls-2" d="M91,195.81a39.59,39.59,0,0,0,9.53-8.57l-.81,6.58,3.59,5.57A39.55,39.55,0,0,0,91,195.81Z"/></g></g></svg>