<svg xmlns="http://www.w3.org/2000/svg" xmlns:xlink="http://www.w3.org/1999/xlink" viewBox="0 0 115.97 130.16"><defs><style>.cls-1{fill:#099;}.cls-2{clip-path:url(#clip-path);}.cls-3{fill:#cdd5d7;}.cls-4{fill:#e5e8ec;}.cls-5{fill:#30363d;}.cls-6{fill:#484f59;}</style><clipPath id="clip-path"><path class="cls-1" d="M63,115.14c-29.22,0-53-23.41-53-52.17S33.75,10.79,63,10.79,116,34.19,116,63,92.2,115.14,63,115.14Z"/></clipPath></defs><title>Asset 1</title><g id="Layer_2" data-name="Layer 2"><g id="Layer_4" data-name="Layer 4"><path class="cls-1" d="M63,115.14c-29.22,0-53-23.41-53-52.17S33.75,10.79,63,10.79,116,34.19,116,63,92.2,115.14,63,115.14Z"/><g class="cls-2"><circle class="cls-3" cx="42.84" cy="118.65" r="10.55"/><path class="cls-3" d="M93.15,119.83a12.2,12.2,0,1,0-21.94,0Z"/><polygon class="cls-4" points="60.82 49.41 66.19 74.28 71.56 120.33 60.82 120.33 50.08 120.33 55.45 74.28 60.82 49.41"/><polygon class="cls-3" points="60.82 49.41 64.56 74.28 68.31 120.33 60.82 120.33 53.34 120.33 57.08 74.28 60.82 49.41"/><polygon class="cls-4" points="60.82 49.41 61.93 74.28 63.04 120.33 60.82 120.33 58.6 120.33 59.71 74.28 60.82 49.41"/><path class="cls-4" d="M87.14,120.51a10.8,10.8,0,0,0,.08-1.25,10.53,10.53,0,0,0-15.14-9.49,13.22,13.22,0,0,0-25.73,1.57,14.14,14.14,0,0,0-8.45,4.91,7.13,7.13,0,1,0-2.35,13.91h51v0c.13,0,.26,0,.4,0a4.83,4.83,0,0,0,.15-9.65Z"/><path class="cls-3" d="M47.07,103.44a8.65,8.65,0,0,0-4.6,1.32,13.22,13.22,0,0,0-25.62-4.44A13.18,13.18,0,0,0,0,108a7.1,7.1,0,0,0,4.2,1.48h51v0h.09A8.69,8.69,0,0,0,47.07,103.44Z"/><circle class="cls-4" cx="87.8" cy="107" r="4.13" transform="translate(-33.16 39.71) rotate(-21.54)"/><path class="cls-4" d="M103.5,105.24a8.19,8.19,0,1,0-14.27,5.63Z"/><circle class="cls-4" cx="31.49" cy="106.02" r="8.67"/></g><path class="cls-5" d="M61.51,61c-4.41,0-8,5.94-8,13.26a21.82,21.82,0,0,0,.17,2.71H69.32a21.83,21.83,0,0,0,.17-2.71C69.49,66.89,65.92,61,61.51,61Z"/><path class="cls-6" d="M59.43,61c-3.26,0-5.91,5.94-5.91,13.26,0,.93,0,1.83.12,2.71H65.21c.08-.87.12-1.78.12-2.71C65.33,66.89,62.69,61,59.43,61Z"/><path class="cls-6" d="M54,29.19C54,43.31,46.73,55.6,36.05,62l-.94.87c-2,1.8-1.33,10.31-1.33,10.31H54.07V23.92a27.71,27.71,0,0,1-.18,2.83C53.94,27.56,54,28.37,54,29.19Z"/><path class="cls-3" d="M54.07,45.67A37.73,37.73,0,0,1,37,65l-1,.87c-1.32,1.1-1.57,4.68-1.57,7.32H54.07Z"/><path class="cls-4" d="M36.13,72.16a2.82,2.82,0,0,0-.79,1H54.07V56.86A41,41,0,0,1,37.3,71.29Z"/><path class="cls-6" d="M69,29.19C69,43.31,76.28,55.6,87,62l.94.87c2,1.8,1.33,10.31,1.33,10.31H68.94V23.92a27.69,27.69,0,0,0,.18,2.83C69.08,27.56,69,28.37,69,29.19Z"/><path class="cls-3" d="M68.94,45.67A37.73,37.73,0,0,0,86.06,65l1,.87c1.32,1.1,1.57,4.68,1.57,7.32H68.94Z"/><path class="cls-4" d="M86.88,72.16a2.82,2.82,0,0,1,.79,1H68.94V56.86A41,41,0,0,0,85.71,71.29Z"/><path class="cls-4" d="M69.46,73.15V22.26c0-4.66-3.46-19.77-8-22.26-4.49,2.49-8,17.6-8,22.26V73.15Z"/><path class="cls-3" d="M61.51,0l-.13.09V73.15h8.09V22.26C69.46,17.6,66,2.49,61.51,0Z"/><path class="cls-6" d="M55.82,10.39H67.19C65.76,5.69,63.76,1.25,61.51,0,59.25,1.25,57.25,5.69,55.82,10.39Z"/><path class="cls-5" d="M61.37,10.39h5.82C65.76,5.69,63.76,1.25,61.51,0l-.13.09Z"/><path class="cls-6" d="M66.4,18.82c-.33.74-1.41.46-2.68,0a6.21,6.21,0,0,0-4.52,0c-1.27.47-2.35.75-2.68,0h0c-.34-.73.46-2.48,2.11-3.12a7.79,7.79,0,0,1,5.66,0c1.65.63,2.44,2.39,2.11,3.12Z"/><path class="cls-6" d="M45.29,61c-1.93,0-3.49,5.94-3.49,13.26,0,.93,0,1.83.07,2.71h6.84c0-.87.07-1.78.07-2.71C48.78,66.89,47.22,61,45.29,61Z"/><path class="cls-5" d="M45.29,61c-.5,0-1,.41-1.41,1.14,1.58.87,2.81,6,2.81,12.29,0,.87,0,1.72-.07,2.54h2.1c0-.87.07-1.78.07-2.71C48.78,66.89,47.22,61,45.29,61Z"/><path class="cls-6" d="M77.72,61c-1.93,0-3.49,5.94-3.49,13.26,0,.93,0,1.83.07,2.71h6.84c0-.87.07-1.78.07-2.71C81.21,66.89,79.65,61,77.72,61Z"/><path class="cls-5" d="M77.72,61c-.5,0-1,.41-1.41,1.14,1.59.87,2.81,6,2.81,12.29,0,.87,0,1.72-.07,2.54h2.1c0-.87.07-1.78.07-2.71C81.21,66.89,79.65,61,77.72,61Z"/></g></g></svg>