<svg xmlns="http://www.w3.org/2000/svg" xmlns:xlink="http://www.w3.org/1999/xlink" viewBox="0 0 131.23 109.54"><defs><style>.cls-1{fill:#099;}.cls-2{clip-path:url(#clip-path);}.cls-3{fill:#01b0c1;}.cls-4{fill:none;}.cls-5{fill:#30363d;}.cls-6{fill:#fff;opacity:0.2;}.cls-7{fill:#474f59;}.cls-8{fill:#484f59;}.cls-9{fill:#e5e8ec;}.cls-10{fill:#cdd5d7;}.cls-11{fill:#b7bec0;}.cls-12{fill:#ff876c;}</style><clipPath id="clip-path"><path class="cls-1" d="M60.14,104.35c-29.22,0-53-23.41-53-52.18S30.91,0,60.14,0s53,23.41,53,52.17S89.36,104.35,60.14,104.35Z"/></clipPath></defs><title>Asset 2</title><g id="Layer_2" data-name="Layer 2"><g id="Layer_4" data-name="Layer 4"><path class="cls-1" d="M60.14,104.35c-29.22,0-53-23.41-53-52.18S30.91,0,60.14,0s53,23.41,53,52.17S89.36,104.35,60.14,104.35Z"/><g class="cls-2"><polygon class="cls-3" points="0 70.54 13.5 54.29 35.23 80.48 59.5 49.6 93 63.04 102.82 43.25 116 53.79 109.75 90.29 64.5 109.54 25 102.04 0 70.54"/><path class="cls-4" d="M77.62,68.47"/><path class="cls-5" d="M80,30.33a28.64,28.64,0,1,0,8.42,20.28A28.51,28.51,0,0,0,80,30.33ZM76.29,67.06A23.27,23.27,0,1,1,83.1,50.61,23.18,23.18,0,0,1,76.29,67.06Z"/><path class="cls-6" d="M43.3,34.22A23.24,23.24,0,1,0,76.24,67h0A23.24,23.24,0,1,0,43.3,34.22Z"/><path class="cls-6" d="M49.19,69A22.48,22.48,0,0,1,65,30.63h0a22.44,22.44,0,0,1,6.77,1,22.3,22.3,0,0,0-12.08-3.52h0A22.48,22.48,0,0,0,53,72.05,22.66,22.66,0,0,1,49.19,69Z"/><path class="cls-7" d="M59.77,75.27a24.66,24.66,0,0,1,0-49.31h0v-2.4h-.05a27.06,27.06,0,0,0,.06,54.12V75.27Z"/><path class="cls-5" d="M86.1,71.82l-4.56-4.69A3.58,3.58,0,0,0,79,66.06q-.81,1-1.73,1.91a25.85,25.85,0,0,1-2,1.79,3.62,3.62,0,0,0,1.07,2.56L80.93,77c1.48,1.48,3.21,1,4.66-.52h0C87.07,75,87.57,73.28,86.1,71.82Z"/><rect class="cls-8" x="90.35" y="68.77" width="11.72" height="36.57" transform="translate(-33.38 93.51) rotate(-44.99)"/><rect class="cls-5" x="95.55" y="67" width="4.84" height="36.57" transform="translate(-31.61 94.29) rotate(-45.02)"/><rect class="cls-9" x="78.41" y="73.71" width="11.72" height="2.81" transform="translate(-28.43 81.61) rotate(-45.01)"/><rect class="cls-10" x="83.37" y="72.75" width="5.18" height="1.93" transform="translate(-26.96 82.33) rotate(-44.98)"/><path class="cls-9" d="M115.26,97.82a8.28,8.28,0,0,1-8.29,8.28l-2-2,8.28-8.28Z"/><rect class="cls-10" x="109.19" y="98.33" width="5.18" height="2.42" transform="translate(-37.65 108.17) rotate(-44.99)"/><polygon class="cls-10" points="35.23 81.83 14.25 55.57 3.48 67.48 2.23 66.35 14.33 52.98 35.22 79.12 59.22 48.59 93.36 61.83 102.5 41.94 118.15 53.92 129.74 31.38 131.23 32.15 118.73 56.48 103.15 44.56 94.23 63.98 59.78 50.61 35.23 81.83"/><circle class="cls-10" cx="2.86" cy="66.91" r="2.44"/><circle class="cls-10" cx="35.23" cy="80.48" r="2.44"/><circle class="cls-10" cx="14.29" cy="54.27" r="2.44"/><circle class="cls-11" cx="59.5" cy="49.6" r="2.44"/><circle class="cls-10" cx="93.8" cy="62.91" r="2.44"/><circle class="cls-10" cx="102.82" cy="43.25" r="2.44"/><circle class="cls-10" cx="118.44" cy="55.2" r="2.44"/></g><path class="cls-12" d="M59.45,49.8,45.24,39.47a17,17,0,0,1,14.21-7.24Z"/><path class="cls-9" d="M59.45,49.8V32.23A17.56,17.56,0,1,1,41.89,49.8a16.83,16.83,0,0,1,3.35-10.32Z"/><path class="cls-8" d="M59.45,49.8H77A17.56,17.56,0,0,0,59.45,32.23h0Z"/></g></g></svg>