<svg xmlns="http://www.w3.org/2000/svg" xmlns:xlink="http://www.w3.org/1999/xlink" viewBox="0 0 106 106.1"><defs><style>.cls-1{fill:#09c;}.cls-2{clip-path:url(#clip-path);}.cls-3{fill:#cdd5d7;}.cls-4{fill:#e5e8ec;}.cls-5{fill:#282d33;}.cls-6{fill:#f3b840;}.cls-7{fill:#f0ca67;}.cls-8{fill:#f4da80;}.cls-9{fill:#484f59;}.cls-10{fill:#30363d;}</style><clipPath id="clip-path"><path class="cls-1" d="M53,104.35c-29.22,0-53-23.41-53-52.17S23.78,0,53,0s53,23.41,53,52.18S82.22,104.35,53,104.35Z"/></clipPath></defs><title>Asset 1</title><g id="Layer_2" data-name="Layer 2"><g id="Layer_4" data-name="Layer 4"><path class="cls-1" d="M53,104.35c-29.22,0-53-23.41-53-52.17S23.78,0,53,0s53,23.41,53,52.18S82.22,104.35,53,104.35Z"/><g class="cls-2"><path class="cls-3" d="M84,55.67a28.23,28.23,0,0,0-56.46,0c0,.43,0,.85,0,1.28l-3.94,6.83-5.19,9H25V83.89a7.61,7.61,0,0,0,7.61,7.61H44.68V106.1H75.75V75.6A28.13,28.13,0,0,0,84,55.67Z"/><polygon class="cls-4" points="34.95 76.38 41.41 68.25 38.06 62.76 29.7 63.47 29.22 72.32 34.95 76.38"/><path class="cls-4" d="M35.68,55.11a28,28,0,0,0-6.61-1.64,28.11,28.11,0,0,1,8.78-18.3,27.87,27.87,0,0,1,4.43,2.12A28.1,28.1,0,0,0,35.68,55.11Z"/></g><path class="cls-5" d="M61.58,65.49H48.42a.84.84,0,1,1,0-1.68H61.58a.84.84,0,1,1,0,1.68Z"/><path class="cls-6" d="M71.38,31.79a16.38,16.38,0,0,0-32.76,0c0,.53.39,8.1,6.56,16.05,1.81,2.4,1.51,7.22,1.49,7.22H63.37s-.35-4.82,1.45-7.22C71,39.89,71.38,32.32,71.38,31.79Z"/><path class="cls-7" d="M60.26,52.92c.11-2.06.62-5.95,1.89-7.65C68,37.72,68.28,30.57,68.28,30.5a14.24,14.24,0,0,0-28.49,0c0,.06.27,7.22,6.11,14.74,1.3,1.72,1.82,5.61,1.94,7.67Z"/><path class="cls-8" d="M42.1,33.06a1.28,1.28,0,0,0,1.28-1.28A11.63,11.63,0,0,1,55,20.17a1.28,1.28,0,1,0,0-2.56A14.2,14.2,0,0,0,40.82,31.79,1.28,1.28,0,0,0,42.1,33.06Z"/><polygon class="cls-9" points="59.19 56.33 61.32 39.44 60.47 39.19 58.34 56.07 59.19 56.33"/><polygon class="cls-9" points="50.85 56.33 48.73 39.44 49.58 39.19 51.71 56.07 50.85 56.33"/><path class="cls-9" d="M49.43,41.56c.59,0,.84-.57,1-1,.08-.17.24-.54.33-.54s.25.36.33.54c.19.42.44,1,1,1s.84-.57,1-1a4,4,0,0,1,.18-.36c.3.56.85,1.36,1.51,1.36s.84-.57,1-1c.08-.17.24-.54.33-.54s.25.36.33.54c.19.42.44,1,1,1s.84-.57,1-1c.08-.17.24-.54.33-.54s.25.36.33.54c.19.42.44,1,1,1v-.77c-.09,0-.25-.36-.33-.54-.19-.42-.44-1-1-1s-.84.57-1,1c-.08.18-.24.54-.33.54s-.25-.36-.33-.54c-.19-.42-.44-1-1-1s-.84.57-1,1c-.08.18-.24.54-.33.54s-.71-.62-1-1.3a.38.38,0,0,0-.35-.23c-.59,0-.84.57-1,1-.08.18-.24.54-.33.54s-.25-.36-.33-.54c-.19-.42-.44-1-1-1s-.84.57-1,1c-.08.18-.24.54-.33.54Z"/><path class="cls-5" d="M46.66,55.15v8.56a1.06,1.06,0,0,0,1.06,1.07H62.26a1.07,1.07,0,0,0,1.06-1.07V55.15Z"/><path class="cls-5" d="M46.33,56.81H63.68a.84.84,0,0,0,0-1.68H46.33a.84.84,0,1,0,0,1.68Z"/><path class="cls-9" d="M54,56.39h9.63a.47.47,0,1,0,0-.93H54a.47.47,0,1,0,0,.93Z"/><path class="cls-5" d="M46.33,59.61H63.68a.84.84,0,0,0,0-1.68H46.33a.84.84,0,1,0,0,1.68Z"/><path class="cls-5" d="M46.33,62.41H63.68a.84.84,0,0,0,0-1.68H46.33a.84.84,0,1,0,0,1.68Z"/><path class="cls-9" d="M54,59.06h9.63a.47.47,0,0,0,0-.93H54a.47.47,0,1,0,0,.93Z"/><path class="cls-9" d="M54,61.89h9.63a.47.47,0,1,0,0-.93H54a.47.47,0,1,0,0,.93Z"/><rect class="cls-10" x="52.83" y="56.82" width="8.22" height="0.85"/><rect class="cls-10" x="52.83" y="59.54" width="8.22" height="0.85"/><rect class="cls-10" x="52.83" y="62.27" width="8.22" height="0.85"/></g></g></svg>