<svg xmlns="http://www.w3.org/2000/svg" viewBox="0 0 106 108.7"><defs><style>.cls-1{fill:#099;}.cls-2{fill:#e5e8ec;}.cls-3{fill:#282d33;}.cls-4{fill:#f3b840;}.cls-5{fill:#f0ca67;}.cls-6{fill:#f4da80;}.cls-7{fill:#484f59;}.cls-8{fill:#30363d;}</style></defs><title>Asset 1</title><g id="Layer_2" data-name="Layer 2"><g id="Layer_4" data-name="Layer 4"><path class="cls-1" d="M53,108.7c-29.22,0-53-23.41-53-52.17S23.78,4.35,53,4.35s53,23.41,53,52.18S82.22,108.7,53,108.7Z"/><polygon class="cls-2" points="47.08 91.42 41.92 82.48 47.08 73.54 57.4 73.54 62.56 82.48 57.4 91.42 47.08 91.42"/><path class="cls-2" d="M52.6,85.23a.5.5,0,0,1,0-1q1,0,2-.09a.5.5,0,0,1,.54.46.5.5,0,0,1-.46.54c-.67.05-1.35.08-2,.09Zm-2,0h0c-.67,0-1.35-.1-2-.18a.5.5,0,1,1,.12-1q1,.12,2,.17a.5.5,0,0,1,0,1Zm6-.27a.5.5,0,0,1-.07-1c.65-.1,1.3-.21,1.93-.35a.5.5,0,1,1,.21,1c-.66.14-1.33.27-2,.36Zm-9.95-.21h-.09c-.66-.13-1.33-.28-2-.45a.5.5,0,0,1,.25-1c.63.17,1.28.31,1.92.44a.5.5,0,0,1-.09,1Zm13.85-.64a.5.5,0,0,1-.14-1c.62-.18,1.25-.39,1.87-.61a.5.5,0,0,1,.34.94c-.64.23-1.29.45-1.93.63Zm-17.71-.38-.16,0c-.64-.22-1.28-.46-1.9-.72a.5.5,0,1,1,.38-.92c.6.25,1.22.49,1.84.69a.5.5,0,0,1-.16,1Zm21.46-1a.5.5,0,0,1-.2-1c.6-.27,1.19-.55,1.76-.86a.5.5,0,0,1,.47.88c-.59.31-1.21.61-1.83.89A.49.49,0,0,1,64.24,82.69Zm-25.16-.55a.5.5,0,0,1-.22-.05c-.6-.3-1.21-.63-1.79-1a.5.5,0,0,1,.51-.86c.56.33,1.14.65,1.73.94a.5.5,0,0,1-.22.95Zm28.68-1.32a.5.5,0,0,1-.26-.92c.56-.34,1.1-.71,1.63-1.09a.5.5,0,0,1,.58.81c-.55.39-1.12.77-1.69,1.13A.5.5,0,0,1,67.76,80.82Zm-32.13-.71a.49.49,0,0,1-.28-.09c-.56-.38-1.11-.79-1.64-1.2a.5.5,0,1,1,.62-.79c.51.4,1,.79,1.59,1.16a.5.5,0,0,1-.28.91ZM71,78.49a.5.5,0,0,1-.32-.89c.5-.42,1-.85,1.47-1.3a.5.5,0,0,1,.69.73c-.49.46-1,.92-1.52,1.35A.5.5,0,0,1,71,78.49Zm-38.52-.85a.5.5,0,0,1-.33-.13c-.5-.45-1-.93-1.46-1.41a.5.5,0,1,1,.72-.69c.45.47.93.93,1.41,1.36a.5.5,0,0,1-.34.87Zm41.42-1.9a.5.5,0,0,1-.37-.84c.44-.48.88-1,1.28-1.49a.5.5,0,0,1,.78.63c-.42.52-.87,1-1.33,1.54A.5.5,0,0,1,73.91,75.75Zm-44.2-1a.5.5,0,0,1-.38-.18c-.44-.52-.86-1.05-1.26-1.6a.5.5,0,0,1,.81-.59c.39.52.79,1,1.22,1.54a.5.5,0,0,1-.38.82Zm46.71-2.14a.5.5,0,0,1-.41-.79c.38-.54.74-1.09,1.07-1.65a.5.5,0,0,1,.86.52c-.35.58-.72,1.15-1.11,1.71A.5.5,0,0,1,76.42,72.63ZM27.34,71.56a.5.5,0,0,1-.42-.23c-.36-.57-.71-1.16-1-1.75a.5.5,0,1,1,.88-.48c.31.57.65,1.14,1,1.69a.5.5,0,0,1-.42.77Zm51.15-2.34a.49.49,0,0,1-.23-.06.5.5,0,0,1-.22-.67c.3-.58.58-1.18.84-1.78a.5.5,0,0,1,.92.4c-.27.62-.56,1.24-.87,1.84A.5.5,0,0,1,78.49,69.21ZM25.43,68.05a.5.5,0,0,1-.45-.29c-.28-.61-.55-1.24-.79-1.87a.5.5,0,1,1,.93-.36c.23.61.49,1.22.76,1.81a.5.5,0,0,1-.45.71Zm54.64-2.51a.5.5,0,0,1-.47-.67c.22-.62.42-1.25.59-1.87a.5.5,0,0,1,1,.27c-.18.65-.38,1.3-.61,1.94A.5.5,0,0,1,80.07,65.54ZM24,64.32a.5.5,0,0,1-.48-.35c-.2-.64-.37-1.31-.52-2a.5.5,0,0,1,1-.22c.15.64.32,1.28.51,1.9a.5.5,0,0,1-.33.62Zm57.13-2.63H81a.5.5,0,0,1-.39-.59c.13-.64.24-1.29.33-1.94a.5.5,0,0,1,1,.13c-.09.67-.21,1.34-.34,2A.5.5,0,0,1,81.14,61.69Zm-58-1.26a.5.5,0,0,1-.49-.42c-.11-.66-.19-1.34-.25-2a.5.5,0,0,1,1-.09c.06.65.14,1.31.24,2a.5.5,0,0,1-.42.57Zm58.56-2.7h0a.5.5,0,0,1-.47-.53c0-.65.07-1.31.07-2q0-.71,0-1.4a.5.5,0,0,1,.48-.52.51.51,0,0,1,.52.48q0,.72,0,1.45c0,.68,0,1.36-.07,2A.5.5,0,0,1,81.67,57.73ZM22.75,56.45a.5.5,0,0,1-.5-.49q0-.36,0-.73c0-.44,0-.87,0-1.3a.52.52,0,0,1,.52-.48.5.5,0,0,1,.48.52q0,.63,0,1.26,0,.35,0,.7a.5.5,0,0,1-.49.51Zm.17-4h-.06a.5.5,0,0,1-.44-.55c.07-.67.17-1.35.29-2a.5.5,0,0,1,1,.18c-.11.64-.21,1.3-.28,1.95A.5.5,0,0,1,22.92,52.45Zm58.62-.14a.5.5,0,0,1-.5-.44c-.07-.65-.17-1.3-.29-1.94a.5.5,0,1,1,1-.18c.12.67.22,1.34.3,2a.5.5,0,0,1-.44.55ZM23.63,48.52l-.12,0a.5.5,0,0,1-.36-.61c.16-.65.35-1.31.56-2a.5.5,0,0,1,1,.31c-.2.62-.38,1.26-.54,1.89A.5.5,0,0,1,23.63,48.52Zm57.19-.14a.5.5,0,0,1-.48-.38c-.16-.63-.35-1.27-.55-1.89a.5.5,0,1,1,.95-.31c.21.64.4,1.3.57,2a.5.5,0,0,1-.36.61Zm-56-3.66A.5.5,0,0,1,24.4,44c.25-.62.53-1.25.82-1.86a.5.5,0,1,1,.9.43c-.29.59-.55,1.2-.8,1.8A.5.5,0,0,1,24.86,44.72Zm54.7-.13a.5.5,0,0,1-.46-.31c-.25-.6-.52-1.21-.8-1.79a.5.5,0,0,1,.9-.44c.3.6.58,1.23.83,1.85a.5.5,0,0,1-.46.69Zm-53-3.47a.5.5,0,0,1-.43-.75c.33-.58.69-1.17,1.07-1.73a.5.5,0,1,1,.83.55c-.36.55-.71,1.11-1,1.67A.5.5,0,0,1,26.61,41.12ZM77.81,41a.5.5,0,0,1-.43-.25c-.33-.56-.68-1.12-1-1.67a.5.5,0,1,1,.83-.56c.38.56.74,1.14,1.07,1.72a.5.5,0,0,1-.18.68A.51.51,0,0,1,77.81,41Zm-49-3.21a.49.49,0,0,1-.3-.1.5.5,0,0,1-.09-.7c.41-.53.84-1.06,1.29-1.57a.5.5,0,1,1,.75.66c-.43.49-.85,1-1.25,1.52A.5.5,0,0,1,28.82,37.79Zm46.76-.1a.5.5,0,0,1-.4-.19c-.4-.52-.82-1-1.25-1.51a.5.5,0,0,1,.75-.66c.45.51.88,1,1.3,1.56a.5.5,0,0,1-.4.81Zm-44.12-2.9a.5.5,0,0,1-.35-.85c.48-.47,1-.94,1.49-1.38a.5.5,0,1,1,.66.75c-.49.43-1,.88-1.44,1.34A.5.5,0,0,1,31.46,34.79Zm41.47-.09a.5.5,0,0,1-.35-.14c-.46-.46-1-.91-1.45-1.33a.5.5,0,0,1,.65-.76c.51.44,1,.9,1.5,1.38a.5.5,0,0,1-.35.86ZM34.48,32.17a.5.5,0,0,1-.3-.9c.54-.41,1.1-.8,1.66-1.17a.5.5,0,1,1,.55.84c-.54.36-1.08.74-1.61,1.13A.49.49,0,0,1,34.48,32.17ZM69.9,32.1a.5.5,0,0,1-.3-.1c-.52-.39-1.06-.77-1.61-1.12a.5.5,0,0,1,.54-.84c.57.37,1.13.76,1.67,1.16a.5.5,0,0,1-.3.9ZM37.82,30a.5.5,0,0,1-.25-.94c.59-.33,1.19-.64,1.8-.93a.5.5,0,0,1,.43.9c-.59.28-1.18.58-1.74.9A.5.5,0,0,1,37.82,30Zm28.72-.07a.5.5,0,0,1-.24-.06c-.57-.32-1.16-.62-1.75-.9a.5.5,0,0,1,.42-.91c.61.29,1.22.6,1.81.93a.5.5,0,0,1-.24.94ZM41.43,28.28a.5.5,0,0,1-.18-1c.63-.25,1.27-.48,1.92-.68a.5.5,0,0,1,.3,1c-.62.2-1.24.42-1.85.66A.51.51,0,0,1,41.43,28.28Zm21.49-.05a.49.49,0,0,1-.18,0c-.61-.24-1.23-.45-1.86-.65a.5.5,0,1,1,.3-1c.65.2,1.29.43,1.92.67a.5.5,0,0,1-.18,1ZM45.24,27.07a.5.5,0,0,1-.12-1c.65-.16,1.32-.3,2-.41a.5.5,0,1,1,.17,1c-.64.11-1.29.25-1.92.4ZM59.1,27H59c-.63-.15-1.28-.28-1.93-.39a.5.5,0,0,1,.16-1c.67.11,1.34.25,2,.4a.5.5,0,0,1-.12,1Zm-9.93-.65a.5.5,0,0,1-.05-1c.67-.07,1.35-.12,2-.14a.5.5,0,0,1,0,1c-.65,0-1.31.07-2,.14Zm6,0h0q-1-.1-2-.13a.5.5,0,1,1,0-1c.67,0,1.35.06,2,.13a.5.5,0,0,1,0,1Z"/><path class="cls-3" d="M45,55.18H59.49a.92.92,0,1,0,0-1.85H45a.92.92,0,1,0,0,1.85Z"/><path class="cls-4" d="M34.19,18a18,18,0,1,1,36.09,0c0,.59-.43,8.93-7.23,17.68-2,2.64-1.66,8-1.64,8H43s.38-5.31-1.6-8C34.61,27,34.19,18.64,34.19,18Z"/><path class="cls-5" d="M46.45,41.33c-.12-2.27-.68-6.55-2.09-8.42-6.47-8.33-6.76-16.2-6.76-16.28a15.69,15.69,0,0,1,31.39,0c0,.07-.3,8-6.74,16.24-1.43,1.9-2,6.18-2.14,8.46Z"/><path class="cls-6" d="M66.45,19.45A1.41,1.41,0,0,1,65,18a12.81,12.81,0,0,0-12.8-12.8,1.41,1.41,0,1,1,0-2.82A15.64,15.64,0,0,1,67.86,18,1.41,1.41,0,0,1,66.45,19.45Z"/><polygon class="cls-7" points="47.62 45.08 45.27 26.48 46.22 26.2 48.56 44.8 47.62 45.08"/><polygon class="cls-7" points="56.81 45.08 59.15 26.48 58.21 26.2 55.86 44.8 56.81 45.08"/><path class="cls-7" d="M58.38,28.81c-.65,0-.93-.63-1.13-1.09-.08-.19-.26-.59-.36-.59s-.28.4-.36.59c-.2.46-.49,1.09-1.13,1.09s-.93-.63-1.13-1.09c0-.1-.12-.27-.19-.4-.33.61-.93,1.5-1.67,1.5s-.93-.63-1.13-1.09c-.09-.19-.26-.59-.37-.59s-.28.4-.36.59c-.2.46-.49,1.09-1.13,1.09s-.93-.63-1.13-1.09c-.09-.19-.26-.59-.37-.59s-.28.4-.36.59c-.2.46-.49,1.09-1.14,1.09V28c.1,0,.28-.4.37-.59.21-.46.49-1.09,1.13-1.09s.93.63,1.14,1.09c.09.19.27.59.37.59s.28-.4.36-.59c.21-.46.49-1.09,1.13-1.09s.93.63,1.13,1.09c.09.19.26.59.36.59s.78-.68,1.11-1.43a.42.42,0,0,1,.38-.25c.65,0,.93.63,1.13,1.09.09.19.26.59.36.59s.28-.4.36-.59c.2-.46.48-1.09,1.13-1.09s.93.63,1.13,1.09c.08.19.26.59.36.59Z"/><path class="cls-3" d="M61.43,43.78v9.44a1.17,1.17,0,0,1-1.17,1.17h-16a1.17,1.17,0,0,1-1.17-1.17V43.78Z"/><path class="cls-3" d="M61.8,45.62H42.68a.92.92,0,1,1,0-1.85H61.8a.92.92,0,1,1,0,1.85Z"/><path class="cls-7" d="M53.34,45.15H42.74a.51.51,0,0,1,0-1H53.34a.51.51,0,1,1,0,1Z"/><path class="cls-3" d="M61.8,48.7H42.68a.92.92,0,1,1,0-1.85H61.8a.92.92,0,1,1,0,1.85Z"/><path class="cls-3" d="M61.8,51.79H42.68a.92.92,0,1,1,0-1.85H61.8a.92.92,0,1,1,0,1.85Z"/><path class="cls-7" d="M53.34,48.09H42.74a.51.51,0,0,1,0-1H53.34a.51.51,0,1,1,0,1Z"/><path class="cls-7" d="M53.34,51.21H42.74a.51.51,0,0,1,0-1H53.34a.51.51,0,1,1,0,1Z"/><rect class="cls-8" x="45.57" y="45.62" width="9.06" height="0.94"/><rect class="cls-8" x="45.57" y="48.63" width="9.06" height="0.94"/><rect class="cls-8" x="45.57" y="51.63" width="9.06" height="0.94"/><circle class="cls-2" cx="80.18" cy="54.95" r="9.33"/><rect class="cls-2" x="15.98" y="46.11" width="17.67" height="17.67"/><rect class="cls-7" x="49.78" y="79.04" width="1.67" height="7.5"/><rect class="cls-7" x="53.03" y="79.04" width="1.67" height="7.5"/><rect class="cls-7" x="79.34" y="51.2" width="1.67" height="7.5"/><rect class="cls-7" x="20.75" y="51.2" width="1.67" height="7.5"/><rect class="cls-7" x="24" y="51.2" width="1.67" height="7.5"/><rect class="cls-7" x="27.21" y="51.2" width="1.67" height="7.5"/></g></g></svg>