<svg xmlns="http://www.w3.org/2000/svg" xmlns:xlink="http://www.w3.org/1999/xlink" viewBox="0 0 115.8 104.35"><defs><style>.cls-1{fill:none;}.cls-2{fill:#099;}.cls-3{fill:#01bacc;}.cls-4{clip-path:url(#clip-path);}.cls-5{fill:#cdd5d7;}.cls-6{fill:#484f59;}.cls-7{fill:#e5e8ec;}.cls-8{fill:#b7bec0;}.cls-9{fill:#30363d;}.cls-10{fill:#282d33;}.cls-11{fill:#fff200;}.cls-12{fill:#f4da80;}.cls-13{fill:#f0bf41;}</style><clipPath id="clip-path"><path class="cls-1" d="M62.8,104.35c-29.22,0-53-23.41-53-52.17S33.58,0,62.8,0s53,23.41,53,52.17S92,104.35,62.8,104.35Z"/></clipPath></defs><title>Asset 1</title><g id="Layer_2" data-name="Layer 2"><g id="Layer_4" data-name="Layer 4"><path class="cls-2" d="M62.8,104.35c-29.22,0-53-23.41-53-52.17S33.58,0,62.8,0s53,23.41,53,52.17S92,104.35,62.8,104.35Z"/><path class="cls-3" d="M16.42,77.38a53.37,53.37,0,0,0,92.77,0Z"/><g class="cls-4"><path class="cls-5" d="M90.39,52.11c.16,12.13-11,23.08-24.6,23.63C52.19,75.19,41,64.24,41.2,52.11c0-12,9.89-31.64,24.6-32.06C80.5,20.46,90.4,40.12,90.39,52.11Z"/><rect class="cls-5" x="41.28" y="50.18" width="41.96" height="40.03" rx="3.86" ry="3.86"/><rect class="cls-5" x="48.35" y="50.18" width="41.96" height="40.03" rx="3.86" ry="3.86"/><path class="cls-5" d="M62.71,21.32a1.5,1.5,0,0,1-1.21,1.75h0a1.85,1.85,0,0,1-1.86-1.39l-3-11c-.25-.88.62-1.76,2-1.92h0c1.34-.16,2.52.49,2.63,1.38Z"/><path class="cls-5" d="M65.8,21.2a1.6,1.6,0,0,1-1.44,1.65h0a1.72,1.72,0,0,1-1.65-1.53L61.19,10.13c-.13-.89.85-1.71,2.19-1.76h0c1.35-.05,2.43.68,2.42,1.58Z"/><path class="cls-5" d="M68.88,21.32a1.72,1.72,0,0,1-1.65,1.53h0A1.6,1.6,0,0,1,65.8,21.2V10c0-.9,1.07-1.62,2.41-1.58h0c1.34.05,2.32.87,2.19,1.76Z"/><path class="cls-5" d="M72,21.69a1.86,1.86,0,0,1-1.86,1.39h0a1.5,1.5,0,0,1-1.21-1.75L70.4,10.13c.11-.89,1.29-1.54,2.63-1.38h0c1.34.16,2.21,1,2,1.92Z"/><rect class="cls-5" x="38.93" y="84.1" width="14.66" height="6.11" rx="2.93" ry="2.93"/><rect class="cls-5" x="78" y="84.1" width="14.66" height="6.11" rx="2.93" ry="2.93"/><path class="cls-6" d="M73.25,21.08a.32.32,0,0,1-.32.32H59.42a.32.32,0,0,1-.32-.32h0a.32.32,0,0,1,.32-.32H72.93a.32.32,0,0,1,.32.32Z"/><path class="cls-6" d="M72.65,20.72a.32.32,0,0,1-.32.32H58.82a.32.32,0,0,1-.32-.32h0a.32.32,0,0,1,.32-.32h13.5a.32.32,0,0,1,.32.32Z"/><path class="cls-6" d="M73.13,20.48a.32.32,0,0,1-.32.32H59.3a.32.32,0,0,1-.32-.32h0a.32.32,0,0,1,.32-.32h13.5a.32.32,0,0,1,.32.32Z"/><path class="cls-7" d="M80.74,88.28a5,5,0,0,0,.1-1V87a4.88,4.88,0,0,0-2.35-4.16V54.17c.06-.74.09-1.43.08-2.09,0-9.79-5.83-23.09-14.86-29.74A14.81,14.81,0,0,1,66.52,22c12.94.41,22.67,18.54,22.67,30.13,0,.59,0,1.17-.07,1.82V85.74l1.55.31a1,1,0,0,1,.8,1v.24a1,1,0,0,1-1,1Z"/><circle class="cls-8" cx="65.8" cy="53.63" r="11.32"/><path class="cls-7" d="M65.09,59.52A5.2,5.2,0,0,1,63.27,59a5,5,0,0,1-1.42-1l.44-.68a.44.44,0,0,1,.17-.15.43.43,0,0,1,.22-.06.62.62,0,0,1,.36.15c.13.11.3.23.49.36a5.15,5.15,0,0,0,.69.4,3.17,3.17,0,0,0,1,.25l.3-4.39c-.38-.12-.76-.24-1.13-.39a4,4,0,0,1-1-.57,2.61,2.61,0,0,1-.71-.89,3,3,0,0,1-.27-1.34,3.14,3.14,0,0,1,.24-1.18,3.08,3.08,0,0,1,.69-1,3.47,3.47,0,0,1,1.11-.73,3.79,3.79,0,0,1,1.52-.29L66,46.28a.5.5,0,0,1,.13-.28.36.36,0,0,1,.29-.12H67l-.11,1.63a4.16,4.16,0,0,1,1.49.45,5.17,5.17,0,0,1,1.13.82l-.35.55a.47.47,0,0,1-.38.25.58.58,0,0,1-.28-.1L68,49.22c-.16-.09-.35-.18-.55-.27a2.81,2.81,0,0,0-.72-.19l-.28,4c.4.12.79.25,1.18.4a4.27,4.27,0,0,1,1,.56,2.56,2.56,0,0,1,.75.85,2.53,2.53,0,0,1,.29,1.27,4,4,0,0,1-.25,1.4,3.46,3.46,0,0,1-.72,1.15,3.68,3.68,0,0,1-1.17.81,3.79,3.79,0,0,1-1.58.31L65.93,61a.45.45,0,0,1-.13.28.36.36,0,0,1-.28.12H65Zm-1.34-9a1.51,1.51,0,0,0,.53,1.21,2.59,2.59,0,0,0,.58.39,6.43,6.43,0,0,0,.72.3l.25-3.73a3.26,3.26,0,0,0-.93.22,2.09,2.09,0,0,0-.64.41,1.58,1.58,0,0,0-.38.56A1.78,1.78,0,0,0,63.76,50.57Zm4.58,5.49a1.51,1.51,0,0,0-.15-.71,1.61,1.61,0,0,0-.42-.51,2.74,2.74,0,0,0-.62-.37,8,8,0,0,0-.76-.29l-.28,4.12a3,3,0,0,0,1-.24,2.23,2.23,0,0,0,.7-.47,1.87,1.87,0,0,0,.43-.67A2.39,2.39,0,0,0,68.34,56.06Z"/><rect class="cls-9" x="5" y="88.83" width="9.42" height="5.5"/><rect class="cls-9" x="44.25" y="88.83" width="9.42" height="5.5"/><rect class="cls-6" y="48.08" width="58.67" height="44" rx="2" ry="2"/><rect class="cls-10" x="5" y="53.08" width="48.67" height="34"/><rect class="cls-9" x="5.42" y="53.68" width="47.83" height="32.8"/><rect class="cls-9" x="3.61" y="57.33" width="3.2" height="7"/><rect class="cls-9" x="3.61" y="76.58" width="3.2" height="7"/><rect class="cls-10" x="4.21" y="57.33" width="0.5" height="7"/><rect class="cls-10" x="4.21" y="76.58" width="0.5" height="7"/><rect class="cls-6" x="5.48" y="57.33" width="1.32" height="7"/><rect class="cls-6" x="5.48" y="76.58" width="1.32" height="7"/><circle class="cls-10" cx="29.33" cy="70.71" r="8.77"/><circle class="cls-6" cx="29.33" cy="70.21" r="8.77"/><circle class="cls-10" cx="29.33" cy="70.21" r="7.85"/><circle class="cls-9" cx="29.33" cy="70.21" r="6.3"/><circle class="cls-6" cx="29.33" cy="70.21" r="5.98"/><circle class="cls-6" cx="29.33" cy="63.11" r="0.31"/><circle class="cls-10" cx="29.33" cy="70.21" r="3.54"/><circle class="cls-9" cx="29.33" cy="70.21" r="3.17"/><rect class="cls-8" x="29.23" y="64.44" width="0.22" height="0.22"/><rect class="cls-8" x="29.23" y="64.45" width="0.22" height="1.32"/><rect class="cls-8" x="26.68" y="65.13" width="0.22" height="1.32" transform="translate(-29.13 21.98) rotate(-29.77)"/><polygon class="cls-8" points="25.54 67.89 25.44 68.08 24.29 67.42 24.4 67.23 25.54 67.89"/><rect class="cls-8" x="23.56" y="70.09" width="1.32" height="0.22"/><rect class="cls-8" x="24.25" y="72.65" width="1.32" height="0.22" transform="translate(-33.04 22.2) rotate(-30)"/><polygon class="cls-8" points="27.02 74 27.2 74.11 26.55 75.26 26.36 75.15 27.02 74"/><rect class="cls-8" x="29.22" y="74.66" width="0.22" height="1.32"/><rect class="cls-8" x="31.78" y="73.98" width="0.22" height="1.32" transform="translate(-33.04 25.93) rotate(-29.99)"/><polygon class="cls-8" points="33.13 72.52 33.23 72.33 34.38 73 34.27 73.18 33.13 72.52"/><rect class="cls-8" x="33.78" y="70.1" width="1.32" height="0.22"/><polygon class="cls-8" points="33.25 68.08 33.14 67.9 34.28 67.24 34.39 67.42 33.25 68.08"/><polygon class="cls-8" points="31.65 66.42 31.46 66.31 32.12 65.16 32.31 65.27 31.65 66.42"/><polygon class="cls-8" points="28.87 64.67 28.65 64.7 28.63 64.48 28.84 64.46 28.87 64.67"/><rect class="cls-8" x="28.05" y="64.56" width="0.22" height="0.22" transform="translate(-13.25 7.57) rotate(-12.42)"/><rect class="cls-8" x="27.48" y="64.71" width="0.22" height="0.22" transform="translate(-18.5 11.54) rotate(-17.8)"/><polygon class="cls-8" points="27.18 65.09 26.98 65.18 26.89 64.98 27.09 64.89 27.18 65.09"/><rect class="cls-8" x="26.4" y="65.19" width="0.22" height="0.22" transform="translate(-29.3 22.26) rotate(-30.26)"/><polygon class="cls-8" points="26.16 65.65 25.99 65.78 25.86 65.6 26.04 65.47 26.16 65.65"/><polygon class="cls-8" points="25.7 66.01 25.54 66.15 25.4 65.99 25.56 65.84 25.7 66.01"/><rect class="cls-8" x="25.02" y="66.31" width="0.22" height="0.22" transform="translate(-40.84 40.14) rotate(-47.56)"/><rect class="cls-8" x="24.65" y="66.77" width="0.22" height="0.22" transform="translate(-43.86 47.47) rotate(-53.89)"/><polygon class="cls-8" points="24.58 67.33 24.48 67.52 24.29 67.41 24.4 67.23 24.58 67.33"/><rect class="cls-8" x="24.06" y="67.79" width="0.22" height="0.22" transform="translate(-47.7 62.48) rotate(-66.09)"/><polygon class="cls-8" points="24.09 68.39 24.02 68.59 23.82 68.52 23.89 68.32 24.09 68.39"/><polygon class="cls-8" points="23.93 68.94 23.89 69.16 23.67 69.11 23.72 68.9 23.93 68.94"/><rect class="cls-8" x="23.6" y="69.5" width="0.22" height="0.22" transform="translate(-48.06 85.68) rotate(-83.81)"/><rect class="cls-8" x="23.57" y="70.1" width="0.22" height="0.22"/><rect class="cls-8" x="23.6" y="70.69" width="0.22" height="0.22" transform="matrix(0.99, -0.11, 0.11, 0.99, -7.49, 2.97)"/><polygon class="cls-8" points="23.89 71.25 23.93 71.47 23.71 71.51 23.67 71.3 23.89 71.25"/><polygon class="cls-8" points="24.02 71.82 24.09 72.02 23.88 72.09 23.82 71.88 24.02 71.82"/><rect class="cls-8" x="24.06" y="72.4" width="0.22" height="0.22" transform="translate(-27.66 16.34) rotate(-24.27)"/><polygon class="cls-8" points="24.47 72.89 24.58 73.08 24.39 73.18 24.29 73 24.47 72.89"/><polygon class="cls-8" points="24.78 73.38 24.91 73.56 24.73 73.68 24.6 73.51 24.78 73.38"/><rect class="cls-8" x="25.02" y="73.88" width="0.22" height="0.22" transform="translate(-42.98 35.69) rotate(-41.89)"/><rect class="cls-8" x="25.44" y="74.3" width="0.22" height="0.22" transform="translate(-46.92 43.77) rotate(-48.13)"/><rect class="cls-8" x="25.9" y="74.68" width="0.22" height="0.22" transform="translate(-49.77 51.82) rotate(-53.96)"/><polygon class="cls-8" points="26.46 74.96 26.65 75.07 26.54 75.26 26.35 75.15 26.46 74.96"/><polygon class="cls-8" points="26.98 75.23 27.18 75.32 27.09 75.52 26.89 75.43 26.98 75.23"/><polygon class="cls-8" points="27.51 75.45 27.72 75.52 27.65 75.73 27.45 75.66 27.51 75.45"/><polygon class="cls-8" points="28.07 75.61 28.29 75.66 28.24 75.87 28.03 75.83 28.07 75.61"/><rect class="cls-8" x="28.63" y="75.73" width="0.22" height="0.22" transform="translate(-49.74 96.27) rotate(-83.84)"/><rect class="cls-8" x="29.22" y="75.76" width="0.22" height="0.22"/><polygon class="cls-8" points="29.81 75.74 30.02 75.72 30.05 75.93 29.83 75.96 29.81 75.74"/><rect class="cls-8" x="30.4" y="75.64" width="0.22" height="0.22" transform="translate(-14.97 7.93) rotate(-11.91)"/><polygon class="cls-8" points="30.95 75.52 31.15 75.45 31.22 75.66 31.01 75.73 30.95 75.52"/><rect class="cls-8" x="31.53" y="75.27" width="0.22" height="0.22" transform="translate(-27.97 19.44) rotate(-24.05)"/><rect class="cls-8" x="32.05" y="75" width="0.22" height="0.22" transform="translate(-33.06 25.9) rotate(-29.78)"/><polygon class="cls-8" points="32.51 74.76 32.69 74.64 32.81 74.81 32.64 74.94 32.51 74.76"/><polygon class="cls-8" points="32.97 74.41 33.13 74.26 33.27 74.42 33.11 74.57 32.97 74.41"/><polygon class="cls-8" points="33.39 74 33.53 73.84 33.69 73.99 33.55 74.15 33.39 74"/><polygon class="cls-8" points="33.76 73.56 33.89 73.38 34.06 73.51 33.94 73.69 33.76 73.56"/><polygon class="cls-8" points="34.09 73.08 34.2 72.89 34.38 73 34.28 73.19 34.09 73.08"/><rect class="cls-8" x="34.4" y="72.4" width="0.22" height="0.22" transform="translate(-45.78 74.13) rotate(-65.71)"/><polygon class="cls-8" points="34.58 72.03 34.65 71.82 34.85 71.89 34.79 72.1 34.58 72.03"/><polygon class="cls-8" points="34.74 71.47 34.79 71.26 35 71.31 34.96 71.51 34.74 71.47"/><polygon class="cls-8" points="34.84 70.9 34.87 70.68 35.08 70.7 35.06 70.92 34.84 70.9"/><rect class="cls-8" x="34.89" y="70.1" width="0.22" height="0.22"/><polygon class="cls-8" points="34.87 69.74 34.84 69.52 35.06 69.5 35.09 69.72 34.87 69.74"/><polygon class="cls-8" points="34.79 69.16 34.74 68.95 34.96 68.9 35 69.12 34.79 69.16"/><polygon class="cls-8" points="34.65 68.6 34.58 68.39 34.79 68.33 34.86 68.53 34.65 68.6"/><polygon class="cls-8" points="34.45 68.05 34.36 67.85 34.56 67.76 34.65 67.96 34.45 68.05"/><rect class="cls-8" x="34.13" y="67.27" width="0.22" height="0.22" transform="translate(-29.27 26.41) rotate(-30.24)"/><polygon class="cls-8" points="33.89 67.03 33.76 66.86 33.94 66.73 34.07 66.91 33.89 67.03"/><polygon class="cls-8" points="33.53 66.58 33.39 66.41 33.55 66.27 33.7 66.43 33.53 66.58"/><rect class="cls-8" x="33.02" y="65.89" width="0.22" height="0.22" transform="translate(-38.19 46.81) rotate(-48.29)"/><polygon class="cls-8" points="32.69 65.78 32.51 65.65 32.64 65.48 32.82 65.6 32.69 65.78"/><rect class="cls-8" x="32.06" y="65.2" width="0.22" height="0.22" transform="translate(-40.47 60.5) rotate(-59.99)"/><polygon class="cls-8" points="31.7 65.18 31.5 65.09 31.59 64.89 31.79 64.98 31.7 65.18"/><polygon class="cls-8" points="31.16 64.96 30.95 64.9 31.02 64.69 31.23 64.75 31.16 64.96"/><polygon class="cls-8" points="30.6 64.8 30.39 64.76 30.43 64.54 30.64 64.59 30.6 64.8"/><polygon class="cls-8" points="30.02 64.7 29.81 64.68 29.83 64.46 30.05 64.48 30.02 64.7"/></g><path class="cls-7" d="M87.92,95.18c4.64-1.74,10.77-1.63,13.7.25s1.53,4.81-3.11,6.55-10.77,1.63-13.7-.25S83.28,96.92,87.92,95.18Z"/><rect class="cls-11" x="73.08" y="95.89" width="1.49" height="2.36"/><rect class="cls-11" x="91.55" y="95.89" width="1.49" height="2.36"/><ellipse class="cls-12" cx="83.06" cy="98.16" rx="9.98" ry="4.07"/><ellipse class="cls-13" cx="83.06" cy="95.95" rx="9.98" ry="4.07"/><ellipse class="cls-11" cx="83.06" cy="95.38" rx="7.86" ry="2.63"/><rect class="cls-11" x="71.98" y="92.12" width="1.49" height="2.36"/><rect class="cls-11" x="90.45" y="92.12" width="1.49" height="2.36"/><ellipse class="cls-12" cx="81.96" cy="94.38" rx="9.98" ry="4.07"/><ellipse class="cls-13" cx="81.96" cy="92.18" rx="9.98" ry="4.07"/><ellipse class="cls-11" cx="81.96" cy="91.61" rx="7.86" ry="2.63"/><rect class="cls-11" x="73.4" y="88.51" width="1.49" height="2.36"/><rect class="cls-11" x="91.86" y="88.51" width="1.49" height="2.36"/><ellipse class="cls-12" cx="83.38" cy="90.77" rx="9.98" ry="4.07"/><ellipse class="cls-13" cx="83.38" cy="88.57" rx="9.98" ry="4.07"/><ellipse class="cls-12" cx="83.38" cy="88" rx="7.86" ry="2.63"/><circle class="cls-12" cx="93.63" cy="92.58" r="10.29"/><circle class="cls-13" cx="93.63" cy="92.58" r="9.98"/><circle class="cls-12" cx="93.63" cy="92.58" r="7.86"/><path class="cls-13" d="M93.07,97.19a4,4,0,0,1-1.42-.39,3.84,3.84,0,0,1-1.11-.8l.34-.53a.37.37,0,0,1,.13-.12.34.34,0,0,1,.17,0,.47.47,0,0,1,.28.12l.38.28a3.69,3.69,0,0,0,.54.31,2.36,2.36,0,0,0,.75.2l.24-3.44c-.3-.09-.6-.19-.89-.31a3.13,3.13,0,0,1-.79-.45,2.06,2.06,0,0,1-.56-.7,2.34,2.34,0,0,1-.21-1,2.43,2.43,0,0,1,.19-.93,2.37,2.37,0,0,1,.54-.8,2.73,2.73,0,0,1,.87-.58,3,3,0,0,1,1.19-.22l.06-.94a.41.41,0,0,1,.1-.22.29.29,0,0,1,.23-.1h.43l-.09,1.28a3.29,3.29,0,0,1,1.17.35,4,4,0,0,1,.88.64l-.28.43a.36.36,0,0,1-.3.19.48.48,0,0,1-.22-.08l-.32-.19-.43-.21a2.24,2.24,0,0,0-.56-.15l-.22,3.13c.31.09.62.2.92.31a3.22,3.22,0,0,1,.81.44,2,2,0,0,1,.59.66,2,2,0,0,1,.23,1,3.05,3.05,0,0,1-.2,1.1,2.63,2.63,0,0,1-.56.9,2.91,2.91,0,0,1-.91.63,3,3,0,0,1-1.23.24l-.08,1.16a.38.38,0,0,1-.1.22.29.29,0,0,1-.22.09H93Zm-1-7a1.25,1.25,0,0,0,.11.54,1.22,1.22,0,0,0,.3.4,2,2,0,0,0,.45.31,5.57,5.57,0,0,0,.56.23l.2-2.92a2.52,2.52,0,0,0-.73.17,1.55,1.55,0,0,0-.51.32,1.24,1.24,0,0,0-.29.44A1.31,1.31,0,0,0,92,90.18Zm3.6,4.3a1.19,1.19,0,0,0-.12-.56,1.23,1.23,0,0,0-.32-.4,2.09,2.09,0,0,0-.49-.29,5.46,5.46,0,0,0-.6-.23l-.22,3.22a2.23,2.23,0,0,0,.75-.19,1.73,1.73,0,0,0,.55-.37,1.53,1.53,0,0,0,.34-.53A1.93,1.93,0,0,0,95.62,94.48Z"/></g></g></svg>