<svg xmlns="http://www.w3.org/2000/svg" xmlns:xlink="http://www.w3.org/1999/xlink" viewBox="0 0 127 104.35"><defs><style>.cls-1{fill:#09c;}.cls-2{clip-path:url(#clip-path);}.cls-3{fill:#f3b840;}.cls-4{fill:#f4da80;}.cls-5{fill:#e5e8ec;}.cls-6{fill:#30363d;}.cls-7{fill:#cdd5d7;}.cls-8{fill:#484f59;}</style><clipPath id="clip-path"><path class="cls-1" d="M62.64,104.35c-29.22,0-53-23.41-53-52.17S33.42,0,62.64,0s53,23.41,53,52.17S91.87,104.35,62.64,104.35Z"/></clipPath></defs><title>Asset 4</title><g id="Layer_2" data-name="Layer 2"><g id="Layer_4" data-name="Layer 4"><path class="cls-1" d="M62.64,104.35c-29.22,0-53-23.41-53-52.17S33.42,0,62.64,0s53,23.41,53,52.17S91.87,104.35,62.64,104.35Z"/><g class="cls-2"><path class="cls-3" d="M88.71,57.74l-5-2.48A3.2,3.2,0,0,0,83,55a3.11,3.11,0,0,0-.66-.45l-9.44-4.72a14.06,14.06,0,0,1-2.45-.31,12.33,12.33,0,0,1-7.35-4.59l-.08,0V45l-6.1.64-.22,1.17A5.44,5.44,0,0,1,50.3,51l-1.77-.36-.22-.06.61-3,1.58-7.68.09,0v0l3.66-.74,4.07-.86v0l3.82-.77v0h0l.09,0v0l3.79.84L64.9,34.76h-.09v0l-3.68-.35L57,33.92v0l-4-.38v0l-12.9,4.3-3-1.4-8.45,18,3.65,1.89a7.42,7.42,0,0,0,3.26,4.86,3.1,3.1,0,0,1,.33-1.55l1.1-2.2a3.13,3.13,0,0,1,5.6,2.8l-1.1,2.2a3.15,3.15,0,0,1-1.1,1.22l2.47,1.23a3.09,3.09,0,0,1,.32-1.61l2.61-5.2a3.13,3.13,0,0,1,5.6,2.8l-2.61,5.2a3.1,3.1,0,0,1-1.09,1.22l2.19,1.1a3.1,3.1,0,0,1,.32-1.61l3.22-6.43a3.13,3.13,0,0,1,5.6,2.8l-3.22,6.42a3.13,3.13,0,0,1-1.09,1.22L56.84,72a3.11,3.11,0,0,1,.32-1.61l1.1-2.2A3.13,3.13,0,0,1,63.87,71l-1.1,2.2a3.08,3.08,0,0,1-1,1.19l.5.17,4.15,2.07a3.13,3.13,0,0,0,3.87-4.72,7.36,7.36,0,0,0,.5-.76l2.66,1.33a3.13,3.13,0,1,0,2.8-5.6l-2.63-1.32.27-.54L80,68.07a3.13,3.13,0,0,0,2.8-5.6l-6.22-3.11c.08-.19.14-.38.21-.58l2.73,1.37a3.16,3.16,0,0,0,.75.26,3.13,3.13,0,0,0,.66.45l5,2.48a3.13,3.13,0,1,0,2.8-5.6Z"/><path class="cls-4" d="M62.47,66.75a3.13,3.13,0,0,0-4.2,1.4l-1.1,2.2a3.13,3.13,0,1,0,5.6,2.8l1.1-2.2A3.13,3.13,0,0,0,62.47,66.75Z"/><path class="cls-4" d="M41.14,56.08a3.13,3.13,0,0,0-4.2,1.4l-1.1,2.2a3.13,3.13,0,1,0,5.6,2.8l1.1-2.2A3.13,3.13,0,0,0,41.14,56.08Z"/><path class="cls-4" d="M57.57,59a3.13,3.13,0,0,0-4.2,1.4l-3.22,6.43a3.13,3.13,0,0,0,5.6,2.8L59,63.22A3.14,3.14,0,0,0,57.57,59Z"/><path class="cls-4" d="M49.93,56.73a3.13,3.13,0,0,0-4.2,1.4l-2.61,5.2a3.13,3.13,0,0,0,5.6,2.8l2.61-5.2A3.13,3.13,0,0,0,49.93,56.73Z"/><path class="cls-4" d="M96.44,34l-20.1,6.69L62.27,37.57v0l-.09,0h0v0l-3.82.77v0l-4.07.86-3.66.74v0l-.09,0L48.31,50.6l.22.06L50.3,51a5.44,5.44,0,0,0,6.41-4.24l.22-1.17L63,45l0-.16a11.11,11.11,0,0,0,3.22,3l0,0,.43.26.07,0,.41.22.11.06.39.19.16.07.36.16.21.08.33.13.27.09.29.1.35.1.23.06.59.14.61.12h.08l.54.08h0l.57.06h0l.6,0h0l9.44,4.72A3.11,3.11,0,0,1,83,55a3.2,3.2,0,0,1,.75.26l4.83,2.42L102.75,53Z"/><rect class="cls-5" x="89.8" y="32.77" width="15.1" height="26.27" transform="translate(-9.51 33.08) rotate(-18.4)"/><polygon class="cls-6" points="97.59 65.04 127 55.03 116.77 24.29 87.35 34.3 97.59 65.04"/><rect class="cls-7" x="15.21" y="38.47" width="26.65" height="15.32" transform="translate(-24.24 58.63) rotate(-71.59)"/><polygon class="cls-8" points="28.45 65.04 0 55.7 10.23 24.96 38.69 34.3 28.45 65.04"/><circle class="cls-7" cx="25.56" cy="59.27" r="1.82"/><circle class="cls-8" cx="101.19" cy="58.67" r="1.82"/></g></g></g></svg>