<svg xmlns="http://www.w3.org/2000/svg" xmlns:xlink="http://www.w3.org/1999/xlink" viewBox="0 0 106 114.5"><defs><style>.cls-1{fill:none;}.cls-2{fill:#099;}.cls-3{fill:#484f59;}.cls-4{fill:#30363d;}.cls-5{fill:#cdd5d7;}.cls-6{fill:#d1ecfb;}.cls-7{fill:#e5e8ec;}.cls-8{clip-path:url(#clip-path);}.cls-9{fill:#fff;}.cls-10{fill:#424953;}.cls-11{fill:#ff876c;}.cls-12{fill:#01bacc;}.cls-13{fill:#b7bec0;}.cls-14{fill:#f7f8fc;}.cls-15{fill:#969696;}</style><clipPath id="clip-path"><path class="cls-1" d="M53,104.35c-29.22,0-53-23.41-53-52.17S23.78,0,53,0s53,23.41,53,52.17S82.22,104.35,53,104.35Z"/></clipPath></defs><title>Asset 1</title><g id="Layer_2" data-name="Layer 2"><g id="Layer_4" data-name="Layer 4"><path class="cls-2" d="M53,104.35c-29.22,0-53-23.41-53-52.17S23.78,0,53,0s53,23.41,53,52.17S82.22,104.35,53,104.35Z"/><path class="cls-3" d="M53.27,12.32a25.2,25.2,0,1,0,25.2,25.2A25.23,25.23,0,0,0,53.27,12.32Z"/><path class="cls-4" d="M54.38,12.35A25.2,25.2,0,0,1,43.51,60.27l-1.11,0a25.2,25.2,0,1,0,12-47.9Z"/><path class="cls-5" d="M77.37,44.37c-.33,0-.76.17-.77.28S76.14,45,76,45a2,2,0,0,0-.51.68c-.06.16-.44.11-.57.17s-.42.29-.43.43-.08.12-.17,0l-.18.19-.21.24a2,2,0,0,1-.67.92c-.14,0-.17.72-.17,1a1.27,1.27,0,0,0,.24.75l0,.22,0,.43a.78.78,0,0,0,.25.69,3.51,3.51,0,0,0,.94-.17,1.49,1.49,0,0,0,.34-.14,25.08,25.08,0,0,0,2.6-6Z"/><path class="cls-5" d="M35.77,45c0,.07.41.53.59.69A4.55,4.55,0,0,1,37,46.86a1.87,1.87,0,0,1,0,.75c0,.09.08.3.1.39A6.63,6.63,0,0,0,37,49.13c.07.3-.35,1.23-.34,1.69s.22,1.07.3,1,.11.42,0,.47-.31.42-.22.44,0,.38,0,.53.14,1.11.17,1.34a7.16,7.16,0,0,0,.44,1c.07.2.14.57.17.63a.72.72,0,0,0,.06.12,2.37,2.37,0,0,1,.36.16,2.31,2.31,0,0,0,.8,0c.17,0,0-.2-.07-.29s-.15-.51-.24-.56-.13-.58-.05-.7.41-.31.44-.42,0-.57,0-.64,0-.64,0-.92.49-.54.53-.77.64-.47.78-.58a1.42,1.42,0,0,0,.19-.9c-.07-.14.22-.25.35-.25a1.8,1.8,0,0,0,.32-.09s.2-.29.29-.36.26-.75.4-.86a1.16,1.16,0,0,0,.28-.64,2,2,0,0,1,.31-.59,3.32,3.32,0,0,1,.74-.41,4.69,4.69,0,0,0,.3-1.27,8,8,0,0,1,.22-.87c0-.11.19-.2.22-.23a5.75,5.75,0,0,1,.26-.55,2.75,2.75,0,0,0,.41-.58,3.88,3.88,0,0,1,.1-.5V43c-.1-.28-.41-.62-.48-.54s-.43-.24-.61-.31A3.57,3.57,0,0,0,42.6,42c-.11,0-.5-.32-.68-.37a7.2,7.2,0,0,1-.7-.19c-.08-.05-.19-.71-.55-.93a3.91,3.91,0,0,1-1.06-.91c-.07-.18-.76-.57-1-.69a.85.85,0,0,0-.57-.1s-.31-.36-.45-.47-.55-.2-.57-.1-.29,0-.36,0-.27,0-.37.07-.44.55-.6.68-.35-.12-.45-.16a1.15,1.15,0,0,0-.61.15c-.11.08-.36-.55-.3-.84s-.26-.87-.5-.88-.32-.62-.27-.84S33.15,36,33,36s-.43.29-.48.45-1.17-.21-1-.87a3.13,3.13,0,0,1,.79-1.44,2,2,0,0,1,1,0,.26.26,0,0,0,.33,0,2.13,2.13,0,0,1,.79.08c.18.07.42.75.6.83s.25-.44.28-.56a1.35,1.35,0,0,0-.13-.54,1.83,1.83,0,0,1,.56-1,1.29,1.29,0,0,0,.54-.68c0-.08.22-.14.28-.18s0-.69.1-.84a3.12,3.12,0,0,1,.79-.51.63.63,0,0,0,.23-.56c-.06-.07.42-.48.67-.56s.46.14.4.18.39-.2.54-.3,0-.42-.11-.51,0-.45.09-.48.25-.34.21-.41.55.05.77-.11.06.39-.1.62a.25.25,0,0,0,.22.39c.1,0,.21.12.24.18s.24-.07.39,0,.23-.2.25-.32-.35-.37-.41-.52A9.14,9.14,0,0,1,40.74,27c0-.17-.24-.46-.32-.41s-.23-.46-.35-.56a.63.63,0,0,1-.15-.43c0-.08-.41-.52-.51-.72s-.24-.16-.25-.07-.3.11-.42.1-.22-.47-.22-.65-.54-.21-.63-.35-.44-.07-.5-.17a.55.55,0,0,0-.43-.15c-.06,0,0,1.29-.09,1.63s-.35.64-.45.63,0,.24,0,.22-.2.37-.24.63-.3,0-.34-.25-.3-.55-.34-.47-.23-.1-.3,0-.56-.28-.75-.39-.3-.7-.41-.75,0-.12,0-.21.38-.44.49-.57a7.28,7.28,0,0,1,.69-.8.72.72,0,0,0,.27-.49,4.52,4.52,0,0,1,.91-.35c.2-.07.37-.62.4-.78a.67.67,0,0,0-.21-.5c-.09,0,.28-.05.4,0s.5-.11.65,0,.45.26.67.4l0,.41-.09.69c-.58.24-.74.66-.54.65a4.8,4.8,0,0,1,1.39.59c.26.19.34-.27.42-.42a1.11,1.11,0,0,0,0-.68c-.06-.09.3-.06.41,0s.22-.1.3-.14.12-.41.16-.49-.18-.15-.18-.25-.42-.28-.56-.34-.17-.35-.1-.4,0-.41-.11-.54-.5-.22-.64-.22-.29-.34-.38-.38a2.24,2.24,0,0,0-.78-.07c-.14,0-.39-.39-.62-.26s-.48-.16-.58-.21-.65.53-.65.94a1.13,1.13,0,0,0,.3.82c.09,0,0,.39-.11.49s-.33-.12-.24-.21-.24-.52-.35-.7a1.36,1.36,0,0,0-.56-.32l-.33.37a.93.93,0,0,1,0,.49c-.08.25-.29.29-.31.18s-.11-.09-.24-.1a25.1,25.1,0,0,0-5.67,13.17,1.42,1.42,0,0,1,.29.42c.07.22.45.36.53.41s.1-.42,0-.55.09-.2.09-.1a3.28,3.28,0,0,0,.48.65c.12.15.25,1.11.36,1.31a4.53,4.53,0,0,0,1.58.71,1.91,1.91,0,0,1,.88.59c.07.12.54.17.65.22s.34.37.44.43a.55.55,0,0,1,.18.31c0,.05.63.29.78.46a.34.34,0,0,0,.45.05c0-.07.17.33.24.47a.91.91,0,0,1,0,.54,7.38,7.38,0,0,1-.24.81,3.26,3.26,0,0,0-.28,1.22,1.44,1.44,0,0,0,.47.61.15.15,0,0,1,0,.26c-.1,0-.06.89.18,1A.88.88,0,0,1,35.77,45Z"/><path class="cls-5" d="M38.73,29.67h0S38.72,29.67,38.73,29.67Z"/><path class="cls-5" d="M37,19a2.46,2.46,0,0,0,.84-.22.53.53,0,0,0,0-.35H38c.11,0,.3-.63.42-.78a6.09,6.09,0,0,1,1-.46,6.9,6.9,0,0,1,.66-.48c.14,0,.34-.37.31-.43s.47-.37.66-.45.29-.3.21-.31-1.1.55-2.06,1.09A25.31,25.31,0,0,0,36,19.15C36.35,19.13,36.81,19.07,37,19Z"/><path class="cls-5" d="M55.24,50.4a9.21,9.21,0,0,0,1-1.17,2.7,2.7,0,0,0,.35-.92.89.89,0,0,1,.41-.38c.11,0,.43-1.39.72-1.69A4.9,4.9,0,0,0,58.35,44a7.22,7.22,0,0,1,.25-1.74,2.35,2.35,0,0,1,.54-.74,16.69,16.69,0,0,0,1-1.48,3.28,3.28,0,0,0,.39-1.36c0-.19-.52-.32-.61-.23a1.62,1.62,0,0,1-.69.17c-.15,0-.48-.78-.69-.94s-.39-1-.51-1.22a8.35,8.35,0,0,0-.55-.69c-.1-.1-.12-.57-.15-.7s.2.08.24.27a8.7,8.7,0,0,0,.74,1.2c.17.26.6,1.07.71,1.32s1.08.13,1.39,0a2,2,0,0,0,.72-.49c0-.09.51-.32.65-.43s.26-.69.35-.79-.07-.65-.18-.82a.88.88,0,0,0-.71-.23c-.1.07-.32-.37-.4-.53s-.46-.36-.5-.47.1-.28.16-.32a3.22,3.22,0,0,1,1,.71,5.22,5.22,0,0,1,.48.78,1,1,0,0,0,.72,0,.2.2,0,0,1,.32.05l.18,0,.62-.1a1.27,1.27,0,0,1,.37.65.61.61,0,0,0,.3.34c.12,0,.21.43.24.53a10.21,10.21,0,0,1,.46,1,5.88,5.88,0,0,0,.44.88,2.09,2.09,0,0,1,.13.62.46.46,0,0,0,.36.3c.14,0,.42-.89.49-1.22a.93.93,0,0,1,.35-.6c.07,0,.12-.18.12-.25s.36-.06.39-.15.13-.67.26-.76a5.27,5.27,0,0,1,.74-.44c.16-.06.56.29.65.46a1.4,1.4,0,0,1,.14.64c0,.07.21.42.43.42s.28.27.29.37.29.39.35.52a1.11,1.11,0,0,1,0,.56,1.94,1.94,0,0,0,0,.67,6.25,6.25,0,0,0,.95,1c.25.2.36-.42.24-.61s-.56-.64-.66-.77a1.61,1.61,0,0,1-.08-.82c0-.15.38.09.52.19a1.1,1.1,0,0,1,.33.43c0,.08.89-.41.92-1a5.8,5.8,0,0,1,.36-1.29c0-.14-.09-.34-.16-.34s.13-.41.38-.41.84-.66,1-.92a2,2,0,0,1,.46-.51,4.83,4.83,0,0,0,.27-.92,2.72,2.72,0,0,0-.17-.79,2.57,2.57,0,0,0-.29-.54,1.14,1.14,0,0,1-.07-.53c0-.07.26-.14.28-.2s.28-.33.26-.46.16.16.28.26.24.74.39.81.73-.68.66-1.17A1.51,1.51,0,0,1,76.51,30a3.14,3.14,0,0,0,.57-.72,25.2,25.2,0,0,0-6.2-9.78h-.1l-.22,0c-.36-.08-.57-.46-.51-.55a.26.26,0,0,0,0-.17l-.62-.54H69a2,2,0,0,1-.77-.25c-.09-.08-.37.08-.39.23s-.51.23-.56.35a.26.26,0,0,1-.35.06c-.05-.07-.51.16-.73.2a3.91,3.91,0,0,0-.76.26,1.21,1.21,0,0,0-.38.38c0,.1-.33.26-.42.3s-.07.46,0,.52-.22,0-.37-.13-.32.18-.37.27-.19-.05-.18-.18-.38-.23-.43-.13-.32,0-.42-.09-.59.44-.76.61a2.06,2.06,0,0,1-1.17.25c-.16-.06-.31.38-.18.4s-.34,0-.6,0a4.23,4.23,0,0,0-1.2.46.2.2,0,0,1-.33-.13c0-.11-.29-.2-.38-.23s-.25.57-.4.68-.33-.46-.69-.56S56.26,21,56.11,21a2.21,2.21,0,0,1-.56-.47,1.59,1.59,0,0,0-.69-.18,2.27,2.27,0,0,0-.74.38c-.12.11-.32.09-.38.12s-.59.56-.8.72a6.43,6.43,0,0,0-.68,1,.5.5,0,0,1-.36.2c-.07,0-.12.19-.12.26s-.61.39-.67.66a6.5,6.5,0,0,0,.06,1.14c0,.22.22.67.39.68s.08.38,0,.48.11.22.1.31-.43.21-.56.26a1,1,0,0,0-.37.45c0,.1-.43.16-.57.3a3.16,3.16,0,0,1,.11-.3.49.49,0,0,0-.09-.46c-.07-.05-.1-.79-.2-.94a3.27,3.27,0,0,0-.42-.48c-.06-.05,0-.24.08-.33s-.34-.13-.45-.07-.16.78-.2,1a.65.65,0,0,0,.25.52c.06,0,0,.37-.09.38s-.25.53-.19.65-.1.35-.17.41.51,0,.78,0,.48.11.45.13-.51.1-.6.21-.42.34-.48.43.11.28.25.27.3.48.41.58.07.34,0,.42-.71-.05-1,0-.56.59-.58.79a4.84,4.84,0,0,0,.07.93c0,.16.55.25.66.33s.61,0,.71.05.44-.51.51-.76.6-.73.71-.91.68-.15.82-.25.06.44.13.72.62.25.54,0,.05-.39.08-.29.55.31.65.46.07.48,0,.47-.12.36,0,.4.29-.41.42-.47.24-.34.18-.36.11-.27.19-.19a3.21,3.21,0,0,0-.51-.76c-.22-.23-.07-.13.35.22l.29.4c.06.07.13.29.18.38l.07.12a2.76,2.76,0,0,1,.11.64.45.45,0,0,0,.36.3c.13,0,.24.06.21.07s.09.28.23.28.2-.35.06-.36-.12-.52-.13-.74.1-.41.15-.41,0,.46,0,.57a1.49,1.49,0,0,0,.13.46l.14.11.32.24c.46-.13,1.07,0,1,.06s.34.12.36,0,0,0,0,.11-.3.51-.35.7-1.1.06-1.55,0-1.13.12-1.18.26S53.31,33,53,32.9s-.58-.63-.64-.69.06-.23,0-.32-.77-.12-1,0-1.33.2-1.59.31a1.44,1.44,0,0,1-.79,0c-.12,0-.42.34-.56.41A2,2,0,0,0,48,33.68l-.2.39-.13.25a5.78,5.78,0,0,0-.89,1.4,9,9,0,0,0-.21,2,6.21,6.21,0,0,0,.51,1.67,3.93,3.93,0,0,0,1,1,3.65,3.65,0,0,0,1.21.15.74.74,0,0,0,.61-.51l.35,0h.16c0,.2.53.36.66.43a1.15,1.15,0,0,0,.58,0c.1,0,.22.89.15,1.16a5.09,5.09,0,0,0,.25,1.49c.08.29.4,1.06.43,1.33A12.94,12.94,0,0,1,52.28,46a5.88,5.88,0,0,0,.52,1.54A5.17,5.17,0,0,1,53,48.64c0,.16.48,1.09.59,1.47S54.91,50.59,55.24,50.4Z"/><path class="cls-5" d="M76,39c0,.07.33-.17.52-.2s.29-.52.16-.55-.32-.42-.43-.46-.3.16-.29.31-.33.21-.39.33-.06.21,0,.2S76,38.89,76,39Z"/><path class="cls-5" d="M75.64,41.61c.09,0,0-.52-.2-.56s-.71.63-.61,1,.21.36.26.28.36.05.46.08.09-.06,0-.21A.7.7,0,0,1,75.64,41.61Z"/><path class="cls-5" d="M74.6,41.14c0-.17.06-.71.08-.81s-.29-.42-.45-.47-.67,1-1,1.24a1,1,0,0,0-.4,1c.1.15.86.24,1,.35s.28,0,.36,0,.06-.07,0-.09.27-.33.31-.53S74.58,41.31,74.6,41.14Z"/><path class="cls-5" d="M72.54,43a.57.57,0,0,0-.65.17c0,.11,1.1.29,1.47.39s.61.14.52.07S72.82,43.08,72.54,43Z"/><path class="cls-5" d="M74.82,35.64c.09-.13-.13-.72-.23-.58s0,.48,0,.6S74.73,35.77,74.82,35.64Z"/><path class="cls-5" d="M75.5,36.91c.07-.15-.08-.32-.33-.37s-.21.68-.1.78S75.44,37.06,75.5,36.91Z"/><path class="cls-5" d="M76.77,41.45c.29.2.94.11,1-.29C77.45,41,76.75,41,76.77,41.45Z"/><path class="cls-5" d="M76.61,32.46a.41.41,0,0,0-.15.39h-.05c-.1,0-.11.38,0,.45s.34-.3.48-.39a.72.72,0,0,1,.42-.11,1.13,1.13,0,0,0,.5-.15.39.39,0,0,0,.14-.17c-.06-.28-.12-.56-.19-.84l-.32.24C77.31,32,76.77,32.35,76.61,32.46Z"/><path class="cls-5" d="M70,40.19h0C69.9,40.16,69.9,40.15,70,40.19Z"/><path class="cls-5" d="M71.77,41.88A3.1,3.1,0,0,0,71,41l-.12-.2-.13-.22c-.12-.24-.48-.43-.51-.5s-.15.21-.27.13l.39.28a17.21,17.21,0,0,1,1.14,2C71.63,42.59,71.87,42.12,71.77,41.88Z"/><path class="cls-5" d="M66.57,39.23c-.09.18.48.58.53.49a1.11,1.11,0,0,0-.18-.65C66.82,39,66.66,39,66.57,39.23Z"/><path class="cls-5" d="M59,48c0,.19.42.35.53.32a2.21,2.21,0,0,0,.48-.79A4,4,0,0,0,60,46.9c0-.09.05-.28.1-.3a1.1,1.1,0,0,0,.16-.45,13.55,13.55,0,0,0-.25-1.44c0-.19-.21.09-.26.28s-.57.56-.69.72a1.55,1.55,0,0,0-.19.78,1.18,1.18,0,0,1-.1.55A5.45,5.45,0,0,0,59,48Z"/><path class="cls-5" d="M40.38,55.16h.35C40.78,54.79,40.36,54.85,40.38,55.16Z"/><path class="cls-5" d="M49.61,16.17A1.16,1.16,0,0,1,49,16a1.48,1.48,0,0,0-.79-.06c-.16.07,0-.4.17-.45s0-.37-.2-.37-.84-.09-1-.06-.41-.1-.51-.11a10.48,10.48,0,0,1-1.15.2,8.14,8.14,0,0,0-1.34.07c-.18,0-.31.4-.29.52s-.8.12-1.06.13a8.44,8.44,0,0,0-2,.5c-.36.19-.64.71-.52.71s-.2.3-.4.37-.66.1-.77.21.12.18.16.26.17-.07.29,0a5.64,5.64,0,0,0,.64.14c.11,0-.34.13-.56.14s-.16.43,0,.49.62.12.66,0,.53.08.75.1.38.57.45.69a1.81,1.81,0,0,1,.07.66c0,.12.38.34.45.26s.05.19-.11.18-.06.45.14.51.06.35-.05.44,0,.36-.17.46.41,1,.41,1.49.3.86.41.86.5.09.55.2.24-.07.31-.15a3.28,3.28,0,0,0,.35-.5,12.62,12.62,0,0,0,.43-1.25c0-.1.48,0,.58-.09s.39-.28.47-.35.72-.34.89-.46.46-.66.6-.78-.07-.08-.24-.19a.18.18,0,0,1,0-.3,2,2,0,0,1,.74.15c.18.07.51-.17.39-.27s-.06-.09,0-.05.13-.31.06-.37.51-.5.41-.9.16-.82.32-.82.11-.46-.08-.5,0-.08.06-.15a1,1,0,0,0,.12-.54c0-.08.29-.16.34-.26a1.56,1.56,0,0,1,.57-.3C49.68,16.51,49.76,16.16,49.61,16.17Z"/><path class="cls-5" d="M52.89,16.51c-.18-.06-.54.14-.5.25s-.3-.14-.53,0-.31.54-.2.6.19.39.19.45.46,0,.58-.08.1.34,0,.46,0,.35.17.37.3.32.43.32.36-.51.41-.7.49,0,.69,0,.28-.7.06-.82-.49-.06-.58-.14a.74.74,0,0,0-.35-.18C53.17,17,53.07,16.56,52.89,16.51Z"/><path class="cls-5" d="M54.65,16.87a1.22,1.22,0,0,0,.84-.33c.09-.08-1-.3-1.39-.31s-.73,0-.73.12A4,4,0,0,0,54.65,16.87Z"/><path class="cls-5" d="M48.16,26.49c-.09,0-.15.31-.12.45s.35.12.49.1a.27.27,0,0,0,.25-.25c0-.12-.21-.64-.29-.64S48.26,26.52,48.16,26.49Z"/><path class="cls-5" d="M49.22,22.4c-.07-.13-.63-.11-.77-.12a1.6,1.6,0,0,1-.63-.24c-.08-.09-.14.34-.26.4s.06.14.11.09,0,.22-.06.31.37.16.42.3a.35.35,0,0,0,.39.2c.17,0,.5-.2.62-.21S49.29,22.53,49.22,22.4Z"/><path class="cls-5" d="M60.93,19.2c.19-.19,1-.45,1.07-.65a.25.25,0,0,0-.13-.36.32.32,0,0,0-.2.13s-.92.25-1.2.38a3.25,3.25,0,0,0-.72.46,10.53,10.53,0,0,0-.37,1.11c-.07.1.3.47.46.57a.62.62,0,0,0,.45,0,2.29,2.29,0,0,0-.17-.87C60,19.79,60.74,19.39,60.93,19.2Z"/><path class="cls-5" d="M60,16.87c.3.29.46-.13.79-.09C60.74,16.17,59.93,16.38,60,16.87Z"/><path class="cls-5" d="M65.75,17c0,.11.82.2,1.07.15s0-.42-.4-.4S65.76,16.87,65.75,17Z"/><path class="cls-5" d="M35.6,23.15c-.09.08,0,.49.15.5s.43-.61.64-.49.34.17.31.11A6.16,6.16,0,0,0,36,22.9C35.94,22.86,35.69,23.07,35.6,23.15Z"/><path class="cls-5" d="M37.73,37c0,.07.36.06.42-.05s0-.2-.07-.2S37.73,36.91,37.73,37Z"/><path class="cls-5" d="M36.12,36.38c.17,0,.09.25.13.35s.46.18.54.25.3-.13.46-.11-.06-.58-.33-.56-.5-.25-.57-.29a4.38,4.38,0,0,1-.48-.3,4,4,0,0,0-1-.14.78.78,0,0,0-.54.32c0,.08.38.14.5.07a1.2,1.2,0,0,1,.8.21A.63.63,0,0,0,36.12,36.38Z"/><path class="cls-5" d="M35.36,37c0,.07.37,0,.45,0s.09-.06,0-.13S35.36,36.91,35.36,37Z"/><path class="cls-5" d="M35.61,35.09c-.1,0-.17.11-.17.18a.12.12,0,0,0,.12.13C35.62,35.4,35.71,35.13,35.61,35.09Z"/><path class="cls-5" d="M36.39,35.15a.37.37,0,0,0-.24-.13c-.05,0-.08.12-.07.27S36.42,35.22,36.39,35.15Z"/><path class="cls-5" d="M36.94,36c.15-.07.17-.25.08-.24s-.25-.26-.35-.29-.17.16-.17.25.06.15.12.13S36.79,36.07,36.94,36Z"/><path class="cls-5" d="M77.87,41.76c-.08,0-.44.09-.5,0s-.12.15-.2.18,0,.23.08.17.43.15.72.33c.06-.28.11-.56.15-.85Z"/><path class="cls-6" d="M37.85,18.53s-.13.05-.08.1S37.89,18.58,37.85,18.53Z"/><path class="cls-6" d="M40.64,26.84s-.13.05-.09.1S40.69,26.89,40.64,26.84Z"/><path class="cls-7" d="M43.91,44.65a2.75,2.75,0,0,0,.41-.58,3.88,3.88,0,0,1,.1-.5V43c-.1-.28-.41-.62-.48-.54s-.43-.24-.61-.31A3.57,3.57,0,0,0,42.6,42c-.11,0-.5-.32-.68-.37a7.2,7.2,0,0,1-.7-.19c-.08-.05-.19-.71-.55-.93a3.91,3.91,0,0,1-1.06-.91c-.07-.18-.76-.57-1-.69a.85.85,0,0,0-.57-.1s-.31-.36-.45-.47-.55-.2-.57-.1-.29,0-.36,0-.27,0-.37.07-.44.55-.6.68-.35-.12-.45-.16a1.15,1.15,0,0,0-.61.15c-.11.08-.36-.55-.3-.84s-.26-.87-.5-.88-.32-.62-.27-.84S33.15,36,33,36s-.43.29-.48.45-1.17-.21-1-.87a3.13,3.13,0,0,1,.79-1.44,2,2,0,0,1,1,0,.26.26,0,0,0,.33,0,2.13,2.13,0,0,1,.79.08c.18.07.42.75.6.83s.25-.44.28-.56a1.35,1.35,0,0,0-.13-.54,1.83,1.83,0,0,1,.56-1,1.29,1.29,0,0,0,.54-.68c0-.08.22-.14.28-.18s0-.69.1-.84a3.12,3.12,0,0,1,.79-.51.63.63,0,0,0,.23-.56c-.06-.07.42-.48.67-.56s.46.14.4.18.39-.2.54-.3,0-.42-.11-.51,0-.45.09-.48.25-.34.21-.41.55.05.77-.11.06.39-.1.62a.25.25,0,0,0,.22.39c.1,0,.21.12.24.18s.24-.07.39,0,.23-.2.25-.32-.35-.37-.41-.52A9.14,9.14,0,0,1,40.74,27c0-.17-.24-.46-.32-.41s-.23-.46-.35-.56a.63.63,0,0,1-.15-.43c0-.08-.41-.52-.51-.72s-.24-.16-.25-.07-.3.11-.42.1-.22-.47-.22-.65-.54-.21-.63-.35-.44-.07-.5-.17a.55.55,0,0,0-.43-.15c-.06,0,0,1.29-.09,1.63s-.35.64-.45.63,0,.24,0,.22-.2.37-.24.63-.3,0-.34-.25-.3-.55-.34-.47-.23-.1-.3,0-.56-.28-.75-.39-.3-.7-.41-.75,0-.12,0-.21.38-.44.49-.57a7.28,7.28,0,0,1,.69-.8.72.72,0,0,0,.27-.49,4.52,4.52,0,0,1,.91-.35c.2-.07.37-.62.4-.78a.67.67,0,0,0-.21-.5c-.09,0,.28-.05.4,0s.5-.11.65,0,.45.26.67.4l0,.41-.09.69c-.58.24-.74.66-.54.65a4.8,4.8,0,0,1,1.39.59c.26.19.34-.27.42-.42a1.11,1.11,0,0,0,0-.68c-.06-.09.3-.06.41,0s.22-.1.3-.14.12-.41.16-.49-.18-.15-.18-.25-.42-.28-.56-.34-.17-.35-.1-.4,0-.41-.11-.54-.5-.22-.64-.22-.29-.34-.38-.38a2.24,2.24,0,0,0-.78-.07c-.14,0-.39-.39-.62-.26s-.48-.16-.58-.21-.65.53-.65.94a1.13,1.13,0,0,0,.3.82c.09,0,0,.39-.11.49s-.33-.12-.24-.21-.24-.52-.35-.7a1.36,1.36,0,0,0-.56-.32l-.33.37a.93.93,0,0,1,0,.49c-.08.25-.29.29-.31.18s-.11-.09-.24-.1a25.1,25.1,0,0,0-5.67,13.17,1.42,1.42,0,0,1,.29.42c.07.22.45.36.53.41s.1-.42,0-.55.09-.2.09-.1a3.28,3.28,0,0,0,.48.65c.12.15.25,1.11.36,1.31a4.53,4.53,0,0,0,1.58.71,1.91,1.91,0,0,1,.88.59c.07.12.54.17.65.22s.34.37.44.43a.55.55,0,0,1,.18.31c0,.05.63.29.78.46a.34.34,0,0,0,.45.05c0-.07.17.33.24.47a.91.91,0,0,1,0,.54,7.38,7.38,0,0,1-.24.81,3.26,3.26,0,0,0-.28,1.22,1.44,1.44,0,0,0,.47.61.15.15,0,0,1,0,.26c-.1,0-.06.89.18,1a.88.88,0,0,1,.4.58c0,.07.41.53.59.69A4.55,4.55,0,0,1,37,46.86a1.87,1.87,0,0,1,0,.75c0,.09.08.3.1.39A6.63,6.63,0,0,0,37,49.13c.07.3-.35,1.23-.34,1.69s.22,1.07.3,1,.11.42,0,.47-.31.42-.22.44,0,.38,0,.53.14,1.11.17,1.34a7.16,7.16,0,0,0,.44,1c.07.2.14.57.17.63a.72.72,0,0,0,.06.12,2.37,2.37,0,0,1,.36.16,2.31,2.31,0,0,0,.8,0c.17,0,0-.2-.07-.29s-.15-.51-.24-.56-.13-.58-.05-.7.41-.31.44-.42,0-.57,0-.64,0-.64,0-.92.49-.54.53-.77.64-.47.78-.58a1.42,1.42,0,0,0,.19-.9c-.07-.14.22-.25.35-.25a1.8,1.8,0,0,0,.32-.09s.2-.29.29-.36.26-.75.4-.86a1.16,1.16,0,0,0,.28-.64,2,2,0,0,1,.31-.59,3.32,3.32,0,0,1,.74-.41,4.69,4.69,0,0,0,.3-1.27,8,8,0,0,1,.22-.87c0-.11.19-.2.22-.23A5.75,5.75,0,0,1,43.91,44.65Z"/><path class="cls-7" d="M38.73,29.66h0Z"/><path class="cls-7" d="M38.39,17.7a6.09,6.09,0,0,1,1-.46,6.9,6.9,0,0,1,.66-.48c.14,0,.34-.37.31-.43s.47-.37.66-.45.29-.3.21-.31-1.1.55-2.06,1.09A25.31,25.31,0,0,0,36,19.15c.3,0,.77-.08,1-.11a2.46,2.46,0,0,0,.84-.22.53.53,0,0,0,0-.35H38C38.08,18.48,38.27,17.85,38.39,17.7Z"/><path class="cls-7" d="M63.94,20.36l0,0c0,.09-.19-.05-.18-.18s-.38-.23-.43-.13-.32,0-.42-.09-.59.44-.76.61a2.06,2.06,0,0,1-1.17.25c-.16-.06-.31.38-.18.4s-.34,0-.6,0a4.23,4.23,0,0,0-1.2.46.2.2,0,0,1-.33-.13c0-.11-.29-.2-.38-.23s-.25.57-.4.68-.33-.46-.69-.56S56.26,21,56.11,21a2.21,2.21,0,0,1-.56-.47,1.59,1.59,0,0,0-.69-.18,2.27,2.27,0,0,0-.74.38c-.12.11-.32.09-.38.12s-.59.56-.8.72a6.43,6.43,0,0,0-.68,1,.5.5,0,0,1-.36.2c-.07,0-.12.19-.12.26s-.61.39-.67.66a6.5,6.5,0,0,0,.06,1.14c0,.22.22.67.39.68s.08.38,0,.48.11.22.1.31-.43.21-.56.26a1,1,0,0,0-.37.45c0,.1-.43.16-.57.3a3.16,3.16,0,0,1,.11-.3.49.49,0,0,0-.09-.46c-.07-.05-.1-.79-.2-.94a3.27,3.27,0,0,0-.42-.48c-.06-.05,0-.24.08-.33s-.34-.13-.45-.07-.16.78-.2,1a.65.65,0,0,0,.25.52c.06,0,0,.37-.09.38s-.25.53-.19.65-.1.35-.17.41.51,0,.78,0,.48.11.45.13-.51.1-.6.21-.42.34-.48.43.11.28.25.27.3.48.41.58.07.34,0,.42-.71-.05-1,0-.56.59-.58.79a4.84,4.84,0,0,0,.07.93c0,.16.55.25.66.33s.61,0,.71.05.44-.51.51-.76.6-.73.71-.91.68-.15.82-.25.06.44.13.72.62.25.54,0,.05-.39.08-.29.55.31.65.46.07.48,0,.47-.12.36,0,.4.29-.41.42-.47.24-.34.18-.36.11-.27.19-.19a3.21,3.21,0,0,0-.51-.76c-.22-.23-.07-.13.35.22l.29.4c.06.07.13.29.18.38l.07.12a2.76,2.76,0,0,1,.11.64.45.45,0,0,0,.36.3c.13,0,.24.06.21.07s.09.28.23.28.2-.35.06-.36-.12-.52-.13-.74.1-.41.15-.41,0,.46,0,.57a1.49,1.49,0,0,0,.13.46l.14.11.32.24c.46-.13,1.07,0,1,.06s.34.12.36,0,0,0,0,.11-.3.51-.35.7-1.1.06-1.55,0-1.13.12-1.18.26S53.31,33,53,32.9s-.58-.63-.64-.69.06-.23,0-.32-.77-.12-1,0-1.33.2-1.59.31a1.44,1.44,0,0,1-.79,0c-.12,0-.42.34-.56.41A2,2,0,0,0,48,33.68l-.2.39-.13.25a5.78,5.78,0,0,0-.89,1.4,9,9,0,0,0-.21,2,6.21,6.21,0,0,0,.51,1.67,3.93,3.93,0,0,0,1,1,3.65,3.65,0,0,0,1.21.15.74.74,0,0,0,.61-.51l.35,0h.16c0,.2.53.36.66.43a1.15,1.15,0,0,0,.58,0c.1,0,.22.89.15,1.16a5.09,5.09,0,0,0,.25,1.49c.08.29.4,1.06.43,1.33A12.94,12.94,0,0,1,52.28,46a5.88,5.88,0,0,0,.52,1.54A5.17,5.17,0,0,1,53,48.64c0,.16.48,1.09.59,1.47s1.31.48,1.64.29a9.21,9.21,0,0,0,1-1.17,2.7,2.7,0,0,0,.35-.92.89.89,0,0,1,.41-.38c.11,0,.43-1.39.72-1.69A4.9,4.9,0,0,0,58.35,44a7.22,7.22,0,0,1,.25-1.74,2.35,2.35,0,0,1,.54-.74,16.69,16.69,0,0,0,1-1.48,3.28,3.28,0,0,0,.39-1.36c0-.19-.52-.32-.61-.23a1.62,1.62,0,0,1-.69.17c-.15,0-.48-.78-.69-.94s-.39-1-.51-1.22a8.35,8.35,0,0,0-.55-.69c-.1-.1-.12-.57-.15-.7s.2.08.24.27a8.7,8.7,0,0,0,.74,1.2c.17.26.6,1.07.71,1.32s1.08.13,1.39,0a2,2,0,0,0,.72-.49c0-.09.51-.32.65-.43s.26-.69.35-.79-.07-.65-.18-.82a.88.88,0,0,0-.71-.23c-.1.07-.32-.37-.4-.53s-.46-.36-.5-.47.1-.28.16-.32a3.22,3.22,0,0,1,1,.71,5.22,5.22,0,0,1,.48.78,1,1,0,0,0,.72,0,.2.2,0,0,1,.32.05l.18,0,.62-.1a1.27,1.27,0,0,1,.37.65.61.61,0,0,0,.3.34c.12,0,.21.43.24.53a10.21,10.21,0,0,1,.46,1,5.88,5.88,0,0,0,.44.88,2.09,2.09,0,0,1,.13.62.46.46,0,0,0,.36.3c.14,0,.42-.89.49-1.22a.93.93,0,0,1,.35-.6c.07,0,.12-.18.12-.25s.36-.06.39-.15.13-.67.26-.76a5.27,5.27,0,0,1,.74-.44.3.3,0,0,1,.21.05c0-.35,0-.69,0-1A25.07,25.07,0,0,0,63.94,20.36Z"/><path class="cls-7" d="M67.09,39.72a1.11,1.11,0,0,0-.18-.65c-.1-.1-.26,0-.35.16S67,39.81,67.09,39.72Z"/><path class="cls-7" d="M59,48c0,.19.42.35.53.32a2.21,2.21,0,0,0,.48-.79A4,4,0,0,0,60,46.9c0-.09.05-.28.1-.3a1.1,1.1,0,0,0,.16-.45,13.55,13.55,0,0,0-.25-1.44c0-.19-.21.09-.26.28s-.57.56-.69.72a1.55,1.55,0,0,0-.19.78,1.18,1.18,0,0,1-.1.55A5.45,5.45,0,0,0,59,48Z"/><path class="cls-7" d="M40.38,55.16h.35C40.78,54.79,40.36,54.85,40.38,55.16Z"/><path class="cls-7" d="M42.87,15.92a8.44,8.44,0,0,0-2,.5c-.36.19-.64.71-.52.71s-.2.3-.4.37-.66.1-.77.21.12.18.16.26.17-.07.29,0a5.64,5.64,0,0,0,.64.14c.11,0-.34.13-.56.14s-.16.43,0,.49.62.12.66,0,.53.08.75.1.38.57.45.69a1.81,1.81,0,0,1,.07.66c0,.12.38.34.45.26s.05.19-.11.18-.06.45.14.51.06.35-.05.44,0,.36-.17.46.41,1,.41,1.49.3.86.41.86.5.09.55.2.24-.07.31-.15a3.28,3.28,0,0,0,.35-.5,12.62,12.62,0,0,0,.43-1.25c0-.1.48,0,.58-.09s.39-.28.47-.35.72-.34.89-.46.46-.66.6-.78-.07-.08-.24-.19a.18.18,0,0,1,0-.3,2,2,0,0,1,.74.15c.18.07.51-.17.39-.27s-.06-.09,0-.05.13-.31.06-.37.51-.5.41-.9.16-.82.32-.82.11-.46-.08-.5,0-.08.06-.15a1,1,0,0,0,.12-.54c0-.08.29-.16.34-.26a1.56,1.56,0,0,1,.57-.3c.13,0,.21-.39.06-.37A1.16,1.16,0,0,1,49,16a1.48,1.48,0,0,0-.79-.06c-.16.07,0-.4.17-.45s0-.37-.2-.37-.84-.09-1-.06-.41-.1-.51-.11a10.48,10.48,0,0,1-1.15.2,8.14,8.14,0,0,0-1.34.07c-.18,0-.31.4-.29.52S43.13,15.91,42.87,15.92Z"/><path class="cls-7" d="M52.6,18.54c.13,0,.3.32.43.32s.36-.51.41-.7.49,0,.69,0,.28-.7.06-.82-.49-.06-.58-.14a.74.74,0,0,0-.35-.18c-.1,0-.19-.47-.37-.52s-.54.14-.5.25-.3-.14-.53,0-.31.54-.2.6.19.39.19.45.46,0,.58-.08.1.34,0,.46S52.47,18.52,52.6,18.54Z"/><path class="cls-7" d="M55.49,16.54c.09-.08-1-.3-1.39-.31s-.73,0-.73.12a4,4,0,0,0,1.29.51A1.22,1.22,0,0,0,55.49,16.54Z"/><path class="cls-7" d="M48.16,26.49c-.09,0-.15.31-.12.45s.35.12.49.1a.27.27,0,0,0,.25-.25c0-.12-.21-.64-.29-.64S48.26,26.52,48.16,26.49Z"/><path class="cls-7" d="M49.22,22.4c-.07-.13-.63-.11-.77-.12a1.6,1.6,0,0,1-.63-.24c-.08-.09-.14.34-.26.4s.06.14.11.09,0,.22-.06.31.37.16.42.3a.35.35,0,0,0,.39.2c.17,0,.5-.2.62-.21S49.29,22.53,49.22,22.4Z"/><path class="cls-7" d="M59.75,19.16a10.53,10.53,0,0,0-.37,1.11c-.07.1.3.47.46.57a.62.62,0,0,0,.45,0,2.29,2.29,0,0,0-.17-.87c-.09-.22.62-.61.81-.81s1-.45,1.07-.65a.25.25,0,0,0-.13-.36.32.32,0,0,0-.2.13s-.92.25-1.2.38A3.25,3.25,0,0,0,59.75,19.16Z"/><path class="cls-7" d="M60,16.87c.3.29.46-.13.79-.09a.31.31,0,0,0,0-.06l-.32-.31A.45.45,0,0,0,60,16.87Z"/><path class="cls-7" d="M35.6,23.15c-.09.08,0,.49.15.5s.43-.61.64-.49.34.17.31.11A6.16,6.16,0,0,0,36,22.9C35.94,22.86,35.69,23.07,35.6,23.15Z"/><path class="cls-7" d="M37.73,37c0,.07.36.06.42-.05s0-.2-.07-.2S37.73,36.91,37.73,37Z"/><path class="cls-7" d="M36.12,36.38c.17,0,.09.25.13.35s.46.18.54.25.3-.13.46-.11-.06-.58-.33-.56-.5-.25-.57-.29a4.38,4.38,0,0,1-.48-.3,4,4,0,0,0-1-.14.78.78,0,0,0-.54.32c0,.08.38.14.5.07a1.2,1.2,0,0,1,.8.21A.63.63,0,0,0,36.12,36.38Z"/><path class="cls-7" d="M35.36,37c0,.07.37,0,.45,0s.09-.06,0-.13S35.36,36.91,35.36,37Z"/><path class="cls-7" d="M35.61,35.09c-.1,0-.17.11-.17.18a.12.12,0,0,0,.12.13C35.62,35.4,35.71,35.13,35.61,35.09Z"/><path class="cls-7" d="M36.39,35.15a.37.37,0,0,0-.24-.13c-.05,0-.08.12-.07.27S36.42,35.22,36.39,35.15Z"/><path class="cls-7" d="M36.94,36c.15-.07.17-.25.08-.24s-.25-.26-.35-.29-.17.16-.17.25.06.15.12.13S36.79,36.07,36.94,36Z"/><g class="cls-8"><rect class="cls-7" x="15.18" y="41.05" width="76.17" height="73.45"/><rect class="cls-5" x="15.18" y="41.05" width="76.17" height="5.47"/><rect class="cls-9" x="42.88" y="42.42" width="45.19" height="2.73"/><circle class="cls-10" cx="18.1" cy="43.78" r="1.09"/><circle class="cls-11" cx="21.56" cy="43.78" r="1.09"/><circle class="cls-12" cx="25.02" cy="43.78" r="1.09"/><rect class="cls-11" x="20.23" y="52.88" width="25.34" height="25.34"/><rect class="cls-13" x="24.5" y="82.25" width="9.68" height="9.68"/><rect class="cls-13" x="36.46" y="82.25" width="9.68" height="9.68"/><rect class="cls-13" x="48.42" y="82.25" width="9.68" height="9.68"/><rect class="cls-13" x="60.39" y="82.25" width="9.68" height="9.68"/><rect class="cls-13" x="72.35" y="82.25" width="9.68" height="9.68"/><rect class="cls-11" x="49.67" y="52.88" width="22.66" height="2.24"/><rect class="cls-13" x="49.67" y="58.7" width="35.25" height="2.23"/><rect class="cls-13" x="49.67" y="62.72" width="35.25" height="2.24"/><rect class="cls-13" x="49.67" y="66.75" width="25.18" height="2.24"/><rect class="cls-11" x="49.67" y="71.63" width="18.33" height="6.26"/><rect class="cls-14" x="53.03" y="74.06" width="11.63" height="1.4"/><polygon class="cls-15" points="20.23 87.09 21.04 86.31 21.86 85.52 21.86 87.09 21.86 88.65 21.04 87.87 20.23 87.09"/><polygon class="cls-15" points="86.56 87.09 85.75 87.87 84.93 88.65 84.93 87.09 84.93 85.52 85.75 86.31 86.56 87.09"/></g></g></g></svg>