<svg xmlns="http://www.w3.org/2000/svg" xmlns:xlink="http://www.w3.org/1999/xlink" viewBox="0 0 106 127.83"><defs><style>.cls-1{fill:#099;}.cls-2{isolation:isolate;}.cls-3{clip-path:url(#clip-path);}.cls-4{fill:#dce4e7;}.cls-5{fill:#cdd5d8;}.cls-6{fill:#30363d;}.cls-7{fill:#484f59;}.cls-8{fill:#b7bec0;}.cls-9{fill:#cdd5d7;}.cls-10{fill:#f7f8fc;}.cls-11{fill:#e5e8ec;}.cls-12{fill:#ffa38f;}.cls-13{fill:#ff876c;}.cls-14{mix-blend-mode:multiply;}.cls-15{fill:#596273;}</style><clipPath id="clip-path"><path class="cls-1" d="M53,104.35c-29.22,0-53-23.41-53-52.17S23.78,0,53,0s53,23.41,53,52.17S82.22,104.35,53,104.35Z"/></clipPath></defs><title>Asset 1</title><g class="cls-2"><g id="Layer_2" data-name="Layer 2"><g id="Layer_4" data-name="Layer 4"><path class="cls-1" d="M53,104.35c-29.22,0-53-23.41-53-52.17S23.78,0,53,0s53,23.41,53,52.17S82.22,104.35,53,104.35Z"/><g class="cls-3"><rect class="cls-4" x="47.09" y="30.14" width="10.11" height="10.83"/><rect class="cls-5" x="47.09" y="30.14" width="10.11" height="5.05"/><path class="cls-6" d="M61.34,31.41a2,2,0,0,1-2,2H44.92a2,2,0,0,1-2-2V22a2,2,0,0,1,2-2H59.36a2,2,0,0,1,2,2Z"/><rect class="cls-7" x="44.64" y="21.66" width="2.36" height="9.74"/><rect class="cls-7" x="48.35" y="21.66" width="1.99" height="9.74"/><rect class="cls-7" x="51.97" y="21.66" width="1.24" height="9.74"/><rect class="cls-4" x="23.04" y="40.61" width="6.29" height="6.74" transform="translate(-18.49 18.99) rotate(-30)"/><rect class="cls-5" x="22.14" y="40.85" width="6.29" height="3.14" transform="translate(-17.82 18.32) rotate(-30)"/><path class="cls-6" d="M29.85,38.88a1.24,1.24,0,0,1-.45,1.69l-7.78,4.49a1.23,1.23,0,0,1-1.69-.45L17,39.55a1.23,1.23,0,0,1,.45-1.69l7.78-4.49a1.23,1.23,0,0,1,1.68.45Z"/><polygon class="cls-7" points="22.12 43.35 20.85 44.08 17.82 38.83 19.09 38.09 22.12 43.35"/><rect class="cls-7" x="21.25" y="36.96" width="1.23" height="6.07" transform="translate(-17.05 16.27) rotate(-29.97)"/><rect class="cls-7" x="23.23" y="35.95" width="0.77" height="6.07" transform="translate(-16.31 17) rotate(-29.96)"/><rect class="cls-4" x="74.73" y="40.84" width="6.74" height="6.29" transform="translate(0.97 89.64) rotate(-60.01)"/><rect class="cls-5" x="77.43" y="39.28" width="3.14" height="6.29" transform="translate(2.78 89.66) rotate(-60.03)"/><path class="cls-6" d="M74.43,38.88a1.23,1.23,0,0,0,.45,1.69l7.78,4.49a1.23,1.23,0,0,0,1.69-.45l2.92-5.06a1.23,1.23,0,0,0-.45-1.69L79,33.37a1.23,1.23,0,0,0-1.69.45Z"/><rect class="cls-7" x="81.28" y="40.35" width="6.07" height="1.46" transform="translate(6.59 93.58) rotate(-60.02)"/><rect class="cls-7" x="79.38" y="39.37" width="6.06" height="1.23" transform="translate(6.51 91.27) rotate(-59.93)"/><polygon class="cls-7" points="78.81 41.41 79.48 41.8 82.52 36.54 81.84 36.16 78.81 41.41"/><circle class="cls-8" cx="52.14" cy="82.09" r="45.75"/><path class="cls-9" d="M52.14,127.83a45.75,45.75,0,0,1,0-91.5Z"/><circle class="cls-10" cx="52.14" cy="82.08" r="38.71"/><path class="cls-11" d="M16.68,83.89A38.71,38.71,0,0,1,72.52,49.17,38.71,38.71,0,1,0,35,116.8,38.68,38.68,0,0,1,16.68,83.89Z"/><path class="cls-12" d="M52.14,43.38l-.59,0V82h39.3A38.71,38.71,0,0,0,52.14,43.38Z"/><path class="cls-13" d="M51.55,43.39v2q1.89-.19,3.84-.19a38.52,38.52,0,0,1,17.13,4,38.5,38.5,0,0,0-20.38-5.8Z"/><g class="cls-14"><rect class="cls-15" x="51.82" y="48.79" width="0.81" height="4.6"/><rect class="cls-5" x="46.44" y="49.25" width="0.81" height="4.6" transform="translate(-8.1 8.74) rotate(-9.82)"/><rect class="cls-5" x="41.22" y="50.63" width="0.81" height="4.6" transform="translate(-15.72 17.63) rotate(-20.2)"/><rect class="cls-15" x="36.31" y="52.9" width="0.81" height="4.6" transform="translate(-22.68 25.75) rotate(-30)"/><rect class="cls-5" x="31.88" y="55.99" width="0.81" height="4.6" transform="translate(-29.91 34.38) rotate(-39.99)"/><rect class="cls-5" x="28.05" y="59.8" width="0.81" height="4.6" transform="translate(-37.38 43.9) rotate(-49.93)"/><rect class="cls-15" x="24.94" y="64.21" width="0.81" height="4.6" transform="translate(-44.92 55.16) rotate(-59.97)"/><polygon class="cls-5" points="25.35 71.81 25.07 72.57 20.74 71 21.02 70.23 25.35 71.81"/><rect class="cls-5" x="21.23" y="74.32" width="0.81" height="4.6" transform="translate(-57.57 84.64) rotate(-80.01)"/><rect class="cls-15" x="18.85" y="81.59" width="4.6" height="0.81"/><rect class="cls-5" x="19.3" y="86.97" width="4.6" height="0.81" transform="translate(-14.94 5.12) rotate(-10.07)"/><rect class="cls-5" x="20.69" y="92.2" width="4.6" height="0.81" transform="translate(-30.27 13.43) rotate(-19.99)"/><rect class="cls-15" x="22.96" y="97.1" width="4.6" height="0.81" transform="translate(-45.28 25.6) rotate(-29.93)"/><rect class="cls-5" x="26.04" y="101.53" width="4.6" height="0.81" transform="translate(-58.94 42.13) rotate(-40.04)"/><rect class="cls-5" x="29.85" y="105.37" width="4.6" height="0.81" transform="translate(-69.54 62.41) rotate(-50)"/><polygon class="cls-15" points="37.37 106.69 38.07 107.09 35.77 111.08 35.06 110.67 37.37 106.69"/><rect class="cls-5" x="39.16" y="110.77" width="4.6" height="0.81" transform="translate(-77.2 112.09) rotate(-69.99)"/><polygon class="cls-5" points="46.67 110.26 47.47 110.39 46.67 114.93 45.87 114.78 46.67 110.26"/><rect class="cls-15" x="51.65" y="110.78" width="0.81" height="4.6"/><rect class="cls-5" x="57.03" y="110.32" width="0.81" height="4.6" transform="translate(-18.79 11.76) rotate(-10.06)"/><rect class="cls-5" x="62.25" y="108.94" width="0.81" height="4.6" transform="translate(-34.4 28.3) rotate(-20.09)"/><rect class="cls-15" x="67.15" y="106.67" width="0.81" height="4.6" transform="translate(-45.46 48.42) rotate(-30.02)"/><polygon class="cls-5" points="70.2 104.38 70.83 103.86 73.79 107.39 73.16 107.91 70.2 104.38"/><rect class="cls-5" x="75.42" y="99.77" width="0.81" height="4.6" transform="translate(-51.12 94.73) rotate(-50.08)"/><rect class="cls-15" x="78.53" y="95.36" width="0.81" height="4.6" transform="translate(-45.09 117.29) rotate(-60.05)"/><polygon class="cls-5" points="78.94 92.36 79.21 91.6 83.54 93.17 83.25 93.94 78.94 92.36"/><rect class="cls-5" x="82.24" y="85.25" width="0.81" height="4.6" transform="matrix(0.17, -0.98, 0.98, 0.17, -17.89, 153.8)"/><rect class="cls-15" x="80.83" y="81.77" width="4.6" height="0.81"/><rect class="cls-5" x="80.38" y="76.38" width="4.6" height="0.81" transform="translate(-12.28 15.84) rotate(-10.19)"/><rect class="cls-5" x="78.99" y="71.16" width="4.6" height="0.81" transform="translate(-19.64 32.28) rotate(-20.09)"/><polygon class="cls-15" points="77.23 68.17 76.83 67.46 80.81 65.17 81.22 65.87 77.23 68.17"/><rect class="cls-5" x="73.64" y="61.83" width="4.6" height="0.81" transform="translate(-22.24 63.36) rotate(-39.99)"/><polygon class="cls-5" points="70.96 60.42 70.34 59.9 73.3 56.38 73.92 56.9 70.96 60.42"/><polygon class="cls-15" points="66.92 57.49 66.21 57.08 68.51 53.09 69.22 53.5 66.92 57.49"/><rect class="cls-5" x="60.52" y="52.58" width="4.6" height="0.82" transform="translate(-8.45 93.92) rotate(-70.01)"/><polygon class="cls-5" points="57.61 53.91 56.81 53.78 57.61 49.24 58.41 49.39 57.61 53.91"/></g><g class="cls-14"><path class="cls-4" d="M46.66,101.87A20.63,20.63,0,0,1,31.71,84.15l.48-.05a20.14,20.14,0,0,0,14.6,17.31Z"/><path class="cls-4" d="M40,95.3a18,18,0,0,1-5.8-13.21h.42A17.59,17.59,0,0,0,40.27,95Z"/></g><g class="cls-14"><path class="cls-4" d="M72.09,80.07a20.15,20.15,0,0,0-14.6-17.31l.13-.46A20.63,20.63,0,0,1,72.57,80Z"/><path class="cls-4" d="M70.09,82.09h-.42A17.6,17.6,0,0,0,64,69.18l.28-.3A18,18,0,0,1,70.09,82.09Z"/></g><path class="cls-15" d="M77.88,81.85c-4.43,0-21.41-.23-25.5-.32-8.28-.19-16.39-.38-24.18-.38-.86,0-1.29.47-1.29.94s.43.94,1.29.94c7.79,0,15.91-.19,24.19-.38,4.1-.1,21.08-.31,25.5-.32Z"/><circle class="cls-5" cx="52.18" cy="82.09" r="2.84" transform="translate(-42.76 60.93) rotate(-45)"/></g></g></g></g></svg>