<svg xmlns="http://www.w3.org/2000/svg" xmlns:xlink="http://www.w3.org/1999/xlink" viewBox="0 0 106 124.59"><defs><style>.cls-1{fill:none;}.cls-2{fill:#099;}.cls-3{fill:#cdd5d7;}.cls-4{fill:#e5e8ec;}.cls-5{fill:#ff876c;}.cls-6{fill:#484f59;}.cls-7{fill:#f4da80;}.cls-8{fill:#fff;}.cls-9{fill:#f7f8fc;}.cls-10{fill:#ffa38f;}.cls-11{fill:#e36e54;}.cls-12{fill:#30363d;}.cls-13{fill:#596273;}.cls-14{fill:#f0ca67;}.cls-15{clip-path:url(#clip-path);}.cls-16{fill:#b7bec0;}.cls-17{fill:#969c9e;}</style><clipPath id="clip-path"><path class="cls-1" d="M53,107.43C23.78,107.43,0,84,0,55.25S23.78,3.08,53,3.08s53,23.41,53,52.17S82.22,107.43,53,107.43Z"/></clipPath></defs><title>Asset 3</title><g id="Layer_2" data-name="Layer 2"><g id="Layer_4" data-name="Layer 4"><path class="cls-2" d="M53,107.43C23.78,107.43,0,84,0,55.25S23.78,3.08,53,3.08s53,23.41,53,52.17S82.22,107.43,53,107.43Z"/><path class="cls-3" d="M88.48,51.32a18.18,18.18,0,1,0-32.72,0Z"/><circle class="cls-3" cx="89.1" cy="44.12" r="7.2"/><circle class="cls-3" cx="25.12" cy="37.23" r="14.09"/><circle class="cls-3" cx="73.7" cy="35.06" r="15.74"/><path class="cls-4" d="M73.71,19.33a15.74,15.74,0,0,0-14.46,22,15.73,15.73,0,0,0,24.87-18A15.65,15.65,0,0,0,73.71,19.33Z"/><path class="cls-3" d="M75.79,51.32A18.15,18.15,0,0,0,59.43,25.25c-10,0-24.56,8.14-24.56,18.18,0,2.83-10.91,5.5-9.75,7.89Z"/><circle class="cls-3" cx="46.59" cy="23.08" r="23.09"/><path class="cls-4" d="M40,38.11A23.09,23.09,0,0,0,60.78,4.88,23.08,23.08,0,0,0,23.5,23.08c0,.05,0,.1,0,.16a14.06,14.06,0,0,0-11.07,20.1,10.8,10.8,0,0,0,15.13-8.89A23,23,0,0,0,40,38.11Z"/><path class="cls-5" d="M80.95,54.89,72.29,48.6a10.37,10.37,0,0,1,8.65-4.41Z"/><path class="cls-6" d="M80.95,54.89V44.19a10.7,10.7,0,1,1-10.7,10.69,10.25,10.25,0,0,1,2-6.29Z"/><path class="cls-7" d="M80.95,54.89h10.7a10.7,10.7,0,0,0-10.7-10.69h0Z"/><circle class="cls-6" cx="82.93" cy="77.9" r="3.77" transform="translate(-30.79 81.49) rotate(-45.02)"/><path class="cls-8" d="M84.31,78.36h-.92v.92a.45.45,0,1,1-.9,0v-.92h-.92a.45.45,0,0,1,0-.91h.92v-.92a.45.45,0,1,1,.9,0v.92h.92a.45.45,0,0,1,0,.91Z"/><path class="cls-9" d="M23,70.84a7,7,0,1,0,7,7A7,7,0,0,0,23,70.84Zm2.84,7.08-4.64,2.7-.08,0a.27.27,0,0,1,0-.08v-5.4s0-.08,0-.09l.08,0,4.65,2.69.07,0Z"/><polygon class="cls-5" points="56.74 47.69 50.99 44.84 45.25 41.98 48.14 39.09 51.04 36.2 53.89 41.94 56.74 47.69"/><circle class="cls-5" cx="46.83" cy="34.65" r="10.52"/><path class="cls-9" d="M50.95,30.54a.36.36,0,0,0-.31-.07l-5.39,1.31a.37.37,0,0,0-.28.35v4.28l-.25,0a2.28,2.28,0,0,0-.95.23c-.73.35-1.44,1.08-1.32,1.77a.9.9,0,0,0,1,.68,2.27,2.27,0,0,0,.95-.24c.71-.33,1.4-1,1.32-1.7h0v-3L50.35,33v2.12l-.25,0a2.27,2.27,0,0,0-.95.24c-.73.35-1.44,1.08-1.32,1.77a.89.89,0,0,0,1,.68,2.28,2.28,0,0,0,.95-.23c.71-.34,1.4-1,1.32-1.7h0v-5A.36.36,0,0,0,50.95,30.54Z"/><path class="cls-9" d="M43.45,33h0V30H43v2.6l-.15,0a1.38,1.38,0,0,0-.58.14c-.45.21-.88.66-.8,1.08a.54.54,0,0,0,.59.42,1.37,1.37,0,0,0,.58-.14C43.08,33.83,43.5,33.4,43.45,33Z"/><path class="cls-5" d="M66.58,59.1h-1v3h1c.1,0,.18-.15.18-.33V59.43C66.76,59.25,66.68,59.1,66.58,59.1Z"/><path class="cls-10" d="M66.56,59.51h-.93v1.27h.94s.09-.07.09-.16v-.94C66.65,59.58,66.61,59.51,66.56,59.51Z"/><path class="cls-11" d="M65.63,61.39v.7h1c.1,0,.18-.15.18-.33v-.37Z"/><path class="cls-12" d="M62.41,59.07H24.69c0,.37.19.65.38.7H62.41Z"/><path class="cls-13" d="M62.41,61.43V59.77H25.07c-.22.05-.39.4-.39.83s.17.78.39.83H62.41Z"/><path class="cls-12" d="M25.07,61.43c-.2,0-.35.33-.38.7H62.41v-.7Z"/><path class="cls-4" d="M24.69,62.13c0-.37.19-.65.38-.7h0c-.22,0-.39-.4-.39-.83s.17-.78.39-.83h0c-.2,0-.35-.33-.38-.7L21.14,60.6Z"/><path class="cls-3" d="M24.69,62.13c0-.37.19-.65.38-.7h0l-3.93-.83Z"/><rect class="cls-14" x="62.41" y="59.08" width="3.26" height="3.03"/><rect class="cls-7" x="62.41" y="60.08" width="3.26" height="0.62"/><path class="cls-12" d="M22.21,61.06c0-.14,0-.29,0-.43s0-.33,0-.49l-1.06.46Z"/><rect class="cls-7" x="62.88" y="59.02" width="0.19" height="0.47" transform="translate(3.66 122.18) rotate(-89.94)"/><rect class="cls-7" x="62.75" y="59.6" width="0.47" height="0.2"/><rect class="cls-14" x="62.75" y="60.05" width="0.47" height="0.2"/><rect class="cls-14" x="62.75" y="60.49" width="0.47" height="0.2"/><rect class="cls-7" x="62.75" y="60.94" width="0.47" height="0.19" transform="translate(-0.07 0.07) rotate(-0.06)"/><rect class="cls-7" x="62.88" y="61.25" width="0.2" height="0.47" transform="matrix(0, -1, 1, 0, 1.31, 124.28)"/><rect class="cls-7" x="62.75" y="61.83" width="0.47" height="0.19"/><rect class="cls-7" x="64.74" y="59.16" width="0.47" height="0.19"/><rect class="cls-7" x="64.88" y="59.47" width="0.2" height="0.47" transform="translate(5.21 124.62) rotate(-89.94)"/><rect class="cls-14" x="64.74" y="60.05" width="0.47" height="0.2"/><rect class="cls-14" x="64.74" y="60.49" width="0.47" height="0.2"/><rect class="cls-7" x="64.88" y="60.8" width="0.19" height="0.47" transform="translate(3.87 125.95) rotate(-89.94)"/><rect class="cls-7" x="64.74" y="61.39" width="0.47" height="0.2"/><rect class="cls-7" x="64.74" y="61.83" width="0.47" height="0.19"/><g class="cls-15"><polygon class="cls-4" points="74.92 124.59 74.92 95.07 74.92 80.28 64.31 69.67 34.73 69.67 34.73 80.63 34.73 95.07 34.73 124.59 74.92 124.59"/><polygon class="cls-5" points="64.31 80.28 74.92 80.28 64.31 69.67 64.31 80.28"/><polygon class="cls-3" points="74.92 80.28 64.31 80.28 74.92 90.88 74.92 80.28"/><rect class="cls-16" x="40.82" y="95.78" width="28.3" height="0.7"/><rect class="cls-16" x="40.82" y="97.45" width="29.03" height="0.7"/><rect class="cls-16" x="40.82" y="99.13" width="28.42" height="0.7"/><rect class="cls-16" x="40.82" y="100.8" width="25.08" height="0.7"/><rect class="cls-16" x="40.82" y="82.77" width="28.3" height="0.7"/><rect class="cls-16" x="40.82" y="84.44" width="29.03" height="0.7"/><rect class="cls-16" x="40.82" y="86.12" width="28.42" height="0.7"/><rect class="cls-16" x="40.82" y="87.78" width="17.19" height="0.7"/><rect class="cls-16" x="40.82" y="90.76" width="28.3" height="0.7"/><rect class="cls-16" x="40.82" y="92.43" width="29.03" height="0.7"/><rect class="cls-16" x="40.82" y="94.1" width="28.42" height="0.7"/><rect class="cls-16" x="40.82" y="103.87" width="28.3" height="0.7"/><rect class="cls-16" x="40.82" y="105.54" width="29.03" height="0.7"/><rect class="cls-16" x="40.82" y="107.21" width="28.42" height="0.7"/><rect class="cls-16" x="40.82" y="108.88" width="17.19" height="0.7"/><rect class="cls-16" x="40.82" y="111.85" width="28.3" height="0.7"/><rect class="cls-16" x="40.82" y="113.52" width="29.03" height="0.7"/><rect class="cls-16" x="40.82" y="115.19" width="9.32" height="0.7"/><rect class="cls-17" x="40.77" y="79.45" width="13.52" height="1.13"/></g></g></g></svg>